<svg width="537" height="476" viewBox="0 0 537 476" fill="none" xmlns="http://www.w3.org/2000/svg">
<mask id="mask0_2_444" style="mask-type:luminance" maskUnits="userSpaceOnUse" x="0" y="0" width="537" height="476">
<path d="M537 0H0V475.437H537V0Z" fill="white"/>
</mask>
<g mask="url(#mask0_2_444)">
<path fill-rule="evenodd" clip-rule="evenodd" d="M141.819 303.124C139.679 303.075 137.519 302.976 135.372 302.801C129.241 302.317 123.165 301.209 117.568 298.713C112.294 296.436 107.758 292.733 104.47 288.022C103.032 285.903 101.964 283.554 101.314 281.077C100.663 278.511 100.553 275.838 100.991 273.227L101.075 273.241L146.582 212.44L146.239 212.188C146.12 209.378 146 206.513 146.653 203.77C147.277 201.118 148.721 198.55 151.038 197.133C151.027 197.126 151.018 197.117 151.009 197.109C151 197.1 150.991 197.091 150.981 197.084C150.322 196.432 150.188 195.436 150.083 194.517C149.804 191.981 149.528 189.451 149.255 186.927C149.155 186.724 149.116 186.496 149.144 186.273C149.172 186.048 149.264 185.837 149.41 185.665C149.556 185.492 149.75 185.367 149.967 185.303C150.184 185.239 150.414 185.24 150.63 185.306C155.887 185.519 161.146 185.734 166.408 185.951L175.892 173.282L175.022 172.629C171.752 172.485 168.402 172.344 165.012 172.202C163.791 172.151 162.565 172.099 161.336 172.047C158.798 171.941 156.246 171.836 153.694 171.73C146.592 171.436 139.489 171.141 132.714 170.848C132.606 170.844 132.502 170.839 132.397 170.834C132.289 170.828 132.182 170.823 132.076 170.82C129.879 170.728 127.468 170.7 125.761 172.089C123.91 173.605 123.551 176.298 123.734 178.684C123.783 179.328 123.863 179.975 123.941 180.622C124.107 181.982 124.273 183.343 124.169 184.688L123.811 184.668C100.044 198.852 76.0319 214.068 59.3983 236.187C42.7647 258.306 34.7948 288.997 46.2933 314.168C49.1477 320.335 52.9854 325.998 57.6574 330.934C60.2791 333.718 63.1116 336.296 66.13 338.643C72.1162 343.283 78.6967 347.1 85.696 349.994C89.413 351.536 93.2171 352.859 97.0888 353.956C110.642 357.821 124.939 359.126 139.075 359.28C141.532 359.308 143.994 359.302 146.45 359.252C161.575 359.005 176.651 357.487 191.522 354.714H191.53C195.785 353.928 200.017 353.037 204.227 352.041C212.785 350.02 221.253 347.586 229.573 344.738C234.434 343.083 239.647 340.943 242.095 336.439C243.673 333.542 243.806 330.237 243.414 326.912C243.162 325.025 242.816 323.153 242.378 321.3C240.539 313.095 238.701 304.892 236.863 296.691C236.583 295.35 236.218 294.028 235.769 292.734C235.005 290.693 233.889 288.862 232.009 287.838C228.88 286.131 225.043 287.403 221.703 288.63C211.429 292.446 200.917 295.585 190.234 298.031C185.196 299.179 180.132 300.142 175.039 300.921C164.052 302.633 152.935 303.37 141.819 303.124ZM95.9575 268.06C96.1886 267.527 95.9441 266.907 95.4108 266.676C94.8775 266.444 94.2576 266.689 94.0265 267.222C89.2301 278.275 92.5198 292.253 101.743 300.006C108.914 306.034 118.498 308.047 127.494 309.144C151.918 312.101 176.69 309.893 200.206 302.664C200.762 302.494 201.074 301.905 200.903 301.35C200.732 300.794 200.143 300.482 199.588 300.653C176.354 307.795 151.879 309.976 127.748 307.055C118.8 305.964 109.763 303.998 103.098 298.395C94.5867 291.241 91.5311 278.259 95.9575 268.06Z" fill="#EEC6F7"/>
<path d="M473.181 131.589L481.508 143.444L443.772 198.464L431.094 216.95L430.595 217.321C429.107 215.171 427.233 213.316 425.067 211.849C423.962 211.101 422.807 210.429 421.609 209.838L422.34 209.796L472.885 136.073C472.885 136.073 474.156 133.813 473.181 131.589Z" fill="#A362B2"/>
<path d="M441.79 236.655C444.077 244.4 444.54 253.379 439.882 259.974C435.575 266.084 427.669 268.827 420.191 268.771C412.712 268.715 405.487 266.28 398.408 263.867L398.374 263.839L408.236 249.5L408.686 249.037C410.067 250.363 411.372 251.801 412.67 253.176C416.171 256.894 420.499 260.605 425.606 260.472C430.587 260.332 430.544 256.459 432.982 252.11C435.128 248.293 438.433 243.446 440.845 238.325C441.106 237.77 441.335 237.2 441.532 236.618L441.79 236.655Z" fill="#EEC6F7"/>
<path d="M406.361 198.738L408.402 203.186L402.516 211.681L375.537 250.63V242.66L406.361 198.738Z" fill="#A362B2"/>
<path d="M375.537 250.63L340.734 300.879L340.286 300.571V292.896V292.889L375.537 242.66V250.63Z" fill="#A362B2"/>
<path d="M398.371 263.839L266.598 455.424L31.3018 380.873L31.147 368.077C31.3219 369.46 32.2758 370.862 34.6402 372.039C42.5607 376.001 261.771 442.689 261.771 442.689L398.406 244.241L398.467 243.692C399.196 243.773 399.921 243.899 400.634 244.071C403.756 244.843 406.331 246.779 408.68 249.038L408.231 249.501L398.371 263.839Z" fill="#A362B2"/>
<path d="M340.734 300.879L307.847 348.358L307.37 348.028V339.799L340.286 292.896V300.571L340.734 300.879Z" fill="#A362B2"/>
<path d="M307.847 348.358L277.562 392.069V382.269V382.262L307.37 339.799V348.028L307.847 348.358Z" fill="#A362B2"/>
<path d="M277.562 382.262V382.269L249.347 422.473L212.868 410.884V410.877L240.571 370.42L277.562 382.262Z" fill="#EEC6F7"/>
<path d="M201.609 89.0487C201.385 92.5005 197.968 94.7875 194.782 96.134C190.207 98.0016 185.404 99.2542 180.499 99.8594C169.387 101.375 157.707 100.54 146.434 101.557C142.246 101.929 137.798 102.7 134.753 105.598C130.474 109.66 130.426 116.338 130.669 122.231C130.908 127.857 131.144 133.483 131.378 139.109C130.159 140.982 128.495 142.652 126.376 143.367C124.145 144.118 121.381 143.571 120.013 141.649C119.475 140.836 119.24 139.86 119.35 138.891C119.461 137.922 119.909 137.023 120.616 136.352C120.953 136.177 121.283 135.987 121.606 135.791C121.243 135.913 120.907 136.104 120.616 136.352C118.868 137.287 116.991 137.958 115.046 138.344C114.548 135.826 115.671 133.266 117.081 131.119C118.492 128.972 120.245 127.022 121.241 124.651C124.335 117.327 119.431 108.748 121.465 101.062C123.086 94.9448 128.908 90.6933 135.004 89.0097C141.1 87.3262 147.555 87.7468 153.876 87.9644C157.053 88.0698 160.61 87.9857 162.869 85.7475C164.56 84.0713 165.093 81.6027 165.941 79.3779C166.79 77.1531 168.39 74.846 170.761 74.629C173.382 74.39 175.559 77.0421 175.798 79.6656C176.037 82.289 174.921 84.8356 173.82 87.2348C175.22 85.0441 177.117 83.2143 179.358 81.894C181.598 80.5738 184.118 79.8009 186.714 79.6375C187.126 81.9983 186.932 84.4248 186.147 86.6892C185.363 88.9537 184.015 90.981 182.231 92.5804C185.016 90.6323 188.19 89.3084 191.534 88.6989C194.878 88.0893 198.315 88.2088 201.609 89.0487Z" fill="#A362B2"/>
<path d="M172.629 398.096L212.868 410.884L249.348 422.473L277.562 382.269V392.069L252.336 428.492L53.4555 365.608L50.4883 359.294L85.08 370.287L128.827 384.184L172.629 398.096Z" fill="#A362B2"/>
<path d="M151.037 197.131C151.016 197.117 151.002 197.097 150.98 197.083C150.321 196.43 150.188 195.434 150.083 194.515C149.809 191.983 149.533 189.453 149.255 186.925C149.155 186.722 149.116 186.495 149.144 186.271C149.171 186.046 149.264 185.836 149.41 185.663C149.557 185.491 149.75 185.365 149.967 185.301C150.183 185.238 150.414 185.239 150.63 185.304C155.891 185.522 161.15 185.737 166.407 185.95L157.238 198.201L156.937 197.976C156.747 198.138 156.551 198.306 156.354 198.468C154.825 197.405 152.398 198.374 151.037 197.131Z" fill="#A362B2"/>
<path d="M157.239 198.198L146.582 212.439L146.239 212.186C146.12 209.373 146 206.511 146.652 203.768C147.277 201.117 148.725 198.549 151.037 197.131C152.398 198.374 154.825 197.405 156.354 198.464C156.551 198.303 156.748 198.135 156.937 197.973L157.239 198.198Z" fill="#A362B2"/>
<path d="M155.274 138.05C157.085 137.854 158.894 137.652 160.704 137.446C159.567 128.172 158.426 118.898 157.281 109.624C157.159 108.628 157.063 107.534 157.617 106.706C158.263 105.752 159.533 105.499 160.676 105.365C164.661 104.922 168.69 105.073 172.63 105.815" stroke="#A362B2" stroke-width="3.453" stroke-linecap="round" stroke-linejoin="round"/>
<path d="M164.478 115.573C165.963 114.836 167.627 114.539 169.275 114.717C170.923 114.895 172.486 115.54 173.78 116.577" stroke="#A362B2" stroke-width="3.453" stroke-linecap="round" stroke-linejoin="round"/>
<path d="M149.598 114.668C148.114 113.645 146.331 113.147 144.532 113.251C142.733 113.355 141.019 114.056 139.663 115.243" stroke="#A362B2" stroke-width="3.453" stroke-linecap="round" stroke-linejoin="round"/>
<path d="M148.371 150.207C147.399 150.493 146.374 150.547 145.377 150.365C144.381 150.184 143.441 149.771 142.632 149.161C141.823 148.551 141.168 147.76 140.72 146.852C140.272 145.943 140.043 144.942 140.051 143.929" stroke="#A362B2" stroke-width="3.453" stroke-linecap="round" stroke-linejoin="round"/>
<path d="M120.618 136.353C119.911 137.024 119.463 137.922 119.352 138.891C119.242 139.86 119.477 140.837 120.015 141.649C121.383 143.572 124.147 144.118 126.378 143.368C128.497 142.652 130.157 140.983 131.38 139.11C131.45 139.004 131.513 138.906 131.576 138.801" stroke="#A362B2" stroke-width="3.453" stroke-linecap="round" stroke-linejoin="round"/>
<path d="M120.619 136.353C120.956 136.177 121.285 135.987 121.608 135.792C121.245 135.914 120.909 136.104 120.619 136.353Z" stroke="#A362B2" stroke-width="3.453" stroke-linecap="round" stroke-linejoin="round"/>
<path d="M132.72 171.007C132.72 170.951 132.713 170.902 132.713 170.846C132.263 160.267 131.819 149.688 131.38 139.109C131.142 133.483 130.906 127.857 130.672 122.231C130.428 116.338 130.475 109.66 134.756 105.598C137.803 102.7 142.248 101.929 146.436 101.557C157.713 100.54 169.389 101.374 180.502 99.8594C185.406 99.2542 190.209 98.0016 194.784 96.134C197.969 94.7875 201.386 92.5005 201.611 89.0487C198.317 88.2082 194.882 88.0887 191.538 88.6976C188.194 89.3066 185.021 90.6299 182.235 92.5773C184.02 90.9779 185.368 88.9506 186.152 86.6862C186.936 84.4218 187.131 81.9952 186.719 79.6345C184.123 79.7978 181.603 80.5707 179.363 81.891C177.122 83.2106 175.225 85.0404 173.824 87.2317C174.926 84.8326 176.048 82.2945 175.803 79.6625C175.558 77.0305 173.389 74.387 170.766 74.6259C168.395 74.8429 166.804 77.1512 165.946 79.3748C165.089 81.5984 164.564 84.0682 162.874 85.7444C160.615 87.9827 157.058 88.0668 153.88 87.9613C147.56 87.7437 141.113 87.3299 135.009 89.0067C128.906 90.6835 123.09 94.9417 121.47 101.059C119.436 108.748 124.339 117.327 121.246 124.648C120.249 127.019 118.503 128.976 117.086 131.116C115.669 133.256 114.553 135.823 115.051 138.341C116.996 137.955 118.872 137.284 120.621 136.349" stroke="#A362B2" stroke-width="3.453" stroke-linecap="round" stroke-linejoin="round"/>
<path d="M161.344 171.793C162.075 169.351 161.77 166.734 161.73 164.181C161.689 161.628 162.011 158.878 163.694 156.962C164.985 155.5 166.886 154.739 168.753 154.185C172.457 153.083 176.722 152.332 178.918 149.148C180.49 146.861 180.553 143.893 180.553 141.123C180.56 127.527 180.567 113.937 180.574 100.35" stroke="#A362B2" stroke-width="3.453" stroke-linecap="round" stroke-linejoin="round"/>
<path d="M175.022 172.628C170.572 172.431 165.979 172.242 161.335 172.045C151.738 171.646 141.924 171.246 132.713 170.846C132.496 170.839 132.287 170.825 132.075 170.818C129.881 170.726 127.466 170.696 125.761 172.087C123.909 173.603 123.551 176.293 123.734 178.682C123.888 180.681 124.323 182.701 124.169 184.687C124.14 185.069 124.085 185.448 124.007 185.823" stroke="#A362B2" stroke-width="3.453" stroke-linecap="round" stroke-linejoin="round"/>
<path d="M191.528 354.714C195.779 353.929 200.011 353.038 204.225 352.041C212.784 350.02 221.251 347.586 229.571 344.738C234.432 343.083 239.645 340.943 242.093 336.439C243.672 333.542 243.805 330.237 243.412 326.912C243.161 325.026 242.815 323.153 242.376 321.3C240.538 313.1 238.7 304.897 236.861 296.691C236.582 295.351 236.216 294.029 235.767 292.734C235.003 290.693 233.887 288.862 232.007 287.838C228.878 286.131 225.041 287.403 221.702 288.63C211.428 292.446 200.915 295.586 190.232 298.031C185.202 299.174 180.138 300.138 175.037 300.921C164.051 302.633 152.936 303.37 141.82 303.124C139.68 303.075 137.52 302.976 135.373 302.801C129.242 302.317 123.167 301.209 117.569 298.712C112.295 296.434 107.76 292.731 104.471 288.02C103.033 285.901 101.965 283.552 101.314 281.075C100.664 278.509 100.554 275.836 100.992 273.225C101.89 267.606 105.166 262.408 110.322 260.1" stroke="#A362B2" stroke-width="3.453" stroke-linecap="round" stroke-linejoin="round"/>
<path d="M123.811 184.666C100.043 198.85 76.0373 214.073 59.3976 236.185C42.758 258.296 34.7952 288.996 46.2927 314.166C49.1471 320.334 52.9853 325.996 57.6568 330.932C60.279 333.717 63.1115 336.294 66.1293 338.642C72.1174 343.282 78.6998 347.101 85.7003 349.995C89.4178 351.537 93.2219 352.86 97.0931 353.957C110.646 357.822 124.943 359.127 139.079 359.281C141.534 359.309 143.996 359.302 146.454 359.253C161.579 359.006 176.656 357.487 191.526 354.714" stroke="#A362B2" stroke-width="3.453" stroke-linecap="round" stroke-linejoin="round"/>
<path d="M275.669 301.882C279.754 300.685 284.062 300.449 288.254 301.195C289.372 301.398 291.324 301.882 292.272 303.853C294.341 308.154 285.09 312.749 276.973 316.677C274.906 317.701 272.765 318.569 270.569 319.273C264.788 321.076 258.762 322.114 252.918 323.657C249.663 324.472 246.482 325.562 243.41 326.912" stroke="#A362B2" stroke-width="3.453" stroke-linecap="round" stroke-linejoin="round"/>
<path d="M275.669 301.882C273.683 302.801 271.719 303.615 269.853 304.344C271.687 303.295 273.639 302.469 275.669 301.882Z" stroke="#A362B2" stroke-width="3.453" stroke-linecap="round" stroke-linejoin="round"/>
<path d="M273.424 289.626C281.127 287.683 289.834 284.043 291.312 290.511C292.063 293.796 281.442 299.196 275.669 301.882" stroke="#A362B2" stroke-width="3.453" stroke-linecap="round" stroke-linejoin="round"/>
<path d="M273.424 289.626C270.14 290.855 266.829 292.012 263.549 293.156C266.712 291.645 270.02 290.463 273.424 289.626Z" stroke="#A362B2" stroke-width="3.453" stroke-linecap="round" stroke-linejoin="round"/>
<path d="M236.256 292.545C238.56 283.279 243.505 274.881 250.49 268.371C251.647 267.285 252.86 266.259 254.123 265.298C255.647 265.894 256.164 267.492 256.088 269.612C255.966 272.839 254.474 277.266 253.05 281.181C252.433 282.878 251.831 284.472 251.352 285.832C258.676 281.959 266.056 278.073 273.619 274.656C281.513 270.984 289.752 268.101 298.214 266.048C300.781 265.46 304.24 265.404 305.208 267.851C306.015 269.914 304.31 272.047 302.662 273.52C299.914 275.948 296.961 278.133 293.836 280.051C287.487 283.986 280.514 286.975 273.422 289.626" stroke="#A362B2" stroke-width="3.453" stroke-linecap="round" stroke-linejoin="round"/>
<path d="M435.634 226.308C434.214 223.174 432.529 220.168 430.597 217.321C429.108 215.171 427.234 213.316 425.069 211.849C423.963 211.101 422.808 210.429 421.61 209.838C419.163 208.708 417.542 208.856 413.199 208.688C410.744 208.596 408.211 208.512 405.931 209.424C404.67 209.923 403.575 210.768 402.774 211.862C402.113 212.753 401.777 213.841 401.82 214.949C401.954 217.243 403.861 219.094 405.98 219.979C407.16 220.425 408.39 220.727 409.642 220.877C410.947 221.066 412.273 221.193 413.409 221.375C421.47 222.673 422.683 226.312 427.839 232.641" stroke="#A362B2" stroke-width="3.453" stroke-linecap="round" stroke-linejoin="round"/>
<path d="M411.546 221.327C411.054 221.215 410.402 221.095 409.63 220.997C405.639 220.492 398.637 220.534 396.87 224.723C395.67 227.578 397.101 231.61 399.704 233.281C402.306 234.952 404.004 234.683 406.922 235.719C413.145 237.95 419.122 241.401 423.177 246.63" stroke="#A362B2" stroke-width="3.453" stroke-linecap="round" stroke-linejoin="round"/>
<path d="M399.703 233.281C397.529 233.134 395.277 233 393.242 233.793C391.208 234.586 389.475 236.578 389.728 238.746C389.981 240.913 392.077 242.428 394.182 243.018C395.591 243.351 397.025 243.575 398.468 243.688C399.198 243.769 399.922 243.896 400.636 244.067C403.758 244.839 406.333 246.775 408.682 249.034C410.064 250.36 411.369 251.798 412.666 253.173C416.167 256.891 420.495 260.602 425.603 260.469C430.583 260.329 430.54 256.456 432.978 252.107C435.125 248.29 438.429 243.443 440.841 238.322C441.102 237.767 441.332 237.197 441.528 236.615C443.226 231.522 440.834 228.597 443.296 219.112C445.036 212.42 450.725 203.925 444.166 198.733" stroke="#A362B2" stroke-width="3.453" stroke-linecap="round" stroke-linejoin="round"/>
<path d="M422.341 209.794L472.885 136.071C472.885 136.071 474.155 133.816 473.18 131.589C472.549 130.137 470.956 128.698 467.435 127.913C458.525 125.935 252.335 77.4036 252.335 77.4036C252.335 77.4036 247.551 74.927 243.602 82.3567C239.653 89.7863 220.83 113.237 220.83 113.237L175.891 173.28L166.407 185.95L157.238 198.201L146.581 212.442L101.074 273.242" stroke="#A362B2" stroke-width="3.453" stroke-linecap="round" stroke-linejoin="round"/>
<path d="M57.6577 330.932L34.6411 361.645C34.6411 361.645 30.734 364.814 31.1479 368.077C31.3228 369.46 32.2768 370.862 34.6411 372.039C42.5613 376.001 261.771 442.689 261.771 442.689L398.406 244.241" stroke="#A362B2" stroke-width="3.453" stroke-linecap="round" stroke-linejoin="round"/>
<path d="M431.097 216.95L443.773 198.464L481.508 143.444L473.18 131.589L472.493 130.614" stroke="#A362B2" stroke-width="3.453" stroke-linecap="round" stroke-linejoin="round"/>
<path d="M31.1475 368.077L31.3017 380.873L266.598 455.424L398.371 263.839L408.234 249.5" stroke="#A362B2" stroke-width="3.453" stroke-linecap="round" stroke-linejoin="round"/>
<path d="M247.243 100.35L219.841 136.071L423.177 184.666L446.144 147.198L247.243 100.35Z" stroke="#A362B2" stroke-width="3.453" stroke-linecap="round" stroke-linejoin="round"/>
<path d="M281.288 168.839L323.568 178.941L364.902 188.826L406.361 198.738" stroke="#A362B2" stroke-width="3.453" stroke-linecap="round" stroke-linejoin="round"/>
<path d="M104.47 288.02L109.626 281.209L142.24 238.142L179.589 188.826L208 151.316L243.603 159.825L281.288 168.833" stroke="#A362B2" stroke-width="3.453" stroke-linecap="round" stroke-linejoin="round"/>
<path d="M340.285 292.889L375.537 242.66L406.361 198.738L408.403 203.186L402.517 211.681L375.537 250.63L340.734 300.879L307.847 348.358L277.562 392.069L252.336 428.492L53.4555 365.608L50.4883 359.294L66.132 338.642" stroke="#A362B2" stroke-width="3.453" stroke-linecap="round" stroke-linejoin="round"/>
<path d="M277.562 382.262L307.37 339.799L340.285 292.896" stroke="#A362B2" stroke-width="3.453" stroke-linecap="round" stroke-linejoin="round"/>
<path d="M50.4883 359.294L85.08 370.287L128.827 384.184L172.629 398.096L212.868 410.884L249.348 422.473L277.562 382.269" stroke="#A362B2" stroke-width="3.453" stroke-linecap="round" stroke-linejoin="round"/>
<path d="M288.351 300.627L301.07 282.051L335.563 231.674L364.901 188.826" stroke="#A362B2" stroke-width="3.453" stroke-linecap="round" stroke-linejoin="round"/>
<path d="M212.868 410.877L240.571 370.42L269.263 328.505L277.134 317.007" stroke="#A362B2" stroke-width="3.453" stroke-linecap="round" stroke-linejoin="round"/>
<path d="M253.135 281.209L260.319 270.784L294.932 220.513L323.568 178.941" stroke="#A362B2" stroke-width="3.453" stroke-linecap="round" stroke-linejoin="round"/>
<path d="M172.629 398.096L200.719 357.66L204.324 352.462" stroke="#A362B2" stroke-width="3.453" stroke-linecap="round" stroke-linejoin="round"/>
<path d="M190.181 297.806L217.611 258.977L252.932 208.973L281.287 168.839V168.833" stroke="#A362B2" stroke-width="3.453" stroke-linecap="round" stroke-linejoin="round"/>
<path d="M128.827 384.184L146.449 359.294" stroke="#A362B2" stroke-width="3.453" stroke-linecap="round" stroke-linejoin="round"/>
<path d="M135.365 302.816L135.372 302.801L144.007 291.395L177.035 247.76L214.412 198.394L243.602 159.825" stroke="#A362B2" stroke-width="3.453" stroke-linecap="round" stroke-linejoin="round"/>
<path d="M85.0801 370.287L97.0203 354.201" stroke="#A362B2" stroke-width="3.453" stroke-linecap="round" stroke-linejoin="round"/>
<path d="M179.588 188.826L214.412 198.394L252.932 208.973L294.932 220.513L335.564 231.674L375.537 242.66V250.63" stroke="#A362B2" stroke-width="3.453" stroke-linecap="round" stroke-linejoin="round"/>
<path d="M293.837 280.051L301.07 282.051L340.285 292.889V292.896V300.571" stroke="#A362B2" stroke-width="3.453" stroke-linecap="round" stroke-linejoin="round"/>
<path d="M256.082 269.612H256.089L260.32 270.784L273.515 274.432" stroke="#A362B2" stroke-width="3.453" stroke-linecap="round" stroke-linejoin="round"/>
<path d="M142.239 238.142L177.035 247.76L217.611 258.977L250.112 267.964" stroke="#A362B2" stroke-width="3.453" stroke-linecap="round" stroke-linejoin="round"/>
<path d="M252.904 323.657H252.918L269.264 328.505L307.37 339.799V348.028" stroke="#A362B2" stroke-width="3.453" stroke-linecap="round" stroke-linejoin="round"/>
<path d="M109.626 281.209L144.007 291.395L174.98 300.571" stroke="#A362B2" stroke-width="3.453" stroke-linecap="round" stroke-linejoin="round"/>
<path d="M191.521 354.714H191.529L200.719 357.66L240.572 370.42L277.563 382.262V382.269V392.069" stroke="#A362B2" stroke-width="3.453" stroke-linecap="round" stroke-linejoin="round"/>
<path d="M166.555 185.956C166.505 185.956 166.456 185.95 166.407 185.95C161.146 185.733 155.887 185.517 150.63 185.304C150.414 185.239 150.183 185.238 149.967 185.301C149.75 185.365 149.557 185.491 149.41 185.663C149.264 185.836 149.171 186.046 149.144 186.271C149.116 186.495 149.155 186.722 149.255 186.925C149.528 189.45 149.805 191.98 150.083 194.515C150.188 195.434 150.321 196.43 150.98 197.083C151.002 197.097 151.016 197.117 151.037 197.131C152.398 198.374 154.825 197.405 156.354 198.464C156.551 198.303 156.747 198.135 156.937 197.973" stroke="#A362B2" stroke-width="3.453" stroke-linecap="round" stroke-linejoin="round"/>
<path d="M151.282 196.985C151.198 197.033 151.114 197.083 151.038 197.131C148.722 198.549 147.278 201.117 146.653 203.768C146.001 206.511 146.121 209.376 146.24 212.186" stroke="#A362B2" stroke-width="3.453" stroke-linecap="round" stroke-linejoin="round"/>
<path d="M162.156 181.154C161.748 179.68 161.833 178.113 162.4 176.692" stroke="#A362B2" stroke-width="3.453" stroke-linecap="round" stroke-linejoin="round"/>
<path d="M152.993 181.154C152.804 179.568 152.971 177.959 153.484 176.446" stroke="#A362B2" stroke-width="3.453" stroke-linecap="round" stroke-linejoin="round"/>
<path d="M142.829 181.641C143.047 179.986 143.26 178.33 143.467 176.675" stroke="#A362B2" stroke-width="3.453" stroke-linecap="round" stroke-linejoin="round"/>
<path d="M133.708 182.639C133.815 180.898 133.918 179.161 134.018 177.426" stroke="#A362B2" stroke-width="3.453" stroke-linecap="round" stroke-linejoin="round"/>
<path d="M398.406 263.868C405.484 266.281 412.717 268.715 420.188 268.771C427.659 268.827 435.572 266.084 439.88 259.974C444.538 253.38 444.075 244.401 441.788 236.655" stroke="#A362B2" stroke-width="3.453" stroke-linecap="round" stroke-linejoin="round"/>
<path d="M49.7405 176.808C44.1608 167.646 40.6736 156.468 43.6018 146.145C46.3082 136.605 54.0401 129.291 62.3664 123.906C70.6926 118.52 79.9021 114.555 87.9784 108.801C96.0547 103.047 103.18 94.9265 104.582 85.1099C105.043 81.8794 104.777 78.324 102.74 75.7755C100.703 73.2271 96.479 72.3079 94.1298 74.5723C91.2559 77.3426 93.4593 82.8376 97.2854 83.9683C101.111 85.099 105.254 82.926 107.837 79.8844C109.672 77.7236 110.951 75.1471 111.563 72.3798C112.176 69.6125 112.103 66.7367 111.353 64.0036C110.602 61.2704 109.195 58.7616 107.255 56.6953C105.314 54.6295 102.899 53.0679 100.218 52.1469" stroke="#A362B2" stroke-width="3.453" stroke-linecap="round" stroke-linejoin="round"/>
<path d="M147.975 34.3887L157.236 43.7036L157.406 16.2228C164.164 14.6575 170.797 12.5918 177.249 10.0421" stroke="#A362B2" stroke-width="3.453" stroke-linecap="round" stroke-linejoin="round"/>
<path d="M166.467 37.2267C164.578 33.5762 166.58 28.4769 170.449 27.0877C171.625 26.6653 173.185 26.6787 173.852 27.7357C174.181 28.4189 174.277 29.1906 174.126 29.933L172.916 42.676C176.695 40.0099 181.08 38.3306 185.673 37.7911" stroke="#A362B2" stroke-width="3.453" stroke-linecap="round" stroke-linejoin="round"/>
<path d="M207.363 43.842L199.042 36.3075" stroke="#A362B2" stroke-width="3.453" stroke-linecap="round" stroke-linejoin="round"/>
<path d="M199.407 44.1577L204.98 33.8292" stroke="#A362B2" stroke-width="3.453" stroke-linecap="round" stroke-linejoin="round"/>
<path d="M261.978 12.9831C259.948 10.5785 257.802 8.0873 254.89 6.89444C251.977 5.70183 248.074 6.29161 246.52 9.02781C244.908 11.864 246.475 15.5029 248.676 17.91C250.877 20.317 253.729 22.1834 255.365 25.0055C257 27.8277 256.727 32.2084 253.732 33.5018C251.943 34.2747 249.869 33.6683 248.095 32.8588C245.899 31.8567 243.852 30.5566 242.01 28.9956" stroke="#A362B2" stroke-width="3.453" stroke-linecap="round" stroke-linejoin="round"/>
<path d="M256.488 1.64587C252.317 13.4463 248.976 25.5243 246.491 37.7911L247.574 36.3051" stroke="#A362B2" stroke-width="3.453" stroke-linecap="round" stroke-linejoin="round"/>
<path d="M297.772 32.6101L288.684 21.9384" stroke="#A362B2" stroke-width="3.453" stroke-linecap="round" stroke-linejoin="round"/>
<path d="M287.173 31.3404L297.565 20.4395" stroke="#A362B2" stroke-width="3.453" stroke-linecap="round" stroke-linejoin="round"/>
<path d="M345.134 70.9645L336.713 53.6342" stroke="#A362B2" stroke-width="3.453" stroke-linecap="round" stroke-linejoin="round"/>
<path d="M368.902 73.4489L381.361 5.62241" stroke="#A362B2" stroke-width="3.453" stroke-linecap="round" stroke-linejoin="round"/>
<path d="M392.524 80.7323L401.98 71.371" stroke="#A362B2" stroke-width="3.453" stroke-linecap="round" stroke-linejoin="round"/>
<path d="M457.435 88.7958C456.643 85.8773 455.101 82.3426 452.078 82.3061C449.766 82.278 447.971 84.6223 447.811 86.9269C447.651 89.2316 448.706 91.4405 449.856 93.4453C451.007 95.4501 452.309 97.4432 452.735 99.7156C453.069 101.503 452.6 103.707 450.929 104.425C449.438 105.065 447.736 104.228 446.441 103.25C443.429 100.966 441.155 97.8461 439.901 94.2798L441.192 94.2426" stroke="#A362B2" stroke-width="3.453" stroke-linecap="round" stroke-linejoin="round"/>
<path d="M438.784 103.711L457.879 81.7337" stroke="#A362B2" stroke-width="3.453" stroke-linecap="round" stroke-linejoin="round"/>
<path d="M496.697 64.0414L498.065 52.1432" stroke="#A362B2" stroke-width="3.453" stroke-linecap="round" stroke-linejoin="round"/>
<path d="M491.19 59.0078L503.573 56.5471" stroke="#A362B2" stroke-width="3.453" stroke-linecap="round" stroke-linejoin="round"/>
<path d="M468.962 285.007C458.621 287.706 449.701 294.554 442.996 302.875C436.291 311.197 431.611 320.96 427.6 330.867C425.63 335.729 423.785 340.752 423.548 345.993C423.312 351.234 424.912 356.797 428.869 360.242C433.379 364.172 440.974 364.34 445.153 360.059C449.332 355.778 448.528 347.508 443.254 344.68C438.442 342.099 432.074 344.664 428.991 349.17C425.907 353.676 425.482 359.504 426.038 364.936C426.593 370.368 428.022 375.702 428.257 381.157C428.454 386.473 427.527 391.77 425.538 396.703C423.549 401.636 420.542 406.095 416.714 409.786C411.915 414.358 405.329 417.71 398.797 416.589C392.266 415.467 386.689 408.499 388.81 402.22" stroke="#A362B2" stroke-width="3.453" stroke-linecap="round" stroke-linejoin="round"/>
<path d="M261.325 474.279C266.555 474.313 271.893 474.331 276.863 472.704C281.834 471.078 286.465 467.49 287.944 462.473" stroke="#A362B2" stroke-width="3.453" stroke-linecap="round" stroke-linejoin="round"/>
<path d="M24.2036 402.967C15.6281 401.45 9.10062 392.474 10.3014 383.849" stroke="#A362B2" stroke-width="3.453" stroke-linecap="round" stroke-linejoin="round"/>
<path d="M254.227 394.369C250.661 391.575 246.756 389.245 242.604 387.434" stroke="#A362B2" stroke-width="3.453" stroke-linecap="round" stroke-linejoin="round"/>
<path d="M248.757 402.346L236.958 395.754" stroke="#A362B2" stroke-width="3.453" stroke-linecap="round" stroke-linejoin="round"/>
<path d="M212.052 184.434C212.994 179.033 213.754 173.604 214.331 168.147C210.377 171.859 206.199 175.324 201.822 178.525" stroke="#A362B2" stroke-width="3.453" stroke-linecap="round" stroke-linejoin="round"/>
<path d="M241.667 190.831L249.096 180.185" stroke="#A362B2" stroke-width="3.453" stroke-linecap="round" stroke-linejoin="round"/>
<path d="M240.644 184.218C244.683 184.146 248.704 184.79 252.519 186.121" stroke="#A362B2" stroke-width="3.453" stroke-linecap="round" stroke-linejoin="round"/>
<path d="M280.752 195.239L292.394 196.702" stroke="#A362B2" stroke-width="3.453" stroke-linecap="round" stroke-linejoin="round"/>
<path d="M331.315 212.974C328.904 209.527 327.052 205.72 325.829 201.694" stroke="#A362B2" stroke-width="3.453" stroke-linecap="round" stroke-linejoin="round"/>
<path d="M321.155 210.716L335.748 203.996" stroke="#A362B2" stroke-width="3.453" stroke-linecap="round" stroke-linejoin="round"/>
<path d="M360.225 217.81L378.286 220.614" stroke="#A362B2" stroke-width="3.453" stroke-linecap="round" stroke-linejoin="round"/>
<path d="M370.882 213.346C371.138 213.17 371.439 213.071 371.75 213.062C372.06 213.054 372.367 213.137 372.631 213.299" stroke="#A362B2" stroke-width="3.453" stroke-linecap="round" stroke-linejoin="round"/>
<path d="M366.169 225.716L368.646 225.963" stroke="#A362B2" stroke-width="3.453" stroke-linecap="round" stroke-linejoin="round"/>
<path d="M166.208 223.831C171.171 218.959 175.768 213.728 179.963 208.181C180.261 211.498 179.843 214.84 178.739 217.981C182.43 215.683 186.321 213.721 190.364 212.118L178.125 228.658" stroke="#A362B2" stroke-width="3.453" stroke-linecap="round" stroke-linejoin="round"/>
<path d="M151.766 261.504L151.015 261.582C151.823 259.903 150.482 257.803 148.717 257.205C146.951 256.606 145.008 257.115 143.283 257.821C139.873 259.217 136.639 261.561 135.223 264.962C134.849 265.764 134.641 266.632 134.611 267.516C134.581 268.399 134.729 269.28 135.047 270.105C135.433 270.896 135.997 271.587 136.695 272.122C137.393 272.658 138.206 273.025 139.07 273.192C140.811 273.512 142.608 273.255 144.19 272.461" stroke="#A362B2" stroke-width="3.453" stroke-linecap="round" stroke-linejoin="round"/>
<path d="M210.186 227.201L209.546 227.774L222.242 223.899C217.513 228.926 213.059 234.205 208.902 239.714L210.186 239.333" stroke="#A362B2" stroke-width="3.453" stroke-linecap="round" stroke-linejoin="round"/>
<path d="M247.301 236.579C249.091 235.126 251.268 234.231 253.561 234.005C254.327 233.931 255.26 234.024 255.611 234.708C255.99 235.45 255.411 236.306 254.851 236.922C250.814 241.371 246.051 245.103 240.766 247.959C244.528 247.827 248.285 248.291 251.902 249.334C251.796 249.245 251.608 249.395 251.671 249.517C251.691 249.542 251.718 249.562 251.748 249.572C251.779 249.582 251.811 249.583 251.842 249.573C251.872 249.564 251.9 249.546 251.92 249.521C251.94 249.496 251.952 249.465 251.955 249.433" stroke="#A362B2" stroke-width="3.453" stroke-linecap="round" stroke-linejoin="round"/>
<path d="M292.449 246.337C295.204 245.021 298.207 244.3 301.26 244.224C302.04 244.162 302.825 244.275 303.556 244.554C303.92 244.7 304.235 244.943 304.469 245.257C304.703 245.571 304.846 245.943 304.882 246.332C304.903 247.473 303.777 248.256 302.771 248.793C299.736 250.411 296.579 251.788 293.329 252.909C294.853 252.809 296.425 252.717 297.852 253.254C299.278 253.791 300.518 255.143 300.417 256.662C300.288 258.599 298.239 259.757 296.411 260.41C292.034 261.971 287.406 262.711 282.761 262.593L284.959 262.36" stroke="#A362B2" stroke-width="3.453" stroke-linecap="round" stroke-linejoin="round"/>
<path d="M188.641 262.85L175.4 272.453L185.358 275.354L184.684 275.482" stroke="#A362B2" stroke-width="3.453" stroke-linecap="round" stroke-linejoin="round"/>
<path d="M183.679 271.262L175.744 281.652" stroke="#A362B2" stroke-width="3.453" stroke-linecap="round" stroke-linejoin="round"/>
<path d="M233.939 277.619C230.416 277.388 226.955 276.583 223.69 275.237L217.515 284.903C218.06 284.584 218.681 284.419 219.313 284.425C219.944 284.431 220.562 284.609 221.101 284.94C221.639 285.271 222.078 285.741 222.369 286.301C222.661 286.862 222.794 287.491 222.757 288.122" stroke="#A362B2" stroke-width="3.453" stroke-linecap="round" stroke-linejoin="round"/>
<path d="M225.556 354.753C231.219 351.99 235.839 347.473 238.729 341.873" stroke="#A362B2" stroke-width="3.453" stroke-linecap="round" stroke-linejoin="round"/>
<path d="M157.522 370.882C155.426 373.433 153.957 377.029 155.385 380.006C155.932 381.02 156.726 381.88 157.693 382.504C158.661 383.129 159.772 383.499 160.921 383.579C163.23 383.711 165.524 383.134 167.497 381.926C169.7 380.654 171.597 378.914 173.055 376.828C174.512 374.743 175.495 372.363 175.933 369.857C177.977 357.647 160.93 366.737 157.522 370.882Z" stroke="#A362B2" stroke-width="3.453" stroke-linecap="round" stroke-linejoin="round"/>
<path d="M192.423 391.809C201.113 388.188 209.524 383.929 217.586 379.07" stroke="#A362B2" stroke-width="3.453" stroke-linecap="round" stroke-linejoin="round"/>
<path d="M201.363 377.509L203.815 376.305" stroke="#A362B2" stroke-width="3.453" stroke-linecap="round" stroke-linejoin="round"/>
<path d="M205.481 397.958L208.782 396.803" stroke="#A362B2" stroke-width="3.453" stroke-linecap="round" stroke-linejoin="round"/>
<path d="M122.472 359.343L118.18 367.925" stroke="#A362B2" stroke-width="3.453" stroke-linecap="round" stroke-linejoin="round"/>
<path d="M66.9165 353.309C69.429 350.642 72.192 348.222 75.1665 346.082" stroke="#A362B2" stroke-width="3.453" stroke-linecap="round" stroke-linejoin="round"/>
<path d="M84.9147 349.751L83.4658 359.991" stroke="#A362B2" stroke-width="3.453" stroke-linecap="round" stroke-linejoin="round"/>
<path d="M326.101 262.84C325.045 267.188 323.782 271.478 322.313 275.707L338.874 256.971C342.793 259.108 347.118 260.396 351.568 260.75" stroke="#A362B2" stroke-width="3.453" stroke-linecap="round" stroke-linejoin="round"/>
<path d="M276.624 352.274C275.807 351.664 274.806 351.353 273.788 351.393C272.77 351.433 271.796 351.821 271.03 352.493C270.304 353.208 269.862 354.161 269.781 355.176C269.701 356.192 269.989 357.202 270.592 358.023C271.249 358.8 272.175 359.302 273.185 359.428C274.196 359.554 275.216 359.295 276.044 358.703C276.823 358.049 277.315 357.115 277.412 356.103C277.51 355.09 277.207 354.08 276.567 353.289" stroke="#A362B2" stroke-width="3.453" stroke-linecap="round" stroke-linejoin="round"/>
<path d="M317.561 302.972C315.559 302.923 313.73 301.911 311.86 301.195C309.99 300.48 307.758 300.087 306.08 301.178C304.926 301.929 304.276 303.227 303.624 304.439C299.954 311.254 294.7 317.087 288.304 321.445C293.947 321.659 299.539 322.605 304.939 324.26L303.67 323.935" stroke="#A362B2" stroke-width="3.453" stroke-linecap="round" stroke-linejoin="round"/>
<path d="M299.413 310.693C301.874 310.214 304.423 310.498 306.718 311.509" stroke="#A362B2" stroke-width="3.453" stroke-linecap="round" stroke-linejoin="round"/>
<path d="M123.689 227.417L122.79 220.516" stroke="#A362B2" stroke-width="3.453" stroke-linecap="round" stroke-linejoin="round"/>
<path d="M103.648 211.287C105.202 210.172 107.017 209.476 108.917 209.268" stroke="#A362B2" stroke-width="3.453" stroke-linecap="round" stroke-linejoin="round"/>
<path d="M98.683 233.06C96.5935 233.333 94.5765 234.006 92.7412 235.041" stroke="#A362B2" stroke-width="3.453" stroke-linecap="round" stroke-linejoin="round"/>
<path d="M75.2473 245.605L73.5967 239.993" stroke="#A362B2" stroke-width="3.453" stroke-linecap="round" stroke-linejoin="round"/>
<path d="M95.7138 263.102L94.3936 256.83" stroke="#A362B2" stroke-width="3.453" stroke-linecap="round" stroke-linejoin="round"/>
<path d="M69.8934 276.159L64.4253 278.772" stroke="#A362B2" stroke-width="3.453" stroke-linecap="round" stroke-linejoin="round"/>
<path d="M92.743 292.813L90.4316 285.881" stroke="#A362B2" stroke-width="3.453" stroke-linecap="round" stroke-linejoin="round"/>
<path d="M68.3145 307.009L73.5967 304.368" stroke="#A362B2" stroke-width="3.453" stroke-linecap="round" stroke-linejoin="round"/>
<path d="M93.3988 320.215L92.4102 312.621" stroke="#A362B2" stroke-width="3.453" stroke-linecap="round" stroke-linejoin="round"/>
<path d="M120.484 312.749C118.054 312.644 115.625 312.952 113.297 313.657L114.215 313.318" stroke="#A362B2" stroke-width="3.453" stroke-linecap="round" stroke-linejoin="round"/>
<path d="M112.305 343.005L113.269 336.398" stroke="#A362B2" stroke-width="3.453" stroke-linecap="round" stroke-linejoin="round"/>
<path d="M137.175 320.631L140.603 312.951" stroke="#A362B2" stroke-width="3.453" stroke-linecap="round" stroke-linejoin="round"/>
<path d="M156.163 327.755L151.544 324.449" stroke="#A362B2" stroke-width="3.453" stroke-linecap="round" stroke-linejoin="round"/>
<path d="M138.607 345.284L142.547 340.315" stroke="#A362B2" stroke-width="3.453" stroke-linecap="round" stroke-linejoin="round"/>
<path d="M172.964 317.243L178.576 309.98" stroke="#A362B2" stroke-width="3.453" stroke-linecap="round" stroke-linejoin="round"/>
<path d="M185.839 339.361L182.63 334.404L183.528 334.409" stroke="#A362B2" stroke-width="3.453" stroke-linecap="round" stroke-linejoin="round"/>
<path d="M193.427 314.947L199.72 316.861" stroke="#A362B2" stroke-width="3.453" stroke-linecap="round" stroke-linejoin="round"/>
<path d="M207.956 339.36L213.238 332.427" stroke="#A362B2" stroke-width="3.453" stroke-linecap="round" stroke-linejoin="round"/>
<path d="M223.596 346.624C223.578 327.915 221.828 309.247 218.371 290.861" stroke="#A362B2" stroke-width="3.453" stroke-linecap="round" stroke-linejoin="round"/>
<path d="M223.188 335.538L243.276 329.11" stroke="#A362B2" stroke-width="3.453" stroke-linecap="round" stroke-linejoin="round"/>
<path d="M222.48 322.177L240.32 317.276" stroke="#A362B2" stroke-width="3.453" stroke-linecap="round" stroke-linejoin="round"/>
<path d="M221.488 309.634L238.305 305.526C238.18 305.797 237.662 305.602 237.747 305.315" stroke="#A362B2" stroke-width="3.453" stroke-linecap="round" stroke-linejoin="round"/>
<path d="M219.852 298.478L235.686 295.446" stroke="#A362B2" stroke-width="3.453" stroke-linecap="round" stroke-linejoin="round"/>
<path d="M135.328 199.045L129.056 200.04" stroke="#A362B2" stroke-width="3.453" stroke-linecap="round" stroke-linejoin="round"/>
<path d="M21.0251 246.596L27.385 251.265C27.5769 251.406 27.7209 251.602 27.7979 251.827C27.8749 252.052 27.8809 252.296 27.8153 252.525C27.7497 252.754 27.6156 252.957 27.4309 253.107C27.2464 253.257 27.0202 253.348 26.7828 253.365L18.9149 253.953C18.6854 253.971 18.4661 254.055 18.2847 254.197C18.1033 254.339 17.968 254.531 17.8957 254.75L15.421 262.241C15.3462 262.467 15.204 262.665 15.0134 262.808C14.8229 262.951 14.5932 263.032 14.3553 263.04C14.1174 263.048 13.8826 262.983 13.6826 262.854C13.4825 262.725 13.3268 262.538 13.2365 262.317L10.2461 255.016C10.1588 254.804 10.0104 254.622 9.81959 254.492C9.6288 254.364 9.40413 254.294 9.17391 254.293L1.2847 254.255C1.04655 254.253 0.814504 254.18 0.619697 254.042C0.424951 253.906 0.276833 253.712 0.195338 253.488C0.113843 253.265 0.102873 253.021 0.163948 252.791C0.224963 252.561 0.355097 252.355 0.536799 252.201L6.55595 247.101C6.73187 246.952 6.85963 246.755 6.92308 246.534C6.98659 246.312 6.98287 246.077 6.91253 245.858L4.51036 238.343C4.43776 238.116 4.43642 237.872 4.50652 237.645C4.57661 237.417 4.71479 237.217 4.90241 237.07C5.09008 236.923 5.31811 236.838 5.55589 236.824C5.79367 236.812 6.02974 236.872 6.23229 236.997L12.9433 241.146C13.139 241.267 13.3662 241.328 13.5962 241.32C13.8262 241.311 14.0487 241.236 14.2355 241.101L20.6411 236.495C20.8342 236.356 21.065 236.28 21.3027 236.276C21.5403 236.273 21.7734 236.342 21.9705 236.474C22.1677 236.607 22.3196 236.797 22.4057 237.019C22.4919 237.24 22.5083 237.483 22.4526 237.714L20.5807 245.378C20.5257 245.602 20.5386 245.838 20.6177 246.055C20.6968 246.271 20.8386 246.46 21.0251 246.596Z" fill="#A362B2"/>
<path d="M531.509 108.85L536.274 115.138C536.418 115.328 536.5 115.557 536.51 115.795C536.519 116.033 536.455 116.269 536.327 116.469C536.199 116.67 536.013 116.826 535.793 116.918C535.573 117.009 535.33 117.031 535.097 116.98L527.389 115.3C527.164 115.251 526.93 115.27 526.715 115.354C526.5 115.438 526.316 115.584 526.185 115.773L521.674 122.248C521.538 122.443 521.346 122.592 521.123 122.675C520.899 122.758 520.656 122.77 520.426 122.71C520.195 122.651 519.989 122.521 519.834 122.341C519.679 122.16 519.583 121.936 519.559 121.699L518.775 113.848C518.751 113.62 518.661 113.402 518.515 113.225C518.369 113.047 518.173 112.916 517.953 112.849L510.402 110.563C510.174 110.494 509.973 110.357 509.825 110.17C509.678 109.983 509.591 109.755 509.577 109.518C509.563 109.28 509.622 109.044 509.746 108.84C509.87 108.637 510.053 108.477 510.272 108.381L517.495 105.206C517.706 105.114 517.885 104.961 518.008 104.766C518.132 104.572 518.196 104.346 518.191 104.116L518.033 96.2278C518.028 95.9901 518.096 95.7561 518.228 95.558C518.361 95.3599 518.55 95.2069 518.772 95.1197C518.993 95.0325 519.237 95.0155 519.468 95.071C519.7 95.1264 519.909 95.2514 520.067 95.4294L525.316 101.319C525.469 101.491 525.67 101.614 525.893 101.672C526.116 101.73 526.351 101.72 526.568 101.645L534.021 99.0561C534.246 98.9781 534.49 98.9708 534.719 99.0354C534.948 99.0994 535.152 99.2329 535.303 99.4169C535.455 99.601 535.546 99.8265 535.565 100.064C535.584 100.301 535.529 100.539 535.409 100.745L531.429 107.557C531.313 107.756 531.259 107.985 531.273 108.216C531.287 108.446 531.369 108.667 531.509 108.85Z" fill="#A362B2"/>
<path d="M491.19 230.076L503.573 216.947L481.508 212.974L491.19 230.076Z" stroke="#A362B2" stroke-width="3.453" stroke-miterlimit="10"/>
<path d="M440.943 256.417C440.278 253.123 438.639 250.104 436.239 247.751" stroke="#A362B2" stroke-width="3.453" stroke-linecap="round" stroke-linejoin="round"/>
<path d="M432.678 265.026L430.24 258.167" stroke="#A362B2" stroke-width="3.453" stroke-linecap="round" stroke-linejoin="round"/>
<path d="M418.378 268.299C418.621 265.433 419.215 262.608 420.146 259.887" stroke="#A362B2" stroke-width="3.453" stroke-linecap="round" stroke-linejoin="round"/>
<path d="M409.169 261.317C410.462 259.265 412.189 257.521 414.228 256.207" stroke="#A362B2" stroke-width="3.453" stroke-linecap="round" stroke-linejoin="round"/>
<path d="M410.569 266.507C407.884 262.99 406.615 258.594 407.014 254.188" stroke="#A362B2" stroke-width="3.453" stroke-linecap="round" stroke-linejoin="round"/>
<g opacity="0.1">
<path d="M125.315 176.104C126.216 182.033 121.48 186.223 116.904 188.916C111.75 191.946 106.409 194.596 101.335 197.773C81.3524 210.53 64.9163 228.128 53.5509 248.934C47.305 260.369 42.2532 272.812 41.373 285.933C39.7596 309.995 55.3643 331.642 75.5484 343.271C98.0451 356.233 125.591 358.795 151.07 358.241C181.598 357.509 211.71 350.986 239.805 339.019C245.52 336.6 241.337 326.45 235.534 328.887C211.545 339.022 186.006 345.002 160.012 346.572C136.051 347.959 109.453 346.943 87.3984 336.464C68.3017 327.39 51.8924 309.292 52.8609 287.013C53.3851 274.965 58.5357 263.371 64.3464 252.995C69.7633 243.405 76.2823 234.481 83.771 226.405C92.2448 217.199 101.956 209.215 112.627 202.682C118.307 199.214 124.723 196.35 128.807 190.873C132.441 186.001 134.095 179.214 130.484 173.924C128.604 171.17 124.837 172.962 125.314 176.104L125.315 176.104Z" fill="#A362B2"/>
</g>
<g opacity="0.1">
<path d="M178.881 99.9222C176.748 98.947 174.543 99.6388 172.298 99.96C169.479 100.352 166.64 100.577 163.795 100.634C158.492 100.761 153.276 99.534 148.037 98.9275C143.719 98.4258 138.556 98.9811 135.236 102.072C133.652 103.55 132.51 105.403 131.187 107.098C129.525 109.225 128.085 109.302 125.789 110.428C123.046 111.769 123.123 116.218 125.789 117.582C130.748 120.123 135.49 116.271 138.258 112.268C139.538 110.417 140.391 107.974 142.214 106.553C144.094 105.087 146.724 105.395 149.008 105.578C154.495 106.104 160.02 106.111 165.509 105.6C169.499 105.173 176.786 104.82 179.198 101.139C179.315 100.936 179.348 100.695 179.289 100.467C179.229 100.24 179.082 100.046 178.88 99.9271L178.881 99.9222Z" fill="#A362B2"/>
</g>
</g>
</svg>
