<svg width="601" height="601" viewBox="0 0 601 601" fill="none" xmlns="http://www.w3.org/2000/svg">
<mask id="mask0_2_445" style="mask-type:luminance" maskUnits="userSpaceOnUse" x="23" y="35" width="555" height="531">
<path d="M577.21 35.6844H23.7896V565.316H577.21V35.6844Z" fill="white"/>
</mask>
<g mask="url(#mask0_2_445)">
<path fill-rule="evenodd" clip-rule="evenodd" d="M351.339 235.032C352.733 217.086 359.404 171.41 391.288 153.278C390.06 133.965 385.631 114.874 381.23 95.9816C380.202 91.5586 378.974 86.8044 375.448 83.9484C371.746 80.9328 366.906 80.9678 362.105 82.1748C359.341 82.9136 356.643 83.8808 354.039 85.0659C349.761 86.9509 345.214 89.1314 341.612 92.0776C338.652 94.4991 336.334 97.4315 335.341 101.143C333.676 107.343 336.279 113.632 338.785 119.685C339.176 120.631 339.566 121.572 339.936 122.505C347.339 141.182 347.181 163.102 337.921 180.931C328.661 198.76 309.943 211.78 289.864 212.587C290.368 209.502 287.402 206.729 284.317 206.246C282.19 206.004 280.036 206.269 278.032 207.019C277.086 207.322 276.155 207.681 275.238 208.04C271.717 209.405 267.964 210.198 264.318 210.968C257.797 212.345 251.621 213.649 247.736 218.031C246.62 219.295 245.735 220.745 245.121 222.316C244.567 223.697 244.37 225.202 244.168 226.745C243.668 230.567 243.137 234.626 237.082 237.654C222.957 244.72 150.144 255.434 83.4453 252.065C83.6225 255.133 83.804 258.205 83.9906 261.283C84.6436 272.341 85.2946 283.403 85.9432 294.471C86.009 295.576 86.0734 296.681 86.1379 297.787C86.208 298.992 86.2782 300.198 86.3501 301.405C111.19 300.946 136.035 299.478 160.88 298.01C185.722 296.542 210.563 295.074 235.397 294.615H235.404L259.711 364.298V364.305L301.399 361.972L301.854 358.737L309.299 305.836L309.306 305.829L319.145 235.949L351.339 235.032ZM348.608 127.212C348.395 126.681 347.792 126.423 347.262 126.636C346.732 126.849 346.474 127.452 346.686 127.982C350.1 136.491 351.662 145.628 351.27 154.787C350.877 163.946 348.539 172.916 344.411 181.102C340.283 189.287 334.459 196.499 327.327 202.26C320.195 208.019 311.919 212.195 303.048 214.508C302.495 214.652 302.164 215.217 302.308 215.771C302.452 216.324 303.018 216.655 303.57 216.511C312.726 214.124 321.267 209.814 328.628 203.87C335.988 197.925 341.999 190.481 346.259 182.033C350.52 173.586 352.932 164.328 353.337 154.876C353.742 145.423 352.13 135.992 348.608 127.212Z" fill="#EEC6F7" fill-opacity="0.96"/>
<path d="M532.131 465.163L534.904 552.527L441.87 555.177L532.131 465.163Z" fill="#A362B2"/>
<path d="M380.773 543.42L530.165 403.17L532.132 465.163L441.87 555.177L381.001 556.915V556.908L380.773 543.42Z" fill="#EEC6F7" fill-opacity="0.96"/>
<path d="M379.572 473.291L528.185 340.804L530.165 403.17L380.773 543.42L379.572 473.291Z" fill="#A362B2"/>
<path d="M359.087 358.743L511.356 230.485L524.672 230.105L526.191 277.837L378.433 407.054L377.592 357.708L359.087 358.743Z" fill="#A362B2"/>
<path d="M387.99 233.99L447.389 232.307L301.854 358.736L309.299 305.836L309.306 305.829L387.99 233.99Z" fill="#A362B2"/>
<path d="M511.356 230.485L359.087 358.743L301.399 361.972L301.855 358.736L447.389 232.307L486.469 231.188L511.356 230.485Z" fill="#EEC6F7" fill-opacity="0.96"/>
<path d="M351.339 235.032C352.732 217.086 359.404 171.41 391.288 153.278C391.55 157.409 391.667 161.557 391.605 165.711C391.26 189.266 379.579 217.375 363.592 234.687L351.339 235.032Z" fill="#EEC6F7" fill-opacity="0.96"/>
<path d="M270.212 131.536L270.668 131.702C274.758 127.763 278.85 123.819 282.942 119.87C283.743 119.097 285.067 118.305 285.847 119.111C286.012 119.333 286.131 119.585 286.197 119.854C286.264 120.123 286.276 120.402 286.233 120.676C285.916 127.1 282.017 132.971 276.905 136.87C275.188 138.169 273.349 139.299 271.413 140.243C267.544 142.081 263.48 143.474 259.297 144.397C253.037 145.873 246.643 146.75 240.433 148.426C237.494 149.226 234.285 150.475 233.051 153.263C232.064 155.492 232.643 158.065 233.239 160.432C234.777 166.552 236.296 172.589 237.809 178.592C233.4 181.372 228.987 184.155 224.569 186.94C224.905 182.286 226.613 177.835 229.474 174.149C225.881 177.441 221.415 179.628 216.61 180.448C220.35 174.556 224.2 168.319 224.594 161.35C224.966 154.74 222.171 148.413 219.433 142.381C227.222 140.055 235.014 137.727 242.808 135.398C244.258 134.971 245.776 134.494 246.824 133.404C249.108 131.031 248.122 127.202 247.818 123.924C247.459 119.955 248.347 115.972 250.357 112.53C251.392 110.764 253.448 108.991 255.256 109.943C256.394 110.543 256.801 111.946 257.022 113.206C257.876 118.037 257.699 122.993 256.504 127.751L256.829 127.834C259.427 121.116 263.25 114.938 268.103 109.616C269.014 108.623 270.248 107.574 271.539 107.94C273.022 108.36 273.402 110.256 273.436 111.804C273.606 118.525 272.513 125.218 270.212 131.536Z" fill="#A362B2"/>
<path d="M309.299 305.836L301.854 358.736L301.399 361.972L301.288 362.745" stroke="#A362B2" stroke-width="3.306" stroke-linecap="round" stroke-linejoin="round"/>
<path d="M381 556.908L380.773 543.42L379.572 473.291L378.433 407.054L377.592 357.708L359.087 358.743L301.399 361.972L259.711 364.304L151.117 370.376L141.865 563.725L381 556.915L441.87 555.177L534.904 552.527L532.131 465.163L530.165 403.17L528.184 340.804L526.19 277.837L524.672 230.105L511.356 230.485L486.469 231.188L447.389 232.307L387.99 233.99L363.592 234.687L351.339 235.032L319.145 235.949L309.306 305.829" stroke="#A362B2" stroke-width="3.306" stroke-linecap="round" stroke-linejoin="round"/>
<path d="M234.079 290.823L235.403 294.617L259.711 364.297" stroke="#A362B2" stroke-width="3.306" stroke-linecap="round" stroke-linejoin="round"/>
<path d="M213.945 162.406C212 162.406 156.961 169.23 156.961 169.23L167.186 181.401L147.709 184.327V197.961L131.15 190.653L125.788 202.349L116.536 190.171L103.875 197.961L99.979 187.245L86.3457 189.198L89.7538 177.51L75.1401 170.686L87.3185 162.406L78.5464 151.208L89.2618 149.256L84.8795 135.132L94.6219 138.057L96.085 124.907L108.256 131.724L120.434 120.526L126.768 129.779L141.865 122.473V134.161L155.988 129.779L148.681 145.367L159.397 145.85L155.014 155.593L213.945 162.406Z" stroke="#A362B2" stroke-width="3.306" stroke-linecap="round" stroke-linejoin="round"/>
<path d="M202.257 386.445C202.257 386.445 196.896 473.14 264.596 467.296C332.295 461.452 321.09 381.572 321.09 381.572" stroke="#A362B2" stroke-width="3.306" stroke-linecap="round" stroke-linejoin="round"/>
<path d="M441.87 555.177L532.131 465.163" stroke="#A362B2" stroke-width="3.306" stroke-linecap="round" stroke-linejoin="round"/>
<path d="M380.766 543.427L380.773 543.42L530.165 403.17" stroke="#A362B2" stroke-width="3.306" stroke-linecap="round" stroke-linejoin="round"/>
<path d="M379.565 473.298L379.572 473.291L528.185 340.804" stroke="#A362B2" stroke-width="3.306" stroke-linecap="round" stroke-linejoin="round"/>
<path d="M378.434 407.054L526.191 277.837" stroke="#A362B2" stroke-width="3.306" stroke-linecap="round" stroke-linejoin="round"/>
<path d="M359.087 358.743L511.356 230.485" stroke="#A362B2" stroke-width="3.306" stroke-linecap="round" stroke-linejoin="round"/>
<path d="M301.847 358.743L301.854 358.736L447.389 232.307" stroke="#A362B2" stroke-width="3.306" stroke-linecap="round" stroke-linejoin="round"/>
<path d="M309.3 305.836L309.307 305.829L387.991 233.99" stroke="#A362B2" stroke-width="3.306" stroke-linecap="round" stroke-linejoin="round"/>
<path d="M350.966 242.442C350.966 242.442 350.973 239.654 351.341 235.032C352.735 217.086 359.407 171.41 391.29 153.278C399.611 148.544 409.643 145.688 421.752 145.688C481.449 145.688 486.368 211.186 486.471 231.188C486.499 234.797 486.361 236.922 486.361 236.922" stroke="#A362B2" stroke-width="3.306" stroke-linecap="round" stroke-linejoin="round"/>
<path d="M235.397 294.615C185.726 295.533 136.028 300.487 86.3501 301.405C86.2118 299.093 86.081 296.782 85.9432 294.471C85.2946 283.403 84.6436 272.341 83.9906 261.283C83.804 258.205 83.6225 255.133 83.4453 252.065C150.144 255.434 222.957 244.72 237.082 237.654C245.583 233.403 243.196 227.118 245.121 222.316C245.735 220.745 246.62 219.295 247.736 218.031C253.793 211.2 265.419 211.849 275.238 208.04C276.155 207.681 277.086 207.322 278.032 207.019C280.036 206.269 282.19 206.004 284.317 206.246C287.402 206.729 290.368 209.502 289.864 212.587C309.943 211.78 328.661 198.76 337.921 180.931C347.181 163.102 347.339 141.182 339.936 122.505C337.196 115.599 333.416 108.312 335.341 101.143C336.334 97.4315 338.652 94.4991 341.612 92.0776C345.214 89.1314 349.761 86.9509 354.039 85.0659C356.643 83.8808 359.341 82.9136 362.105 82.1748C366.906 80.9678 371.746 80.9328 375.448 83.9484C378.974 86.8044 380.202 91.5586 381.23 95.9816C385.633 114.872 390.062 133.964 391.29 153.276C391.552 157.408 391.669 161.556 391.607 165.709C391.263 189.265 379.581 217.374 363.595 234.685" stroke="#A362B2" stroke-width="3.306" stroke-linecap="round" stroke-linejoin="round"/>
<path d="M247.741 218.072C247.735 218.059 247.733 218.045 247.734 218.031C244.367 204.666 241.103 191.701 237.805 178.59C236.294 172.588 234.776 166.55 233.235 160.431C232.641 158.064 232.062 155.491 233.047 153.262C234.282 150.474 237.492 149.225 240.429 148.425C246.639 146.749 253.035 145.872 259.293 144.396C263.475 143.473 267.54 142.08 271.409 140.242C273.345 139.298 275.184 138.168 276.901 136.868C282.014 132.97 285.912 127.098 286.229 120.675C286.272 120.401 286.26 120.122 286.194 119.853C286.127 119.584 286.008 119.332 285.843 119.109C285.064 118.302 283.739 119.096 282.938 119.869C278.848 123.815 274.757 127.759 270.664 131.701" stroke="#A362B2" stroke-width="3.306" stroke-linecap="round" stroke-linejoin="round"/>
<path d="M270.047 131.999C270.102 131.847 270.164 131.695 270.212 131.536C272.511 125.221 273.604 118.53 273.434 111.81C273.4 110.265 273.02 108.367 271.537 107.947C270.246 107.581 269.012 108.63 268.101 109.623C263.248 114.946 259.425 121.123 256.827 127.841" stroke="#A362B2" stroke-width="3.306" stroke-linecap="round" stroke-linejoin="round"/>
<path d="M256.364 128.321C256.412 128.133 256.46 127.949 256.502 127.758C257.698 123 257.873 118.043 257.02 113.213C256.799 111.95 256.393 110.55 255.253 109.949C253.445 108.997 251.39 110.771 250.355 112.537C248.344 115.978 247.457 119.961 247.815 123.931C248.119 127.208 249.106 131.037 246.822 133.411C245.773 134.501 244.255 134.976 242.806 135.405C235.01 137.737 227.218 140.064 219.43 142.388C222.169 148.418 224.964 154.744 224.591 161.357C224.198 168.325 220.348 174.562 216.608 180.455C221.412 179.635 225.876 177.447 229.469 174.155C226.608 177.842 224.901 182.293 224.564 186.947C228.972 184.166 233.386 181.383 237.804 178.598C237.824 178.585 237.838 178.578 237.859 178.564" stroke="#A362B2" stroke-width="3.306" stroke-linecap="round" stroke-linejoin="round"/>
<path d="M267.101 146.737C263.541 148.295 259.978 149.855 256.413 151.414C258.786 158.08 261.158 164.743 263.527 171.403C264.009 172.755 264.5 174.22 264.127 175.605C263.755 176.989 262.106 178.123 260.85 177.42" stroke="#A362B2" stroke-width="3.306" stroke-linecap="round" stroke-linejoin="round"/>
<path d="M261.022 185.559C259.191 186.852 256.953 187.44 254.723 187.213C252.492 186.986 250.419 185.959 248.886 184.324C248.055 185.839 247.669 187.559 247.775 189.284C247.838 190.144 248.125 190.971 248.608 191.685C249.092 192.398 249.754 192.972 250.53 193.348C252.11 194.01 254.228 193.369 254.89 191.783" stroke="#A362B2" stroke-width="3.306" stroke-linecap="round" stroke-linejoin="round"/>
<path d="M251.404 160.784C250.368 160.249 249.171 160.114 248.042 160.406C246.913 160.697 245.93 161.395 245.284 162.365" stroke="#A362B2" stroke-width="3.306" stroke-linecap="round" stroke-linejoin="round"/>
<path d="M268.481 156.107C267.677 155.795 266.808 155.694 265.955 155.812C265.101 155.931 264.292 156.265 263.603 156.783" stroke="#A362B2" stroke-width="3.306" stroke-linecap="round" stroke-linejoin="round"/>
<path d="M271.42 140.251C275.346 152.878 278.706 165.658 281.499 178.592C281.989 180.846 282.369 183.505 280.816 185.223C279.553 186.631 277.414 186.879 275.959 188.086C273.44 190.17 273.847 194.159 275.082 197.18C276.317 200.201 278.174 203.211 277.842 206.46" stroke="#A362B2" stroke-width="3.306" stroke-linecap="round" stroke-linejoin="round"/>
<path d="M341.21 69.0524C338.144 63.4368 335.734 57.4868 334.028 51.3202C333.551 49.5886 333.517 47.132 335.248 46.67C336.656 46.29 337.857 47.6842 338.629 48.9194C343.569 56.7966 347.601 65.2079 350.649 73.9925C348.241 67.0641 345.831 60.1393 343.418 53.2178C342.825 51.5275 342.232 49.7746 342.342 47.9878C342.452 46.2011 343.46 44.338 345.164 43.779C346.751 43.2612 348.531 44.0062 349.691 45.207C350.779 46.4766 351.604 47.9493 352.119 49.5398C356.259 60.1105 359.178 71.1083 362.082 82.0859" stroke="#A362B2" stroke-width="3.306" stroke-linecap="round" stroke-linejoin="round"/>
<path d="M341.21 69.0524C342.638 71.1984 343.973 73.399 345.217 75.6552C343.775 73.5167 342.44 71.3161 341.21 69.0524Z" stroke="#A362B2" stroke-width="3.306" stroke-linecap="round" stroke-linejoin="round"/>
<path d="M341.555 92.0081C335.031 90.9883 328.712 88.9317 322.837 85.9161C321.934 85.4465 320.912 84.7635 320.912 83.7493C320.912 82.1279 323.196 81.7967 324.794 82.0039C329.975 82.6869 335.159 83.3656 340.345 84.0392C334.281 75.5914 329.001 66.6071 324.569 57.1996C323.803 55.5781 323.292 53.1979 324.886 52.3697C326.19 51.6936 327.681 52.7766 328.723 53.8096C333.392 58.4533 337.576 63.5607 341.211 69.0524" stroke="#A362B2" stroke-width="3.306" stroke-linecap="round" stroke-linejoin="round"/>
<path d="M43.4688 276.444L41.7785 275.967C40.4366 275.503 39.0242 275.277 37.6046 275.298C36.8946 275.314 36.2005 275.512 35.5882 275.872C34.9759 276.232 34.4658 276.742 34.1063 277.355C33.382 278.81 33.9185 280.59 34.7687 281.977C37.2597 286.047 41.9857 288.118 46.5464 289.519C59.0484 293.369 72.289 293.955 85.3638 294.507" stroke="#A362B2" stroke-width="3.306" stroke-linecap="round" stroke-linejoin="round"/>
<path d="M43.4688 276.444C51.0657 279.772 59.0884 282.029 67.3068 283.15C59.3583 280.914 51.4123 278.679 43.4688 276.444Z" stroke="#A362B2" stroke-width="3.306" stroke-linecap="round" stroke-linejoin="round"/>
<path d="M83.6172 261.305C78.6433 254.757 72.7636 248.949 66.1544 244.057C64.7884 243.043 62.7043 242.116 61.5661 243.387C60.5645 244.498 61.29 246.237 62.0419 247.519C65.2918 253.06 68.5397 258.596 71.7844 264.127C62.5695 260.629 53.1361 257.737 43.5443 255.469C42.2678 255.165 40.7703 254.924 39.7767 255.786C38.8727 256.566 38.8108 258.001 39.3216 259.077C39.909 260.12 40.7427 261.004 41.75 261.65C49.0985 267.046 58.0471 269.682 66.803 272.23C59.4407 270.457 52.0787 268.681 44.7168 266.904C43.0334 266.503 41.288 266.09 39.5833 266.407C37.8786 266.724 36.2227 267.96 35.9886 269.677C35.6574 272.162 38.2166 273.976 40.4729 275.066C41.4595 275.542 42.4579 276.001 43.4679 276.443" stroke="#A362B2" stroke-width="3.306" stroke-linecap="round" stroke-linejoin="round"/>
<path d="M201.188 377.682C201.586 378.104 202.104 378.393 202.672 378.51C203.24 378.628 203.83 378.568 204.362 378.338C204.847 378.076 205.264 377.703 205.58 377.25C205.895 376.797 206.1 376.277 206.178 375.73C206.571 373.701 205.122 371.431 202.893 372.253C200.781 373.032 199.532 375.882 201.188 377.682Z" stroke="#A362B2" stroke-width="3.306" stroke-linecap="round" stroke-linejoin="round"/>
<path d="M318.186 369.603C318.265 370.163 318.482 370.694 318.818 371.148C319.154 371.603 319.599 371.966 320.111 372.204C320.481 372.326 320.874 372.361 321.259 372.306C321.645 372.251 322.012 372.108 322.333 371.887C322.975 371.435 323.423 370.758 323.588 369.991C323.954 368.404 322.657 365.692 320.953 365.272C318.635 364.691 317.848 367.982 318.186 369.603Z" stroke="#A362B2" stroke-width="3.306" stroke-linecap="round" stroke-linejoin="round"/>
<path d="M206.01 349.644L210.437 328.467" stroke="#A362B2" stroke-width="3.306" stroke-linecap="round" stroke-linejoin="round"/>
<path d="M181.707 353.978L174.103 316.049" stroke="#A362B2" stroke-width="3.306" stroke-linecap="round" stroke-linejoin="round"/>
<path d="M161.588 354.057L149.169 341.637" stroke="#A362B2" stroke-width="3.306" stroke-linecap="round" stroke-linejoin="round"/>
<path d="M464.979 140.081L483.626 88.084" stroke="#A362B2" stroke-width="3.306" stroke-linecap="round" stroke-linejoin="round"/>
<path d="M454.565 129.774L451.633 104.936" stroke="#A362B2" stroke-width="3.306" stroke-linecap="round" stroke-linejoin="round"/>
<path d="M485.293 150.313L504.27 133.49" stroke="#A362B2" stroke-width="3.306" stroke-linecap="round" stroke-linejoin="round"/>
<path d="M533.441 194.065L530.519 183.11" stroke="#A362B2" stroke-width="3.306" stroke-linecap="round" stroke-linejoin="round"/>
<path d="M524.721 189.829L540.779 184.67" stroke="#A362B2" stroke-width="3.306" stroke-linecap="round" stroke-linejoin="round"/>
<path d="M426.056 202.098L419.482 191.142" stroke="#A362B2" stroke-width="3.306" stroke-linecap="round" stroke-linejoin="round"/>
<path d="M415.879 200.709L426.828 191.929" stroke="#A362B2" stroke-width="3.306" stroke-linecap="round" stroke-linejoin="round"/>
<path d="M555.648 270.141C568.43 277.706 573.583 295.842 566.692 308.998C562.703 316.612 555.486 322.281 552.146 330.201C550.58 334.022 549.981 338.171 550.401 342.28C550.821 346.388 552.248 350.329 554.555 353.755C557.429 357.929 562.247 361.352 567.251 360.553C572.255 359.754 575.853 353.022 572.465 349.254C568.783 345.161 561.196 348.946 560.173 354.356C559.15 359.767 562.411 365.031 566.012 369.194C569.612 373.356 573.844 377.323 575.414 382.6C578.07 391.525 570.513 401.928 561.203 402.16" stroke="#A362B2" stroke-width="3.306" stroke-linecap="round" stroke-linejoin="round"/>
<path d="M103.547 386.067C97.3124 393.634 92.6352 402.36 89.7861 411.742C86.937 421.124 85.9716 430.976 86.9451 440.733C87.9793 450.574 93.0803 461.998 102.936 462.904C107.956 463.365 113.459 459.982 114.069 454.978C114.679 449.974 108.614 445.13 104.297 447.733C99.4071 450.682 101.248 458.225 104.347 463.022C108.235 469.04 113.177 474.378 116.522 480.714C119.868 487.05 121.431 494.952 118.134 501.311C114.837 507.67 105.385 510.779 100.131 505.906" stroke="#A362B2" stroke-width="3.306" stroke-linecap="round" stroke-linejoin="round"/>
<path d="M406.146 62.4791L412.186 50.1536" stroke="#A362B2" stroke-width="3.306" stroke-linecap="round" stroke-linejoin="round"/>
<path d="M416.714 60.1334L404.931 52.2384" stroke="#A362B2" stroke-width="3.306" stroke-linecap="round" stroke-linejoin="round"/>
<path d="M367.32 52.3442C366.888 49.586 365.896 46.9454 364.405 44.5853C362.913 42.2251 360.954 40.1955 358.648 38.6214" stroke="#A362B2" stroke-width="3.306" stroke-linecap="round" stroke-linejoin="round"/>
<path d="M52.7197 306.828C47.2676 307.145 41.8293 306.004 36.9639 303.524C32.0985 301.043 27.9815 297.311 25.0361 292.712" stroke="#A362B2" stroke-width="3.306" stroke-linecap="round" stroke-linejoin="round"/>
<path d="M215.893 120.523L219.79 114.192" stroke="#A362B2" stroke-width="3.306" stroke-linecap="round" stroke-linejoin="round"/>
<path d="M221.278 119.985L213.99 116.056" stroke="#A362B2" stroke-width="3.306" stroke-linecap="round" stroke-linejoin="round"/>
<path d="M339.825 121.223C350.765 109.701 365.25 102.177 380.967 99.8536" stroke="#A362B2" stroke-width="3.306" stroke-linecap="round" stroke-linejoin="round"/>
<path d="M110.125 300.729L108.556 253.491" stroke="#A362B2" stroke-width="3.306" stroke-linecap="round" stroke-linejoin="round"/>
<path d="M250.404 228.153L250.818 222.304" stroke="#A362B2" stroke-width="3.306" stroke-linecap="round" stroke-linejoin="round"/>
<path d="M258.752 225.723L257.778 219.878" stroke="#A362B2" stroke-width="3.306" stroke-linecap="round" stroke-linejoin="round"/>
<path d="M266.631 222.786L265.638 216.945" stroke="#A362B2" stroke-width="3.306" stroke-linecap="round" stroke-linejoin="round"/>
<path d="M274.824 219.391L274.337 215.009" stroke="#A362B2" stroke-width="3.306" stroke-linecap="round" stroke-linejoin="round"/>
<path d="M282.618 216.956L281.156 211.602" stroke="#A362B2" stroke-width="3.306" stroke-linecap="round" stroke-linejoin="round"/>
<path d="M380.55 130.202L374.238 126.273" stroke="#A362B2" stroke-width="3.306" stroke-linecap="round" stroke-linejoin="round"/>
<path d="M353.725 130.264L356.16 123.445" stroke="#A362B2" stroke-width="3.306" stroke-linecap="round" stroke-linejoin="round"/>
<path d="M364.926 162.408L362.003 157.538" stroke="#A362B2" stroke-width="3.306" stroke-linecap="round" stroke-linejoin="round"/>
<path d="M343.983 195.04L349.34 191.143" stroke="#A362B2" stroke-width="3.306" stroke-linecap="round" stroke-linejoin="round"/>
<path d="M377.589 197.962L375.153 192.604" stroke="#A362B2" stroke-width="3.306" stroke-linecap="round" stroke-linejoin="round"/>
<path d="M326.429 222.746L332.745 220.273" stroke="#A362B2" stroke-width="3.306" stroke-linecap="round" stroke-linejoin="round"/>
<path d="M297.715 244.72L294.793 239.85" stroke="#A362B2" stroke-width="3.306" stroke-linecap="round" stroke-linejoin="round"/>
<path d="M293.332 276.862L298.689 274.914" stroke="#A362B2" stroke-width="3.306" stroke-linecap="round" stroke-linejoin="round"/>
<path d="M270.479 264.157L265.6 259.783" stroke="#A362B2" stroke-width="3.306" stroke-linecap="round" stroke-linejoin="round"/>
<path d="M269.954 304.135L275.798 302.675" stroke="#A362B2" stroke-width="3.306" stroke-linecap="round" stroke-linejoin="round"/>
<path d="M247.064 285.628L242.682 281.732" stroke="#A362B2" stroke-width="3.306" stroke-linecap="round" stroke-linejoin="round"/>
<path d="M293.033 317.341L295.444 309.054" stroke="#A362B2" stroke-width="3.306" stroke-linecap="round" stroke-linejoin="round"/>
<path d="M279.208 345.534L274.337 342.611" stroke="#A362B2" stroke-width="3.306" stroke-linecap="round" stroke-linejoin="round"/>
<path d="M213.945 278.322C214.602 275.879 215.956 273.679 217.841 271.991" stroke="#A362B2" stroke-width="3.306" stroke-linecap="round" stroke-linejoin="round"/>
<path d="M231.91 258.417L227.503 254.549" stroke="#A362B2" stroke-width="3.306" stroke-linecap="round" stroke-linejoin="round"/>
<path d="M187.645 274.427L182.288 271.991" stroke="#A362B2" stroke-width="3.306" stroke-linecap="round" stroke-linejoin="round"/>
<path d="M163.815 263.744L168.677 258.379" stroke="#A362B2" stroke-width="3.306" stroke-linecap="round" stroke-linejoin="round"/>
<path d="M162.32 293.908L158.424 290.012" stroke="#A362B2" stroke-width="3.306" stroke-linecap="round" stroke-linejoin="round"/>
<path d="M132.705 276.46L137.557 271.085" stroke="#A362B2" stroke-width="3.306" stroke-linecap="round" stroke-linejoin="round"/>
<path d="M123.356 291.96L119.46 289.038" stroke="#A362B2" stroke-width="3.306" stroke-linecap="round" stroke-linejoin="round"/>
<path d="M118.973 267.608L123.843 264.199" stroke="#A362B2" stroke-width="3.306" stroke-linecap="round" stroke-linejoin="round"/>
<path d="M100.952 292.934H91.2144" stroke="#A362B2" stroke-width="3.306" stroke-linecap="round" stroke-linejoin="round"/>
<path d="M101.436 283.271L92.1802 282.817" stroke="#A362B2" stroke-width="3.306" stroke-linecap="round" stroke-linejoin="round"/>
<path d="M100.953 272.965L92.188 273.94" stroke="#A362B2" stroke-width="3.306" stroke-linecap="round" stroke-linejoin="round"/>
<path d="M101.446 262.848L93.6514 263.302" stroke="#A362B2" stroke-width="3.306" stroke-linecap="round" stroke-linejoin="round"/>
<path d="M343.984 110.782L340.575 104.938" stroke="#A362B2" stroke-width="3.306" stroke-linecap="round" stroke-linejoin="round"/>
<path d="M353.707 105.433L350.3 97.6387" stroke="#A362B2" stroke-width="3.306" stroke-linecap="round" stroke-linejoin="round"/>
<path d="M363.452 99.1024L359.069 91.7952" stroke="#A362B2" stroke-width="3.306" stroke-linecap="round" stroke-linejoin="round"/>
<path d="M371.674 95.2322L367.793 87.4317" stroke="#A362B2" stroke-width="3.306" stroke-linecap="round" stroke-linejoin="round"/>
<path fill-rule="evenodd" clip-rule="evenodd" d="M159.397 145.85L148.681 145.367L155.988 129.779L141.865 134.161V122.473L126.768 129.779L120.434 120.526L108.256 131.724L96.085 124.907L94.6219 138.057L84.8795 135.132L89.2618 149.256L78.5464 151.208L87.3185 162.406L75.1401 170.686L89.7538 177.51L86.3457 189.198L99.979 187.245L103.875 197.961L116.536 190.171L125.788 202.349L131.15 190.653L147.708 197.964V184.33L167.185 181.404L156.96 169.233C156.96 169.233 211.998 162.41 213.944 162.41L155.014 155.593L159.397 145.85ZM108.751 141.766C108.427 141.295 107.783 141.175 107.312 141.499C106.841 141.823 106.721 142.467 107.045 142.938L129.793 176.044C130.117 176.514 130.761 176.634 131.232 176.31C131.703 175.987 131.823 175.342 131.499 174.872L108.751 141.766ZM106.064 158.456C107.585 158.067 109.197 158.278 110.565 159.047C110.739 159.145 110.874 159.286 110.964 159.448C111.148 159.475 111.328 159.55 111.481 159.678C112.687 160.683 113.46 162.113 113.637 163.673C113.816 165.232 113.386 166.8 112.437 168.051C111.489 169.301 110.095 170.138 108.545 170.387C106.996 170.636 105.409 170.278 104.117 169.387C102.824 168.497 101.925 167.143 101.605 165.606C101.286 164.07 101.571 162.469 102.402 161.137C103.232 159.805 104.544 158.845 106.064 158.456ZM109.913 160.974C109.789 160.957 109.667 160.916 109.551 160.851C108.647 160.344 107.582 160.203 106.577 160.461C105.573 160.718 104.706 161.353 104.158 162.232C103.609 163.113 103.421 164.17 103.632 165.185C103.843 166.2 104.437 167.095 105.291 167.683C106.145 168.272 107.193 168.508 108.216 168.344C109.241 168.179 110.162 167.626 110.788 166.8C111.415 165.974 111.698 164.938 111.581 163.908C111.464 162.877 110.953 161.932 110.157 161.268C110.054 161.184 109.974 161.084 109.913 160.974ZM128.281 148.232C128.361 148.229 128.437 148.217 128.511 148.198C128.619 148.503 128.869 148.754 129.205 148.849C130.276 149.153 131.193 149.847 131.776 150.796C132.352 151.734 132.558 152.853 132.355 153.934C132.058 154.999 131.383 155.921 130.456 156.525C129.528 157.13 128.412 157.375 127.317 157.216C126.233 156.967 125.272 156.34 124.608 155.447C123.944 154.552 123.621 153.45 123.698 152.34C123.859 151.232 124.401 150.216 125.233 149.466C126.072 148.708 127.151 148.271 128.281 148.232ZM128.208 146.163C128.672 146.147 129.075 146.438 129.221 146.853C129.395 146.807 129.583 146.805 129.769 146.858C131.34 147.303 132.686 148.322 133.54 149.713C134.394 151.105 134.694 152.766 134.379 154.368C134.375 154.392 134.369 154.416 134.363 154.439C133.938 156.01 132.949 157.37 131.586 158.259C130.222 159.147 128.579 159.503 126.97 159.257C126.948 159.254 126.925 159.249 126.903 159.244C125.319 158.894 123.914 157.983 122.947 156.68C121.979 155.377 121.514 153.77 121.637 152.151C121.638 152.141 121.639 152.129 121.64 152.118C121.641 152.108 121.642 152.098 121.644 152.088C121.865 150.485 122.645 149.012 123.846 147.929C125.047 146.845 126.592 146.22 128.208 146.163Z" fill="#A362B2"/>
<path d="M246.938 36.8832C249.828 38.4751 252.332 40.6831 254.272 43.3508C256.212 46.0184 257.542 49.0804 258.167 52.3194C258.791 55.5585 258.696 58.8953 257.887 62.0932C257.078 65.2911 255.575 68.2717 253.484 70.8241C250.032 75.0386 244.415 78.0079 239.148 76.615C233.88 75.222 230.432 68.1847 233.786 63.8919C236.86 59.9591 243.815 60.9151 246.558 65.087C249.3 69.259 248.157 75.1788 244.837 78.905C241.516 82.6312 236.494 84.4436 231.54 85.0515C226.586 85.6594 221.572 85.2049 216.581 85.1523C211.589 85.0997 206.454 85.486 201.949 87.6352C193.972 91.4409 189.21 101.008 190.982 109.667" stroke="#A362B2" stroke-width="3.306" stroke-linecap="round" stroke-linejoin="round"/>
<path d="M212.729 70.6018L216.382 63.2966" stroke="#A362B2" stroke-width="3.306" stroke-linecap="round" stroke-linejoin="round"/>
<path d="M217.216 69.7247L209.154 63.9188" stroke="#A362B2" stroke-width="3.306" stroke-linecap="round" stroke-linejoin="round"/>
<path d="M171.731 86.199L176.176 89.9609C176.31 90.0749 176.407 90.227 176.451 90.3966C176.496 90.5663 176.488 90.746 176.428 90.9106C176.368 91.0759 176.259 91.2186 176.116 91.3194C175.972 91.4208 175.801 91.4753 175.625 91.4759L169.802 91.506C169.633 91.5072 169.467 91.5579 169.326 91.6531C169.185 91.7483 169.076 91.8829 169.011 92.04L166.806 97.424C166.74 97.5867 166.625 97.7251 166.478 97.8202C166.33 97.9154 166.157 97.9636 165.981 97.9573C165.806 97.9511 165.636 97.8916 165.496 97.7864C165.355 97.6813 165.251 97.5354 165.195 97.3682L163.368 91.8422C163.315 91.6813 163.215 91.5392 163.081 91.4346C162.948 91.3301 162.786 91.2675 162.617 91.2543L156.813 90.8223C156.637 90.8098 156.471 90.7435 156.334 90.6327C156.198 90.5212 156.099 90.3716 156.05 90.2026C156.002 90.0335 156.006 89.8539 156.063 89.688C156.12 89.5214 156.226 89.3768 156.368 89.2723L161.059 85.829C161.196 85.7289 161.3 85.5899 161.358 85.4302C161.416 85.2706 161.426 85.0972 161.385 84.9319L160.002 79.2775C159.961 79.1072 159.973 78.9282 160.036 78.7642C160.099 78.6001 160.212 78.4599 160.357 78.3616C160.503 78.2633 160.675 78.2126 160.851 78.2151C161.026 78.2176 161.197 78.274 161.339 78.376L166.066 81.7729C166.204 81.8725 166.368 81.9282 166.538 81.9344C166.708 81.9401 166.876 81.8956 167.02 81.8061L171.97 78.7441C172.119 78.6521 172.294 78.6076 172.469 78.617C172.644 78.6271 172.812 78.6897 172.951 78.798C173.089 78.9063 173.191 79.054 173.243 79.2218C173.295 79.3896 173.295 79.5692 173.241 79.7364L171.47 85.2813C171.418 85.4434 171.415 85.6168 171.462 85.7802C171.508 85.9436 171.602 86.0895 171.731 86.199Z" fill="#A362B2"/>
<path d="M120.554 403.167L123.475 405.641C123.564 405.715 123.629 405.815 123.659 405.927C123.689 406.039 123.684 406.157 123.644 406.266C123.604 406.375 123.532 406.469 123.437 406.535C123.342 406.602 123.229 406.637 123.113 406.637L119.286 406.656C119.174 406.657 119.065 406.69 118.972 406.752C118.88 406.815 118.808 406.904 118.766 407.007L117.316 410.549C117.273 410.658 117.197 410.749 117.1 410.813C117.003 410.876 116.889 410.908 116.773 410.904C116.657 410.9 116.545 410.86 116.452 410.79C116.36 410.72 116.292 410.623 116.256 410.512L115.055 406.881C115.021 406.776 114.955 406.682 114.867 406.613C114.778 406.545 114.672 406.503 114.561 406.495L110.742 406.211C110.626 406.203 110.516 406.16 110.425 406.088C110.335 406.015 110.27 405.916 110.238 405.805C110.206 405.693 110.209 405.574 110.246 405.465C110.285 405.355 110.355 405.26 110.449 405.192L113.534 402.926C113.624 402.86 113.693 402.769 113.731 402.664C113.769 402.559 113.775 402.445 113.749 402.336L112.84 398.619C112.812 398.507 112.819 398.389 112.86 398.281C112.901 398.174 112.975 398.081 113.071 398.017C113.166 397.952 113.28 397.918 113.395 397.92C113.511 397.921 113.623 397.959 113.716 398.026L116.824 400.26C116.914 400.325 117.022 400.362 117.134 400.366C117.245 400.369 117.355 400.34 117.45 400.281L120.705 398.268C120.803 398.206 120.919 398.176 121.034 398.182C121.15 398.188 121.262 398.229 121.353 398.3C121.444 398.372 121.511 398.47 121.545 398.581C121.579 398.692 121.577 398.81 121.541 398.921L120.377 402.566C120.344 402.672 120.343 402.786 120.375 402.893C120.406 403.001 120.468 403.096 120.554 403.167Z" fill="#A362B2"/>
<g opacity="0.1">
<path d="M150.66 373.376C149.518 376.13 149.593 379.222 149.382 382.163C149.159 385.285 148.858 388.4 148.719 391.528L147.943 409.009C147.416 420.868 147.045 432.733 146.634 444.596L144.141 516.394C143.672 529.924 143.118 543.449 142.553 556.976C142.196 565.533 155.656 565.56 155.876 556.976C157.098 509.312 159.248 461.669 160.342 414.004L160.801 394.025C160.878 390.69 160.868 387.371 160.837 384.036C160.804 380.51 161.204 376.758 160.054 373.376C158.409 368.533 152.469 369.008 150.66 373.376Z" fill="#A362B2"/>
</g>
<g opacity="0.1">
<path d="M234.975 291.658C234.68 294.926 236.092 298.339 237.051 301.428C238.033 304.587 239.173 307.701 240.258 310.827C242.298 316.701 244.442 322.53 246.602 328.361L253.082 345.857L256.538 355.185C258.002 359.136 258.889 361.923 263.112 363.535C265.35 364.391 268.37 362.98 269.475 360.946C271.55 357.12 270.163 354.26 268.766 350.529L265.272 341.209L258.721 323.732C256.534 317.9 254.314 312.088 252.008 306.301C250.737 303.108 249.504 299.902 248.117 296.761C246.796 293.778 245.686 290.508 243.296 288.211C240.063 285.106 235.352 287.544 234.98 291.655L234.975 291.658Z" fill="#A362B2"/>
</g>
<g opacity="0.1">
<path d="M271.13 140.521C267.505 138.986 262.804 140.834 259.151 141.748C254.832 142.833 250.513 143.918 246.192 145.003C239.306 146.733 232.007 149.491 232.915 158.012C233.908 167.336 236.285 176.468 238.352 185.593L244.819 214.145C245.132 215.53 246.547 217.135 248.017 217.342C249.341 217.53 250.38 217.623 251.544 216.881C252.398 216.353 253.061 215.568 253.439 214.639C253.817 213.71 253.89 212.684 253.647 211.711C249.904 195.375 246.809 178.7 242.113 162.611C241.349 159.996 238.948 155.981 241.702 153.988C244.226 152.161 247.99 151.559 250.896 150.642C254.757 149.422 258.632 148.237 262.483 146.983C265.595 145.969 269.635 145.117 271.603 142.331C271.779 142.028 271.829 141.668 271.74 141.329C271.651 140.99 271.431 140.701 271.129 140.524L271.13 140.521Z" fill="#A362B2"/>
</g>
<g opacity="0.1">
<path d="M316.705 238.189C314.857 242.78 314.912 248.319 314.332 253.203C313.747 258.126 313.231 263.055 312.695 267.985C311.647 277.629 310.502 287.262 309.262 296.884C306.785 316.116 304.27 335.486 300.583 354.529C299.905 358.027 301.569 361.655 305.194 362.652C308.297 363.504 312.801 361.591 313.316 358.04C316.217 338.051 319.584 318.155 322.144 298.112C323.4 288.287 324.557 278.45 325.614 268.6C326.143 263.677 326.654 258.756 327.034 253.819C327.431 248.651 328.306 243.313 327.23 238.189C326.741 235.865 324.254 234.182 321.966 234.182C319.381 234.182 317.612 235.931 316.703 238.189H316.705Z" fill="#A362B2"/>
</g>
</g>
</svg>
