<svg width="619" height="619" viewBox="0 0 619 619" fill="none" xmlns="http://www.w3.org/2000/svg">
<mask id="mask0_2_557" style="mask-type:luminance" maskUnits="userSpaceOnUse" x="24" y="91" width="571" height="438">
<path d="M594.498 91.5603H24.502V528.084H594.498V91.5603Z" fill="white"/>
</mask>
<g mask="url(#mask0_2_557)">
<path fill-rule="evenodd" clip-rule="evenodd" d="M339.586 462.038C355.154 452.817 354.29 443.86 354.29 443.86C361.998 445.256 369.577 445.324 376.378 443.479L376.384 443.472C385.047 441.126 392.454 435.659 397.252 425.858C405.039 409.947 421.716 362.672 428.505 337.65C430.569 330.023 431.721 324.466 431.415 322.493C430.9 319.153 430.319 315.869 429.111 313.039V313.033C427.285 308.72 424.014 305.442 417.36 304.535C416.911 304.474 416.455 304.411 415.993 304.348C410.01 303.522 402.923 302.543 396.718 303.402C391.601 304.112 387.086 306.067 384.274 310.38C377.783 320.33 374.753 324.123 374.753 324.123C363.688 303.525 345.687 294.42 335.927 290.823C333.706 289.977 331.429 289.285 329.114 288.752C337.454 299.946 342.925 317.071 322.859 335.898C287.832 368.768 242.42 360.981 242.42 360.981C242.42 360.981 178.413 360.981 197.008 307.353C196.27 306.459 195.59 305.517 194.974 304.535C194.974 304.535 182.794 314.588 175.608 338.949C171.821 351.778 169.419 368.572 170.914 389.96L170.92 390.095C172.712 390.006 174.633 389.96 176.686 389.96C188.73 389.96 202.139 389.668 215.458 389.378C241.827 388.804 267.842 388.237 282.208 389.96C303.83 392.554 304.265 425.424 304.265 425.424L310.723 465.414C310.723 465.414 324.017 471.258 339.586 462.038ZM345.483 303.204C345.032 302.917 344.434 303.05 344.147 303.5C343.861 303.951 343.994 304.549 344.444 304.835C354.899 311.489 375.71 332.747 374.946 364.284C374.933 364.818 375.356 365.262 375.89 365.275C376.424 365.287 376.868 364.864 376.881 364.331C377.665 331.905 356.306 310.091 345.483 303.204Z" fill="#EEC6F7" fill-opacity="0.96"/>
<path fill-rule="evenodd" clip-rule="evenodd" d="M341.026 250.271C349.242 223.888 331.51 214.803 331.51 214.803C331.51 214.803 346.646 175.877 315.509 155.983C284.372 136.09 254.963 177.176 254.963 177.176C254.963 177.176 235.934 162.901 217.338 179.339C198.743 195.777 205.661 225.186 213.876 240.754C213.876 240.754 188.358 242.482 186.631 268.001C186.24 273.467 186.505 278.961 187.421 284.365L187.427 284.371C188.588 291.525 191.153 298.377 194.975 304.535C195.591 305.517 196.271 306.459 197.009 307.353C178.414 360.981 242.421 360.981 242.421 360.981C242.421 360.981 287.833 368.769 322.86 335.899C342.925 317.071 337.453 299.947 329.115 288.753H329.108C325.176 283.566 320.439 279.043 315.078 275.353C315.078 275.353 332.809 276.653 341.026 250.271ZM299.706 156.061C299.183 155.95 298.67 156.284 298.56 156.806C298.449 157.329 298.783 157.842 299.305 157.953C306.48 159.472 316.34 164.259 322.565 173.637C328.757 182.966 331.464 197.006 324.066 217.286L323.834 217.922L324.352 218.357C328.626 221.954 333.513 228.544 334.346 236.585C335.17 244.548 332.038 254.161 319.856 263.933C319.439 264.267 319.373 264.875 319.707 265.292C320.041 265.709 320.649 265.775 321.067 265.441C333.644 255.354 337.175 245.139 336.27 236.386C335.406 228.035 330.522 221.224 326.11 217.32C333.391 196.922 330.711 182.412 324.176 172.568C317.608 162.672 307.253 157.658 299.706 156.061Z" fill="#954BA6"/>
<path d="M479.705 174.009L480.863 260.288L359.19 255.025V174.009H479.705Z" fill="#954BA6"/>
<path d="M376.377 443.48C376.119 444.044 359.381 480.009 346.79 491.735C334.108 503.56 315.93 497.703 315.93 497.703L310.724 465.414C310.724 465.414 324.019 471.265 339.588 462.038C355.156 452.811 354.292 443.86 354.292 443.86C361.997 445.257 369.576 445.325 376.377 443.48Z" fill="#954BA6"/>
<path d="M210.04 168.851C212.08 173.433 202.762 182.023 189.233 188.046C175.705 194.068 163.084 195.233 161.044 190.65C159.77 187.788 162.618 184.162 168.47 179.775L168.512 179.732L173.597 185.535C173.597 185.535 188.413 184.781 195.991 175.572C197.909 173.238 198.712 170.12 198.834 166.762C205.077 165.8 208.876 166.234 210.04 168.851Z" fill="#EEC6F7" fill-opacity="0.96"/>
<path d="M198.834 166.761C198.712 170.119 197.909 173.237 195.991 175.571C188.412 184.78 173.598 185.534 173.598 185.534L168.512 179.731L165.963 176.829L158.161 167.928L153.841 162.995C154.687 163.822 156.188 164.27 158.161 164.355C162.546 164.549 169.263 162.983 176.297 159.852C183.33 156.721 188.991 152.782 191.78 149.394C193.17 147.703 193.851 146.146 193.624 144.903L193.704 144.89C193.704 144.89 199.208 156.86 198.834 166.761Z" fill="#EEC6F7" fill-opacity="0.96"/>
<path d="M153.847 162.994C153.606 162.772 153.415 162.502 153.283 162.203C151.666 158.57 159.349 151.616 170.439 146.684C181.528 141.752 191.839 140.692 193.458 144.331C193.539 144.513 193.597 144.704 193.629 144.901C193.856 146.145 193.178 147.701 191.785 149.392C185.489 149.763 179.284 151.07 173.374 153.27C164.297 156.806 158.167 164.357 158.167 164.357C156.191 164.268 154.69 163.82 153.847 162.994Z" fill="#EEC6F7" fill-opacity="0.96"/>
<path d="M173.371 153.271C179.281 151.071 185.486 149.764 191.782 149.392C188.994 152.781 183.335 156.72 176.299 159.851C169.263 162.981 162.552 164.551 158.167 164.357C158.167 164.357 164.297 156.806 173.371 153.271Z" fill="#954BA6"/>
<path d="M187.419 284.367C186.504 278.963 186.239 273.468 186.629 268.002C188.357 242.484 213.875 240.755 213.875 240.755C205.659 225.188 198.742 195.779 217.337 179.34C235.932 162.902 254.962 177.178 254.962 177.178C254.962 177.178 284.371 136.091 315.508 155.985C346.645 175.878 331.511 214.803 331.511 214.803C331.511 214.803 349.243 223.888 341.026 250.271C332.809 276.653 315.079 275.353 315.079 275.353C320.44 279.043 325.176 283.566 329.109 288.752" stroke="#954BA6" stroke-width="3" stroke-linecap="round" stroke-linejoin="round"/>
<path d="M329.115 288.753C337.454 299.947 342.925 317.072 322.861 335.9C287.834 368.77 242.422 360.982 242.422 360.982C242.422 360.982 178.414 360.982 197.01 307.354C196.271 306.46 195.592 305.518 194.975 304.536C191.153 298.379 188.588 291.526 187.427 284.372" stroke="#954BA6" stroke-width="3" stroke-linecap="round" stroke-linejoin="round"/>
<path d="M194.974 304.534C194.974 304.534 182.794 314.588 175.608 338.949C171.821 351.78 169.418 368.572 170.914 389.96" stroke="#954BA6" stroke-width="3" stroke-linecap="round" stroke-linejoin="round"/>
<path d="M329.108 288.753H329.115C331.431 289.286 333.707 289.978 335.928 290.824C345.688 294.421 363.689 303.527 374.754 324.124C380.311 334.466 384.128 347.699 384.275 364.592" stroke="#954BA6" stroke-width="3" stroke-linecap="round" stroke-linejoin="round"/>
<path d="M429.108 313.034C427.282 308.721 424.01 305.443 417.357 304.536C411.107 303.684 403.399 302.477 396.715 303.403C391.599 304.112 387.084 306.068 384.27 310.381C377.786 320.332 374.752 324.124 374.752 324.124" stroke="#954BA6" stroke-width="3" stroke-linecap="round" stroke-linejoin="round"/>
<path d="M376.383 443.473C385.047 441.127 392.454 435.662 397.251 425.859C405.038 409.947 421.716 362.673 428.504 337.651C430.568 330.024 431.721 324.467 431.414 322.494C430.898 319.154 430.318 315.87 429.111 313.04" stroke="#954BA6" stroke-width="3" stroke-linecap="round" stroke-linejoin="round"/>
<path d="M326.106 372.231C326.106 372.231 323.73 434.939 344.488 441.427C347.701 442.439 350.974 443.252 354.288 443.86C361.996 445.256 369.574 445.324 376.376 443.48" stroke="#954BA6" stroke-width="3" stroke-linecap="round" stroke-linejoin="round"/>
<path d="M336.939 526.657C289.278 526.541 181.697 518.049 174.088 504.999C165.008 489.431 146.407 403.803 146.407 403.803C146.407 403.803 141.413 391.499 170.92 390.098C172.709 390.007 174.631 389.962 176.685 389.963C212.576 389.963 260.586 387.366 282.208 389.963C303.829 392.561 304.265 425.427 304.265 425.427L310.722 465.417L315.93 497.706L318.316 512.502C318.316 512.502 321.931 526.107 336.936 526.661" stroke="#954BA6" stroke-width="3" stroke-linecap="round" stroke-linejoin="round"/>
<path d="M336.939 526.657H336.988" stroke="#954BA6" stroke-width="3" stroke-linecap="round" stroke-linejoin="round"/>
<path d="M400.854 426.288C400.854 426.288 436.704 426.723 431.463 434.504C426.222 442.284 378.848 521.867 356.692 525.757C353.113 526.388 346.166 526.676 336.988 526.66" stroke="#954BA6" stroke-width="3" stroke-linecap="round" stroke-linejoin="round"/>
<path d="M169.725 371.361H62.5054L151.166 131.771L593.162 146.476L513.152 388.805L419.307 383.903" stroke="#954BA6" stroke-width="3" stroke-linecap="round" stroke-linejoin="round"/>
<path d="M425.214 299.714C425.221 299.701 425.229 299.689 425.238 299.677C425.269 299.61 425.367 299.432 425.508 299.161C425.557 299.063 425.612 298.96 425.674 298.843C428.198 294.126 440.372 271.946 445.396 273.619C450.971 275.475 429.469 312.426 429.111 313.033V313.039" stroke="#954BA6" stroke-width="3" stroke-linecap="round" stroke-linejoin="round"/>
<path d="M417.145 296.976C417.145 296.97 417.148 296.967 417.151 296.963V296.958C417.154 296.947 417.157 296.936 417.163 296.927C417.172 296.909 417.177 296.891 417.181 296.872C417.904 294.972 428.314 267.775 434.3 269.442C439.851 270.989 428.167 294.053 425.673 298.844" stroke="#954BA6" stroke-width="3" stroke-linecap="round" stroke-linejoin="round"/>
<path d="M396.669 303.071C396.669 303.071 379.949 299.138 382.253 292.221C384.557 285.303 406.907 296.111 406.907 296.111C406.907 296.111 414.258 266.414 420.601 267.278C426.722 268.111 417.819 294.965 417.183 296.874" stroke="#954BA6" stroke-width="3" stroke-linecap="round" stroke-linejoin="round"/>
<path d="M428.497 337.652H428.504H459.812L487.205 267.26V167.375L354.001 169.396L355.154 260.288L335.927 290.824" stroke="#954BA6" stroke-width="3" stroke-linecap="round" stroke-linejoin="round"/>
<path d="M355.154 260.288L487.206 267.26" stroke="#954BA6" stroke-width="3" stroke-linecap="round" stroke-linejoin="round"/>
<path d="M359.19 174.009V255.025L480.863 260.288L479.705 174.009H359.19Z" stroke="#954BA6" stroke-width="3" stroke-linecap="round" stroke-linejoin="round"/>
<path d="M187.426 284.372L187.42 284.367L174.952 260.288L121.036 278.38L136.316 351.039L175.608 338.951" stroke="#954BA6" stroke-width="3" stroke-linecap="round" stroke-linejoin="round"/>
<path d="M153.847 162.994C153.606 162.772 153.415 162.502 153.283 162.203C151.666 158.57 159.349 151.616 170.439 146.684C181.528 141.752 191.839 140.692 193.458 144.331C193.539 144.513 193.597 144.704 193.629 144.901C193.856 146.145 193.178 147.701 191.785 149.392C188.997 152.78 183.338 156.72 176.302 159.85C169.266 162.981 162.552 164.55 158.167 164.357C156.191 164.268 154.69 163.82 153.847 162.994Z" stroke="#954BA6" stroke-width="3" stroke-linecap="round" stroke-linejoin="round"/>
<path d="M153.611 162.73L153.844 162.994L158.164 167.926L165.966 176.828L168.515 179.729L173.6 185.532C173.6 185.532 188.415 184.778 195.994 175.57C197.911 173.235 198.714 170.117 198.837 166.759C199.21 156.858 193.708 144.886 193.708 144.886" stroke="#954BA6" stroke-width="3" stroke-linecap="round" stroke-linejoin="round"/>
<path d="M198.789 166.768C198.801 166.768 198.82 166.762 198.832 166.762C205.075 165.8 208.874 166.235 210.038 168.852C212.078 173.434 202.76 182.024 189.231 188.046C175.703 194.069 163.082 195.233 161.042 190.651C159.768 187.789 162.616 184.162 168.468 179.776" stroke="#954BA6" stroke-width="3" stroke-linecap="round" stroke-linejoin="round"/>
<path d="M158.167 167.926C158.167 167.926 153.107 172.092 156.838 176.589C160.569 181.086 165.967 176.828 165.967 176.828" stroke="#954BA6" stroke-width="3" stroke-linecap="round" stroke-linejoin="round"/>
<path d="M158.167 164.357C158.167 164.357 164.3 156.809 173.374 153.273C179.284 151.074 185.489 149.766 191.785 149.395" stroke="#954BA6" stroke-width="3" stroke-linecap="round" stroke-linejoin="round"/>
<path d="M136.892 289.335L168.034 279.82" stroke="#954BA6" stroke-width="3" stroke-linecap="round" stroke-linejoin="round"/>
<path d="M142.081 303.072L176.232 291.645" stroke="#954BA6" stroke-width="3" stroke-linecap="round" stroke-linejoin="round"/>
<path d="M150.156 316.728C151.308 316.152 178.701 307.213 178.701 307.213" stroke="#954BA6" stroke-width="3" stroke-linecap="round" stroke-linejoin="round"/>
<path d="M315.93 497.703C315.93 497.703 334.108 503.56 346.791 491.736C359.381 480.009 376.12 444.044 376.377 443.481L376.383 443.474" stroke="#954BA6" stroke-width="3" stroke-linecap="round" stroke-linejoin="round"/>
<path d="M310.724 465.414C310.724 465.414 324.019 471.265 339.588 462.038C355.156 452.811 354.292 443.86 354.292 443.86" stroke="#954BA6" stroke-width="3" stroke-linecap="round" stroke-linejoin="round"/>
<path d="M427.253 368.922C430.469 362.186 432.574 354.974 433.488 347.566" stroke="#954BA6" stroke-width="3" stroke-linecap="round" stroke-linejoin="round"/>
<path d="M199.843 231.931C197.335 224.212 196.738 215.999 198.106 207.998" stroke="#954BA6" stroke-width="3" stroke-linecap="round" stroke-linejoin="round"/>
<path d="M169.629 139.471C166.865 137.534 164.643 134.923 163.172 131.885C161.701 128.847 161.031 125.483 161.226 122.114C161.552 117.386 163.599 112.868 163.641 108.129C163.617 104.85 162.651 101.647 160.857 98.9026C159.063 96.1577 156.518 93.9874 153.524 92.6494" stroke="#954BA6" stroke-width="3" stroke-linecap="round" stroke-linejoin="round"/>
<path d="M158.676 142.405C155.158 140.497 153.403 136.359 152.938 132.384C152.472 128.409 153.04 124.384 152.86 120.386C152.681 116.387 151.588 112.149 148.553 109.539" stroke="#954BA6" stroke-width="3" stroke-linecap="round" stroke-linejoin="round"/>
<path d="M337.701 165.009C334.746 158.487 329.696 153.14 323.354 149.817" stroke="#954BA6" stroke-width="3" stroke-linecap="round" stroke-linejoin="round"/>
<path d="M416.737 336.327L415.001 328.111" stroke="#954BA6" stroke-width="3" stroke-linecap="round" stroke-linejoin="round"/>
<path d="M390.76 324.656C392.464 323.023 394.544 321.835 396.815 321.196" stroke="#954BA6" stroke-width="3" stroke-linecap="round" stroke-linejoin="round"/>
<path d="M398.07 353.993L403.702 350.55" stroke="#954BA6" stroke-width="3" stroke-linecap="round" stroke-linejoin="round"/>
<path d="M406.33 376.986L404.167 369.201" stroke="#954BA6" stroke-width="3" stroke-linecap="round" stroke-linejoin="round"/>
<path d="M381.678 383.909L387.301 380.882" stroke="#954BA6" stroke-width="3" stroke-linecap="round" stroke-linejoin="round"/>
<path d="M390.844 409.404L389.088 401.193" stroke="#954BA6" stroke-width="3" stroke-linecap="round" stroke-linejoin="round"/>
<path d="M366.968 416.33L373.882 412.427" stroke="#954BA6" stroke-width="3" stroke-linecap="round" stroke-linejoin="round"/>
<path d="M348.81 430.614C348.238 427.664 347.059 424.867 345.35 422.396" stroke="#954BA6" stroke-width="3" stroke-linecap="round" stroke-linejoin="round"/>
<path d="M359.705 397.697L356.223 391.654" stroke="#954BA6" stroke-width="3" stroke-linecap="round" stroke-linejoin="round"/>
<path d="M336.701 377.851L341.891 374.391" stroke="#954BA6" stroke-width="3" stroke-linecap="round" stroke-linejoin="round"/>
<path d="M361.433 352.286L358.383 347.109" stroke="#954BA6" stroke-width="3" stroke-linecap="round" stroke-linejoin="round"/>
<path d="M343.188 326.818L349.033 323.761L347.945 323.79" stroke="#954BA6" stroke-width="3" stroke-linecap="round" stroke-linejoin="round"/>
<path d="M319.454 361.792L314.682 357.485" stroke="#954BA6" stroke-width="3" stroke-linecap="round" stroke-linejoin="round"/>
<path d="M320.735 444.473L324.618 437.548" stroke="#954BA6" stroke-width="3" stroke-linecap="round" stroke-linejoin="round"/>
<path d="M313.756 415.063C313.057 414.112 312.168 413.316 311.146 412.725C310.124 412.135 308.991 411.763 307.818 411.633L309.025 410.719" stroke="#954BA6" stroke-width="3" stroke-linecap="round" stroke-linejoin="round"/>
<path d="M295.186 379.148L299.078 374.391" stroke="#954BA6" stroke-width="3" stroke-linecap="round" stroke-linejoin="round"/>
<path d="M264.5 378.248C262.766 377.079 261.38 375.463 260.486 373.572" stroke="#954BA6" stroke-width="3" stroke-linecap="round" stroke-linejoin="round"/>
<path d="M219.499 382.608L225.12 376.553" stroke="#954BA6" stroke-width="3" stroke-linecap="round" stroke-linejoin="round"/>
<path d="M203.092 369.591C201.406 368.475 200.137 366.831 199.486 364.917" stroke="#954BA6" stroke-width="3" stroke-linecap="round" stroke-linejoin="round"/>
<path d="M178.413 377.85L181.873 373.958" stroke="#954BA6" stroke-width="3" stroke-linecap="round" stroke-linejoin="round"/>
<path d="M186.197 347.578L183.169 342.82" stroke="#954BA6" stroke-width="3" stroke-linecap="round" stroke-linejoin="round"/>
<path d="M249.812 156.827L245.506 150.326" stroke="#954BA6" stroke-width="3" stroke-linecap="round" stroke-linejoin="round"/>
<path d="M243.639 156.765L250.477 150.621" stroke="#954BA6" stroke-width="3" stroke-linecap="round" stroke-linejoin="round"/>
<path d="M292.587 124.416C294.306 122.195 296.53 120.416 299.075 119.226" stroke="#954BA6" stroke-width="3" stroke-linecap="round" stroke-linejoin="round"/>
<path d="M297.449 124.775L291.352 116.045C291.404 116.155 291.483 116.249 291.582 116.32C291.681 116.39 291.796 116.434 291.918 116.447C292.038 116.46 292.161 116.441 292.272 116.394C292.384 116.346 292.482 116.27 292.555 116.174" stroke="#954BA6" stroke-width="3" stroke-linecap="round" stroke-linejoin="round"/>
<path d="M449.563 287.448C450.774 285.946 451.669 284.216 452.194 282.359C452.719 280.504 452.864 278.56 452.62 276.647" stroke="#954BA6" stroke-width="3" stroke-linecap="round" stroke-linejoin="round"/>
<path d="M375.649 288.776C376.56 287.438 377.779 286.338 379.205 285.57C380.63 284.802 382.219 284.388 383.838 284.363" stroke="#954BA6" stroke-width="3" stroke-linecap="round" stroke-linejoin="round"/>
<path d="M36.1506 354.76C32.2446 364.379 30.4322 374.719 30.8341 385.093C31.2359 395.467 33.8427 405.636 38.4809 414.923C43.1192 424.212 49.6825 432.405 57.7341 438.959C65.7855 445.512 75.1408 450.275 85.1769 452.931C91.3785 454.573 98.0038 455.381 104.178 453.641C110.352 451.9 115.974 447.184 117.376 440.924C118.778 434.664 114.833 427.28 108.515 426.166C101.628 424.952 95.591 430.833 91.8338 436.731C84.9629 447.518 81.6635 462.945 90.3875 472.298C98.2539 480.735 113.291 481.209 118.504 491.5C119.708 493.877 120.216 496.545 119.97 499.198C119.724 501.85 118.733 504.379 117.113 506.493C115.492 508.608 113.307 510.221 110.81 511.148C108.312 512.075 105.604 512.278 102.996 511.732" stroke="#954BA6" stroke-width="3" stroke-linecap="round" stroke-linejoin="round"/>
<path d="M478.997 511.893C474.723 513.698 469.538 511.73 466.527 508.2C463.517 504.671 462.329 499.928 461.916 495.304C460.796 482.788 464.693 470.34 472.749 460.696C480.804 451.052 492.359 445.001 504.875 443.874C510.227 443.392 516.578 444.384 519.136 449.106C522.255 454.864 516.284 462.626 509.748 462.235C503.213 461.844 498.253 455.107 498.4 448.562C498.546 442.017 502.796 436.1 508.167 432.355C513.537 428.61 519.943 426.693 526.265 424.99C532.586 423.288 539.035 421.707 544.746 418.505C559.963 409.971 567.099 389.407 560.433 373.283" stroke="#954BA6" stroke-width="3" stroke-linecap="round" stroke-linejoin="round"/>
<path d="M533.048 398.394L541.482 393.204" stroke="#954BA6" stroke-width="3" stroke-linecap="round" stroke-linejoin="round"/>
<path d="M539.497 400.361L533.706 389.308" stroke="#954BA6" stroke-width="3" stroke-linecap="round" stroke-linejoin="round"/>
<path d="M450.66 469.753L459.091 465.862" stroke="#954BA6" stroke-width="3" stroke-linecap="round" stroke-linejoin="round"/>
<path d="M455.197 472.999C453.649 469.769 452.985 466.187 453.272 462.618" stroke="#954BA6" stroke-width="3" stroke-linecap="round" stroke-linejoin="round"/>
<path d="M123.704 474.294L130.191 470.402" stroke="#954BA6" stroke-width="3" stroke-linecap="round" stroke-linejoin="round"/>
<path d="M126.83 477.575L123.508 466.571" stroke="#954BA6" stroke-width="3" stroke-linecap="round" stroke-linejoin="round"/>
<path d="M25.7461 436.668L33.5287 430.182" stroke="#954BA6" stroke-width="3" stroke-linecap="round" stroke-linejoin="round"/>
<path d="M31.2305 437.703C28.906 435.079 27.508 431.763 27.2515 428.266" stroke="#954BA6" stroke-width="3" stroke-linecap="round" stroke-linejoin="round"/>
<path d="M252.081 121.323L248.567 113.564" stroke="#954BA6" stroke-width="3" stroke-linecap="round" stroke-linejoin="round"/>
<path d="M245.427 119.618L255.64 114.53" stroke="#954BA6" stroke-width="3" stroke-linecap="round" stroke-linejoin="round"/>
<g opacity="0.1">
<path d="M160.631 168.492C161.737 171.54 163.964 173.431 166.248 175.617C168.563 177.832 170.782 180.164 172.917 182.553C176.475 186.536 182.316 180.662 178.773 176.697C176.535 174.186 174.127 171.832 171.566 169.651C168.992 167.466 166.553 165.559 163.079 165.278C162.688 165.281 162.304 165.372 161.955 165.546C161.605 165.721 161.301 165.973 161.064 166.283C160.827 166.593 160.665 166.955 160.59 167.338C160.514 167.721 160.528 168.115 160.629 168.492H160.631Z" fill="#954BA6"/>
</g>
<g opacity="0.1">
<path d="M317.257 505.618C320.329 507.822 325.05 507.446 328.62 507.058C332.353 506.625 336.013 505.701 339.504 504.309C347.112 501.338 354.003 496.42 359.75 490.66C371.895 478.493 378.841 462.404 385.509 446.85C386.527 444.477 386.196 441.789 383.807 440.357C381.825 439.169 378.316 439.704 377.314 442.059C371.282 456.249 365.113 471.053 354.672 482.655C349.855 488.066 344.035 492.492 337.534 495.69C334.347 497.229 331.002 498.414 327.557 499.223C324.213 500.026 320.336 499.877 317.255 501.442C315.498 502.335 315.89 504.638 317.255 505.618H317.257Z" fill="#954BA6"/>
</g>
<g opacity="0.1">
<path d="M153.322 395.164C150.464 397.954 149.29 402.249 148.844 406.073C148.314 410.607 149.257 415.206 150.052 419.678C151.806 429.535 154.099 439.26 156.518 448.973C161.347 468.364 167.126 487.523 173.446 506.477C175.564 512.829 185.661 510.111 183.531 503.698C177.556 485.708 172.265 467.529 167.325 449.232C164.884 440.189 162.756 431.066 160.325 422.022C159.208 417.863 157.991 413.69 157.28 409.436C156.905 407.19 156.685 404.977 156.384 402.73C156.232 401.597 155.776 400.637 155.804 399.461C155.831 398.378 156.093 397.397 156.054 396.301C156.045 395.988 155.947 395.685 155.769 395.427C155.591 395.169 155.343 394.968 155.054 394.848C154.765 394.728 154.448 394.694 154.139 394.752C153.832 394.808 153.547 394.953 153.32 395.168L153.322 395.164Z" fill="#954BA6"/>
</g>
</g>
</svg>
