<svg width="588" height="588" viewBox="0 0 588 588" fill="none" xmlns="http://www.w3.org/2000/svg">
<mask id="mask0_2_650" style="mask-type:luminance" maskUnits="userSpaceOnUse" x="47" y="23" width="495" height="542">
<path d="M541.45 23.8875H47.1626V564.112H541.45V23.8875Z" fill="white"/>
</mask>
<g mask="url(#mask0_2_650)">
<path fill-rule="evenodd" clip-rule="evenodd" d="M299.86 89.3227C299.86 89.3227 294.718 78.0601 289.638 72.1231C284.563 66.1794 281.216 65.4205 274.52 64.6677C267.824 63.915 239.087 74.3936 233.363 82.8161C227.639 91.2386 241.178 109.173 241.178 109.173L241.245 109.32C252.702 104.368 264.409 100.016 276.318 96.2825C285.512 93.3566 293.316 91.0426 299.86 89.3227ZM277.498 68.6655C277.027 68.4775 276.492 68.7066 276.303 69.1776C276.115 69.6486 276.345 70.1833 276.816 70.372C278.756 71.148 281.876 72.8961 284.804 75.5856C287.728 78.272 290.413 81.8539 291.58 86.2902C291.71 86.7808 292.213 87.0736 292.703 86.945C293.194 86.8158 293.487 86.3129 293.358 85.8223C292.075 80.9486 289.145 77.0782 286.047 74.2319C282.952 71.3887 279.64 69.523 277.498 68.6655Z" fill="#EEC6F7" fill-opacity="0.96"/>
<path fill-rule="evenodd" clip-rule="evenodd" d="M216.308 244.342L274.445 231.518L280.492 234.113L282.487 250.517L282.689 250.493C282.689 250.493 286.25 251.46 291.436 248.546C293.472 247.403 294.342 245.842 295.172 244.355C296.455 242.054 297.64 239.93 302.889 239.8C307.215 239.693 310.159 242.208 312.942 244.584C315.719 246.957 318.336 249.192 322.005 248.546C329.35 247.255 331.266 242.248 331.266 242.248L331.303 242.242C330.862 239.989 330.611 238.716 330.611 238.716C330.611 238.716 447.27 230.943 434.312 91.5234C428.508 89.9738 422.56 89.0244 416.561 88.6894C406.912 88.1271 397.241 89.3344 388.026 92.2505C384.596 93.2978 381.283 94.6968 378.14 96.4247C382.682 193.827 301.567 191.85 299.266 191.771C299.333 188.441 299.339 181.347 298.28 179.058C297.276 176.885 290.029 176.334 281.429 176.273C278.051 176.248 274.457 176.297 270.95 176.358C265.349 176.457 258.916 176.733 253.315 177.155C246.485 177.663 240.884 178.385 239.519 179.279C237.726 180.442 238.521 186.438 239.103 189.685L238.729 189.752C190.153 193.617 171.378 224.222 165.296 255.602C159.157 287.288 165.982 319.772 168.155 326.284C171.693 336.903 178.903 333.995 181.401 332.593C181.701 332.43 181.992 332.248 182.27 332.048L212.85 321.961C212.85 321.961 223.225 319.8 219.718 307.564C217.851 301.046 216.437 294.98 215.408 289.33C214.525 284.552 213.887 279.73 213.499 274.885C212.507 262.171 213.701 252.115 215.911 244.231L216.308 244.342ZM428.144 97.491C431.894 130.537 419.92 203.667 342.075 231.886L342.701 233.614C421.655 204.993 433.773 130.797 429.969 97.284L428.144 97.491Z" fill="#A362B2"/>
<path d="M535.333 523.442C535.333 523.442 537.861 531.73 531.379 544.26C524.897 556.79 487.963 562.164 487.963 562.164V562.17C477.667 560.21 468.81 554.213 464.844 542.314C462.928 536.566 459.494 529.716 455.044 522.236L455.626 521.894C455.626 521.894 471.122 523.473 475.764 503.158C481.138 514.555 484.577 522.396 485.581 523.738C489.468 528.922 520.581 521.149 520.581 521.149C520.581 521.149 529.561 518.903 535.333 523.442Z" fill="#EEC6F7" fill-opacity="0.96"/>
<path d="M337.916 277.682L337.377 277.713C337.377 277.713 335.401 282.72 327.799 284.011C320.196 285.303 316.957 275.05 308.022 275.264C299.086 275.479 301.539 281.098 296.171 284.011C290.804 286.925 287.119 285.958 287.119 285.958L286.812 285.995L284.658 268.299L285.093 268.244C285.093 268.244 288.716 269.211 293.98 266.297C299.244 263.384 296.832 257.764 305.61 257.544C314.388 257.323 317.57 267.595 325.032 266.297C332.493 265 334.434 259.999 334.434 259.999L334.679 259.956C335.685 265.334 336.793 271.383 337.916 277.682Z" fill="#A362B2"/>
<path d="M242.476 126.715C240.486 127.339 217.87 134.299 215.397 127.964C213.762 123.789 224.358 116.762 241.244 109.319C252.701 104.368 264.408 100.018 276.318 96.2844C285.512 93.3585 293.316 91.0445 299.86 89.3246C318.431 84.4399 326.847 84.2751 328.022 88.1553C329.608 93.4014 314.048 99.1913 314.048 99.1913L313.999 99.5221C310.789 99.157 307.55 99.0976 304.328 99.3444C304.328 99.3444 242.114 108.887 244.202 115.51C244.955 117.909 244.337 122.176 243.344 126.719L242.476 126.715Z" fill="#EEC6F7" fill-opacity="0.96"/>
<path d="M253.965 115.579L253.64 146.196L253.346 146.19C253.346 146.19 248.088 153.963 244.85 150.94C241.759 148.057 245.934 141.77 246.332 141.189C245.964 141.672 242.488 146.104 240.241 144.604C238.723 143.594 241.6 134.731 243.345 126.719C244.336 122.177 244.954 117.911 244.202 115.51C242.115 108.887 304.328 99.3444 304.328 99.3444C307.551 99.0976 310.789 99.157 314 99.5221C316.388 99.8651 318.413 100.55 318.914 101.83C320.316 105.392 307.027 107.118 307.027 107.118C307.027 107.118 319.453 118.68 309.733 122.353C301.09 125.616 300.637 112.247 300.649 109.23V109.224C300.649 108.85 300.656 108.636 300.656 108.636C300.656 108.636 276.462 103.77 254.357 115.584L253.965 115.579Z" fill="#A362B2"/>
<path d="M282.69 250.494C282.69 250.494 286.253 251.467 291.437 248.547C296.621 245.627 294.246 240.014 302.891 239.8C311.535 239.587 314.661 249.845 322.006 248.547C329.351 247.248 331.267 242.249 331.267 242.249L331.304 242.243C332.02 245.933 333.244 252.256 334.676 259.957L334.431 260C334.431 260 332.491 265 325.029 266.298C317.568 267.596 314.385 257.331 305.608 257.545C296.83 257.758 299.248 263.378 293.977 266.298C288.707 269.218 285.09 268.244 285.09 268.244L284.655 268.3L282.489 250.518L282.69 250.494Z" fill="#EEC6F7" fill-opacity="0.96"/>
<path d="M222.828 363.97C247.202 359.795 319.668 345.833 340.038 340.233C338.713 373.586 317.8 389.004 291.437 397.574C262.204 407.08 236.924 409.24 218.561 401.032C214.784 399.343 209.943 397.365 204.385 395.462C214.264 379.353 222.827 363.976 222.827 363.976L222.828 363.97Z" fill="#EEC6F7" fill-opacity="0.96"/>
<path d="M218.561 401.033C236.924 409.24 262.204 407.08 291.437 397.574C317.8 389.005 338.715 373.586 340.038 340.233C340.674 340.056 341.263 339.89 341.794 339.732C341.794 339.732 391.392 372.662 395.426 377.846C396.265 378.93 395.328 382.339 393.259 387.077C389.513 395.665 382.07 408.604 374.786 419.928C366.817 432.329 359.037 442.802 356.54 443.518C350.486 445.251 292.595 408.09 292.595 408.09C292.595 408.09 268.111 459.941 262.632 469.734C259.59 475.176 230.66 465.762 207.679 454.346C199.501 450.276 192.076 445.961 186.843 441.957C180.324 436.993 177.202 432.531 180.257 429.691C186.047 424.304 195.718 409.601 204.385 395.462C209.943 397.366 214.784 399.343 218.561 401.033Z" fill="#EEC6F7" fill-opacity="0.96"/>
<path d="M87.2208 529.357C70.7978 537.131 57.1909 530.655 55.2443 516.179C53.2978 501.703 87.3923 460.668 87.3923 460.668C91.1193 461.415 97.2345 462.602 103.349 463.68C106.254 464.164 109.194 464.412 112.139 464.42V464.426C105.651 475.39 113.332 486.66 115.205 489.118C107.897 489.608 103.349 489.608 103.349 489.608C92.4025 497.381 92.1146 517.256 87.2208 529.357Z" fill="#EEC6F7" fill-opacity="0.96"/>
<path d="M238.729 189.753C190.153 193.618 171.378 224.223 165.296 255.597C159.157 287.285 165.982 319.769 168.155 326.279C171.693 336.899 178.903 333.992 181.401 332.588C181.701 332.425 181.992 332.243 182.27 332.044L212.85 321.956C212.85 321.956 223.225 319.795 219.718 307.56C217.851 301.041 216.437 294.975 215.409 289.325C214.525 284.546 213.887 279.724 213.499 274.88C212.507 262.167 213.701 252.11 215.911 244.226C221.481 224.345 233.545 218.261 233.545 218.261" stroke="#A362B2" stroke-width="3" stroke-linecap="round" stroke-linejoin="round"/>
<path d="M299.218 191.769H299.267C301.568 191.848 382.683 193.826 378.141 96.4228C381.283 94.6943 384.596 93.296 388.027 92.2486C397.242 89.3331 406.913 88.1271 416.562 88.69C422.561 89.0244 428.509 89.9744 434.313 91.524" stroke="#A362B2" stroke-width="3" stroke-linecap="round" stroke-linejoin="round"/>
<path d="M214.822 353.363C214.822 353.363 211.651 364.882 214.822 365.17C215.275 365.213 218.176 364.772 222.828 363.97C247.202 359.796 319.668 345.834 340.038 340.233C340.675 340.056 341.263 339.89 341.795 339.732C343.717 339.162 344.935 338.703 345.302 338.384C347.744 336.266 342.738 304.719 337.914 277.685C336.794 271.386 335.686 265.339 334.676 259.959C333.244 252.259 332.019 245.936 331.303 242.245C330.862 239.992 330.612 238.719 330.612 238.719C330.612 238.719 447.271 230.944 434.313 91.5271" stroke="#A362B2" stroke-width="3" stroke-linecap="round" stroke-linejoin="round"/>
<path d="M222.828 363.976C222.828 363.976 214.264 379.35 204.385 395.462C195.718 409.602 186.047 424.304 180.257 429.691C177.202 432.531 180.324 436.993 186.843 441.957C192.076 445.961 199.501 450.276 207.679 454.346C230.657 465.762 259.59 475.176 262.632 469.734C268.11 459.941 292.592 408.09 292.592 408.09C292.592 408.09 350.483 445.251 356.537 443.518C359.034 442.802 366.814 432.329 374.783 419.928C382.067 408.604 389.51 395.665 393.256 387.077C395.325 382.339 396.261 378.93 395.423 377.846C391.389 372.662 341.791 339.732 341.791 339.732" stroke="#A362B2" stroke-width="3" stroke-linecap="round" stroke-linejoin="round"/>
<path d="M239.519 191.781C239.519 191.781 239.329 190.936 239.103 189.682C238.521 186.436 237.726 180.439 239.519 179.276C240.884 178.383 246.485 177.661 253.316 177.152C258.916 176.73 265.35 176.455 270.95 176.356C274.457 176.295 278.051 176.246 281.43 176.27C290.03 176.331 297.277 176.883 298.281 179.055C299.34 181.345 299.334 188.439 299.266 191.768C299.248 192.846 299.217 193.531 299.217 193.531" stroke="#A362B2" stroke-width="3" stroke-linecap="round" stroke-linejoin="round"/>
<path d="M253.315 177.147L253.64 146.193L253.965 115.576L253.995 112.736" stroke="#A362B2" stroke-width="3" stroke-linecap="round" stroke-linejoin="round"/>
<path d="M300.649 109.223C300.653 109.207 300.654 109.19 300.655 109.173" stroke="#A362B2" stroke-width="3" stroke-linecap="round" stroke-linejoin="round"/>
<path d="M281.429 176.265C281.429 176.265 278.84 165.124 282.078 162.529C285.316 159.934 292.881 160.155 295.685 152.16C298.427 144.356 300.551 110.801 300.649 109.228" stroke="#A362B2" stroke-width="3" stroke-linecap="round" stroke-linejoin="round"/>
<path d="M246.362 141.142C246.351 141.156 246.34 141.17 246.332 141.185C245.964 141.669 242.488 146.1 240.241 144.6C238.723 143.59 241.6 134.727 243.345 126.715C244.336 122.174 244.954 117.907 244.202 115.506C242.115 108.884 304.328 99.3407 304.328 99.3407C307.551 99.0939 310.789 99.1533 314 99.5184C316.388 99.8614 318.413 100.547 318.914 101.826C320.316 105.389 307.027 107.115 307.027 107.115C307.027 107.115 319.453 118.677 309.733 122.349C301.09 125.612 300.637 112.243 300.649 109.226V109.22C300.649 108.847 300.656 108.632 300.656 108.632C300.656 108.632 276.462 103.766 254.357 115.58" stroke="#A362B2" stroke-width="3" stroke-linecap="round" stroke-linejoin="round"/>
<path d="M253.347 146.187C253.347 146.187 248.089 153.96 244.851 150.937C241.76 148.054 245.934 141.767 246.332 141.186" stroke="#A362B2" stroke-width="3" stroke-linecap="round" stroke-linejoin="round"/>
<path d="M242.617 126.672C242.617 126.672 242.568 126.691 242.476 126.715C240.486 127.339 217.87 134.299 215.397 127.963C213.762 123.789 224.358 116.762 241.244 109.319C252.701 104.368 264.408 100.018 276.318 96.2844C285.512 93.3585 293.316 91.0445 299.86 89.3246C318.431 84.4399 326.847 84.2751 328.022 88.1553C329.608 93.4014 314.048 99.1913 314.048 99.1913" stroke="#A362B2" stroke-width="3" stroke-linecap="round" stroke-linejoin="round"/>
<path d="M241.178 109.173C241.178 109.173 227.639 91.2386 233.363 82.8161C239.087 74.3936 267.824 63.915 274.52 64.6677C281.216 65.4205 284.565 66.1794 289.639 72.1231C294.713 78.0668 299.861 89.3227 299.861 89.3227" stroke="#A362B2" stroke-width="3" stroke-linecap="round" stroke-linejoin="round"/>
<path d="M406.223 74.2466C406.222 74.2387 406.22 74.2301 406.217 74.2221C406.046 73.127 400.714 38.7029 407.086 37.2335C413.568 35.7402 416.592 88.1535 416.592 88.1535" stroke="#A362B2" stroke-width="3" stroke-linecap="round" stroke-linejoin="round"/>
<path d="M397.727 75.9733C397.727 75.9629 397.725 75.9524 397.721 75.9426C397.476 74.7673 390.315 40.2338 394.414 38.819C398.527 37.3986 405.99 73.127 406.215 74.2215" stroke="#A362B2" stroke-width="3" stroke-linecap="round" stroke-linejoin="round"/>
<path d="M389.372 81.0166L389.366 81.0105C389.183 80.3863 379.193 46.7206 384.047 44.5781C388.859 42.4546 397.422 74.804 397.721 75.9427" stroke="#A362B2" stroke-width="3" stroke-linecap="round" stroke-linejoin="round"/>
<path d="M388.099 92.3166C388.099 92.3166 388.075 92.2921 388.026 92.2492C386.82 91.1841 370.777 76.8614 373.966 73.6721C377.234 70.4038 389.048 80.7293 389.366 81.0111" stroke="#A362B2" stroke-width="3" stroke-linecap="round" stroke-linejoin="round"/>
<path d="M181.401 332.594C182.326 335.401 183.564 338.094 185.092 340.625C186.12 342.365 187.313 344.003 188.654 345.515C193.104 350.485 199.782 354.238 209.165 350.804" stroke="#A362B2" stroke-width="3" stroke-linecap="round" stroke-linejoin="round"/>
<path d="M201.931 345.514C203.97 347.727 206.454 349.484 209.22 350.669C211.026 351.448 212.95 351.92 214.912 352.064C218.187 352.297 221.956 351.587 226.046 349.107" stroke="#A362B2" stroke-width="3" stroke-linecap="round" stroke-linejoin="round"/>
<path d="M213.414 343.03C213.414 343.03 219.345 347.455 226.048 349.108H226.054C230.43 350.191 235.137 350.088 238.732 346.807C244.272 341.744 240.532 334.039 240.532 334.039" stroke="#A362B2" stroke-width="3" stroke-linecap="round" stroke-linejoin="round"/>
<path d="M212.85 321.962C212.85 321.962 221.236 326.51 228 331.247C229.778 332.47 231.487 333.792 233.116 335.207C235.595 337.412 236.997 339.364 236.134 340.545C231.384 347.027 214.294 332.594 214.294 332.594" stroke="#A362B2" stroke-width="3" stroke-linecap="round" stroke-linejoin="round"/>
<path d="M165.297 255.598L136.761 261.897L133.665 351.807L138.634 355.45L188.649 345.515" stroke="#A362B2" stroke-width="3" stroke-linecap="round" stroke-linejoin="round"/>
<path d="M233.686 335.036L240.474 333.738L291.437 323.981L289.319 306.597L287.955 295.402L286.81 285.995L284.655 268.299L282.489 250.517L280.493 234.113L274.445 231.518L216.309 244.342" stroke="#A362B2" stroke-width="3" stroke-linecap="round" stroke-linejoin="round"/>
<path d="M228 331.247L285.317 319.806L274.445 231.518" stroke="#A362B2" stroke-width="3" stroke-linecap="round" stroke-linejoin="round"/>
<path d="M185.093 340.625L133.665 351.808" stroke="#A362B2" stroke-width="3" stroke-linecap="round" stroke-linejoin="round"/>
<path d="M244.881 190.557H293.384" stroke="#A362B2" stroke-width="3" stroke-linecap="round" stroke-linejoin="round"/>
<path d="M186.836 441.963C186.836 441.963 182.331 453.886 155.514 459.069C135.584 462.924 121.879 464.553 112.135 464.418C109.19 464.409 106.25 464.162 103.345 463.678C97.2304 462.6 91.1152 461.412 87.3881 460.666C85.1415 460.219 83.7579 459.938 83.7579 459.938C83.7579 459.938 44.0067 502.851 48.9067 521.576C53.8067 540.3 82.3209 541.451 87.2179 529.354C92.1148 517.258 92.4021 497.378 103.346 489.603C103.346 489.603 107.894 489.603 115.202 489.113C126.281 488.373 143.714 486.512 161.245 481.824C190.111 474.112 207.415 454.641 207.678 454.341L207.684 454.335" stroke="#A362B2" stroke-width="3" stroke-linecap="round" stroke-linejoin="round"/>
<path d="M115.588 489.615C115.588 489.615 115.441 489.443 115.202 489.119C113.329 486.658 105.647 475.389 112.136 464.427" stroke="#A362B2" stroke-width="3" stroke-linecap="round" stroke-linejoin="round"/>
<path d="M475.764 503.154C460.333 470.437 428.932 408.451 393.26 387.076" stroke="#A362B2" stroke-width="3" stroke-linecap="round" stroke-linejoin="round"/>
<path d="M374.789 419.93C374.789 419.93 430.429 480.784 455.047 522.241C459.497 529.721 462.931 536.571 464.847 542.319C468.813 554.218 477.67 560.216 487.966 562.175C510.199 566.411 539.136 551.836 540.024 537.275C540.465 529.991 538.335 525.804 535.336 523.447C529.564 518.906 520.584 521.152 520.584 521.152C520.584 521.152 489.469 528.926 485.584 523.741C484.58 522.401 481.14 514.56 475.766 503.161" stroke="#A362B2" stroke-width="3" stroke-linecap="round" stroke-linejoin="round"/>
<path d="M455.625 521.897C455.625 521.897 471.122 523.476 475.763 503.161V503.155" stroke="#A362B2" stroke-width="3" stroke-linecap="round" stroke-linejoin="round"/>
<path d="M272.787 140.494C272.787 140.494 278.081 142.14 278.295 139.967C278.51 137.794 276.029 114.682 276.029 114.682C276.029 114.682 287.047 111.007 292.77 113.384" stroke="#A362B2" stroke-width="3" stroke-linecap="round" stroke-linejoin="round"/>
<path d="M282.782 122.242C283.585 121.747 284.51 121.484 285.454 121.484C286.398 121.484 287.323 121.747 288.126 122.242" stroke="#A362B2" stroke-width="3" stroke-linecap="round" stroke-linejoin="round"/>
<path d="M262.204 121.477C262.204 121.477 265.986 118.459 269.114 120.944" stroke="#A362B2" stroke-width="3" stroke-linecap="round" stroke-linejoin="round"/>
<path d="M258.855 150.434C258.855 150.434 262.53 155.405 267.602 154.217" stroke="#A362B2" stroke-width="3" stroke-linecap="round" stroke-linejoin="round"/>
<path d="M162.42 118.857C162.42 122.538 161.329 126.136 159.285 129.198C157.24 132.258 154.333 134.645 150.932 136.053C147.532 137.462 143.789 137.831 140.178 137.113C136.568 136.395 133.252 134.623 130.649 132.019C128.046 129.416 126.273 126.1 125.556 122.49C124.838 118.879 125.206 115.137 126.615 111.736C128.025 108.335 130.41 105.428 133.472 103.384C136.533 101.339 140.131 100.248 143.812 100.249C146.256 100.249 148.676 100.731 150.933 101.665C153.191 102.6 155.242 103.971 156.97 105.699C158.698 107.427 160.068 109.478 161.003 111.736C161.939 113.994 162.42 116.413 162.42 118.857Z" stroke="#A362B2" stroke-width="3" stroke-linecap="round" stroke-linejoin="round"/>
<path d="M148.929 93.0191L153.257 75.7589" stroke="#A362B2" stroke-width="3" stroke-linecap="round" stroke-linejoin="round"/>
<path d="M135.102 142.3L129.489 162.817" stroke="#A362B2" stroke-width="3" stroke-linecap="round" stroke-linejoin="round"/>
<path d="M120.412 128.362L111.769 132.958" stroke="#A362B2" stroke-width="3" stroke-linecap="round" stroke-linejoin="round"/>
<path d="M120.412 111.187L83.2578 102.979" stroke="#A362B2" stroke-width="3" stroke-linecap="round" stroke-linejoin="round"/>
<path d="M129.489 98.4367L123.007 91.551" stroke="#A362B2" stroke-width="3" stroke-linecap="round" stroke-linejoin="round"/>
<path d="M165.345 102.979L172.954 100.249" stroke="#A362B2" stroke-width="3" stroke-linecap="round" stroke-linejoin="round"/>
<path d="M169.153 127.597L185.221 131.533" stroke="#A362B2" stroke-width="3" stroke-linecap="round" stroke-linejoin="round"/>
<path d="M155.038 142.3L159.298 148.837" stroke="#A362B2" stroke-width="3" stroke-linecap="round" stroke-linejoin="round"/>
<path d="M294.822 298.74C294.822 298.74 336.304 287.183 339.756 328.664C340.088 332.511 340.183 336.375 340.038 340.233C338.713 373.586 317.8 389.005 291.437 397.574C262.203 407.08 236.924 409.241 218.561 401.033C214.784 399.343 209.943 397.366 204.385 395.462C182.918 388.123 150.771 381.966 128.087 398.444" stroke="#A362B2" stroke-width="3" stroke-linecap="round" stroke-linejoin="round"/>
<path d="M126.557 397.433C127.245 397.947 127.846 398.567 128.338 399.27C131.711 404.069 129.409 411.765 123.246 418.129C121.758 419.662 120.129 421.051 118.379 422.279C108.714 429.078 97.5133 429.796 93.3569 423.889C89.2004 417.983 93.657 407.674 103.315 400.88C103.879 400.482 104.448 400.109 105.017 399.76C113.085 394.746 121.856 393.871 126.557 397.433Z" stroke="#A362B2" stroke-width="3" stroke-linecap="round" stroke-linejoin="round"/>
<path d="M282.69 250.494C282.69 250.494 286.253 251.467 291.437 248.547C296.621 245.627 294.247 240.014 302.891 239.8C311.535 239.587 314.661 249.845 322.006 248.547C329.351 247.248 331.267 242.249 331.267 242.249" stroke="#A362B2" stroke-width="3" stroke-linecap="round" stroke-linejoin="round"/>
<path d="M285.09 268.244C285.09 268.244 288.713 269.211 293.977 266.297C299.241 263.384 296.83 257.764 305.607 257.544C314.385 257.323 317.568 267.595 325.029 266.297C332.491 265 334.431 259.999 334.431 259.999" stroke="#A362B2" stroke-width="3" stroke-linecap="round" stroke-linejoin="round"/>
<path d="M287.116 285.958C287.116 285.958 290.807 286.932 296.168 284.012C301.53 281.092 299.076 275.479 308.019 275.265C316.961 275.05 320.199 285.31 327.796 284.012C335.392 282.714 337.374 277.714 337.374 277.714" stroke="#A362B2" stroke-width="3" stroke-linecap="round" stroke-linejoin="round"/>
<path d="M286.54 307.057L285.316 295.825L287.954 295.403L291.437 294.852L293.206 305.655L289.319 306.598L287.409 307.057" stroke="#A362B2" stroke-width="3" stroke-linecap="round" stroke-linejoin="round"/>
<path d="M213.499 274.886C213.499 274.886 219.754 275.192 220.722 280.596C221.677 285.879 215.672 289.184 215.409 289.331H215.403" stroke="#A362B2" stroke-width="3" stroke-linecap="round" stroke-linejoin="round"/>
<path d="M87.3898 460.668C87.3898 460.668 53.2954 501.706 55.2419 516.179C57.1884 530.652 70.7954 537.131 87.2183 529.357" stroke="#A362B2" stroke-width="3" stroke-linecap="round" stroke-linejoin="round"/>
<path d="M487.962 562.166C487.962 562.166 524.902 556.791 531.378 544.262C537.854 531.733 535.333 523.445 535.333 523.445" stroke="#A362B2" stroke-width="3" stroke-linecap="round" stroke-linejoin="round"/>
<path d="M105.017 399.753V399.759C105.029 400.01 105.378 407.092 109.988 412.386C112.683 415.49 116.837 417.981 123.246 418.128" stroke="#A362B2" stroke-width="3" stroke-linecap="round" stroke-linejoin="round"/>
<path d="M126.557 397.433C126.557 397.433 114.181 402.281 109.988 412.387" stroke="#A362B2" stroke-width="3" stroke-linecap="round" stroke-linejoin="round"/>
<path d="M155.062 497.084C163.857 496.217 172.206 492.797 179.08 487.244" stroke="#A362B2" stroke-width="3" stroke-linecap="round" stroke-linejoin="round"/>
<path d="M253.705 447.84L252.265 440.927" stroke="#A362B2" stroke-width="3" stroke-linecap="round" stroke-linejoin="round"/>
<path d="M209.059 418.172L214.243 416.156" stroke="#A362B2" stroke-width="3" stroke-linecap="round" stroke-linejoin="round"/>
<path d="M248.793 393.979L247.84 388.233" stroke="#A362B2" stroke-width="3" stroke-linecap="round" stroke-linejoin="round"/>
<path d="M277.9 368.903L285.685 368.106" stroke="#A362B2" stroke-width="3" stroke-linecap="round" stroke-linejoin="round"/>
<path d="M234.982 375.541L234.119 371.22" stroke="#A362B2" stroke-width="3" stroke-linecap="round" stroke-linejoin="round"/>
<path d="M319.872 407.888L327.13 404.858" stroke="#A362B2" stroke-width="3" stroke-linecap="round" stroke-linejoin="round"/>
<path d="M357.481 417.561C356.378 414.994 356.302 412.102 357.271 409.481" stroke="#A362B2" stroke-width="3" stroke-linecap="round" stroke-linejoin="round"/>
<path d="M367.769 380.704C370.375 380.351 373.027 380.56 375.547 381.316" stroke="#A362B2" stroke-width="3" stroke-linecap="round" stroke-linejoin="round"/>
<path d="M342.888 377.026C342.08 374.968 342.118 372.673 342.992 370.642" stroke="#A362B2" stroke-width="3" stroke-linecap="round" stroke-linejoin="round"/>
<path d="M317.674 356.506L323.287 361.845" stroke="#A362B2" stroke-width="3" stroke-linecap="round" stroke-linejoin="round"/>
<path d="M82.0406 410.115C80.3207 411.966 79.2611 414.334 79.0259 416.849C78.7907 419.365 79.3934 421.887 80.7402 424.025" stroke="#A362B2" stroke-width="3" stroke-linecap="round" stroke-linejoin="round"/>
<path d="M144.819 382.449C147.269 380.211 150.226 378.604 153.436 377.765C156.645 376.926 160.011 376.88 163.241 377.633" stroke="#A362B2" stroke-width="3" stroke-linecap="round" stroke-linejoin="round"/>
<path d="M280.773 259.46L279.606 250.244" stroke="#A362B2" stroke-width="3" stroke-linecap="round" stroke-linejoin="round"/>
<path d="M283.087 276.742L282.511 270.981" stroke="#A362B2" stroke-width="3" stroke-linecap="round" stroke-linejoin="round"/>
<path d="M435.037 69.049C436.08 57.5778 432.543 46.1599 425.198 37.2872" stroke="#A362B2" stroke-width="3" stroke-linecap="round" stroke-linejoin="round"/>
<path d="M442.12 54.371C442.065 52.3276 441.453 50.338 440.348 48.6184" stroke="#A362B2" stroke-width="3" stroke-linecap="round" stroke-linejoin="round"/>
<path d="M159.186 241.302C161.587 231.81 165.728 222.846 171.399 214.866" stroke="#A362B2" stroke-width="3" stroke-linecap="round" stroke-linejoin="round"/>
<path d="M352.608 297.173L349.378 276.327C349.104 274.993 349.029 273.626 349.155 272.27" stroke="#A362B2" stroke-width="3" stroke-linecap="round" stroke-linejoin="round"/>
<path d="M448.38 541.037C443.115 525.282 435.272 510.511 425.169 497.325" stroke="#A362B2" stroke-width="3" stroke-linecap="round" stroke-linejoin="round"/>
<path d="M506.299 524.159C502.49 530.687 500.943 538.291 501.901 545.788" stroke="#A362B2" stroke-width="3" stroke-linecap="round" stroke-linejoin="round"/>
<path d="M516.702 522.017C513.431 528.714 512.372 536.276 513.674 543.613" stroke="#A362B2" stroke-width="3" stroke-linecap="round" stroke-linejoin="round"/>
<path d="M96.3147 497.526C93.8438 496.648 91.6143 495.199 89.8081 493.298C88.0018 491.396 86.669 489.096 85.9175 486.583" stroke="#A362B2" stroke-width="3" stroke-linecap="round" stroke-linejoin="round"/>
<path d="M91.5279 511.026C88.3569 510.175 85.4525 508.535 83.0845 506.261C80.7172 503.986 78.963 501.149 77.9849 498.015" stroke="#A362B2" stroke-width="3" stroke-linecap="round" stroke-linejoin="round"/>
<path d="M224.657 96.402C223.342 93.794 222.693 90.8993 222.77 87.9789C222.848 85.0579 223.649 82.2018 225.101 79.6666" stroke="#A362B2" stroke-width="3" stroke-linecap="round" stroke-linejoin="round"/>
<path d="M307.561 65.7439L311.452 58.8323" stroke="#A362B2" stroke-width="3" stroke-linecap="round" stroke-linejoin="round"/>
<path d="M313.184 64.4558L305.922 58.7342" stroke="#A362B2" stroke-width="3" stroke-linecap="round" stroke-linejoin="round"/>
<path d="M277.757 41.1206V34.2079" stroke="#A362B2" stroke-width="3" stroke-linecap="round" stroke-linejoin="round"/>
<path d="M272.563 38.0444L281.635 36.3097" stroke="#A362B2" stroke-width="3" stroke-linecap="round" stroke-linejoin="round"/>
<path d="M388.405 231.741C404.798 223.563 417.983 210.135 425.86 193.595" stroke="#A362B2" stroke-width="3" stroke-linecap="round" stroke-linejoin="round"/>
<path d="M119.237 240.693L113.177 233.791" stroke="#A362B2" stroke-width="3" stroke-linecap="round" stroke-linejoin="round"/>
<path d="M112.295 240.331C114.618 238.716 116.411 236.449 117.447 233.817" stroke="#A362B2" stroke-width="3" stroke-linecap="round" stroke-linejoin="round"/>
<path d="M75.299 248.369C67.2881 254.386 61.9955 264.355 62.8794 274.333C63.7632 284.311 71.5156 293.662 81.4234 295.147C84.8957 295.667 88.6552 295.199 91.4862 293.122C94.3172 291.046 95.9305 287.141 94.692 283.856C92.868 279.017 85.5498 278.085 81.7156 281.558C77.8813 285.03 77.4581 291.186 79.551 295.917C81.6439 300.647 85.7471 304.179 90.0248 307.091C94.3025 310.003 98.906 312.487 102.737 315.962C105.903 318.833 108.628 322.917 107.82 327.114C106.933 331.72 101.872 334.628 97.1849 334.441C92.4974 334.253 88.2369 331.677 84.6011 328.712" stroke="#A362B2" stroke-width="3" stroke-linecap="round" stroke-linejoin="round"/>
<path d="M72.5486 312.422C70.8507 311.405 69.4647 309.94 68.5435 308.188" stroke="#A362B2" stroke-width="3" stroke-linecap="round" stroke-linejoin="round"/>
<path d="M67.7466 313.737L72.1909 307.342" stroke="#A362B2" stroke-width="3" stroke-linecap="round" stroke-linejoin="round"/>
<path d="M104.93 274.87L109.683 268.821" stroke="#A362B2" stroke-width="3" stroke-linecap="round" stroke-linejoin="round"/>
<path d="M108.934 274.763L104.167 269.592" stroke="#A362B2" stroke-width="3" stroke-linecap="round" stroke-linejoin="round"/>
<path d="M456.911 223.774C463.605 240.401 463.627 258.97 456.972 275.613C454.419 281.912 450.202 288.391 443.577 289.908C437.41 291.32 430.981 287.814 426.986 282.909C423.448 278.569 421.489 271.873 425.034 267.539C427.931 263.998 433.296 263.605 437.713 264.803C447.586 267.481 454.878 276.536 457.476 286.431C460.074 296.326 458.572 306.896 455.46 316.641C453.312 323.365 449.142 330.823 442.111 331.445C437.464 331.857 433.143 329.032 428.506 328.525C421.684 327.781 414.804 332.748 413.018 339.375C411.232 346.001 414.459 353.545 420.299 357.15C426.139 360.755 434.08 360.375 439.77 356.542" stroke="#A362B2" stroke-width="3" stroke-linecap="round" stroke-linejoin="round"/>
<path d="M405.649 329.742L411.698 323.693" stroke="#A362B2" stroke-width="3" stroke-linecap="round" stroke-linejoin="round"/>
<path d="M410.834 328.445C409.672 326.161 407.932 324.221 405.787 322.819L406.945 321.962" stroke="#A362B2" stroke-width="3" stroke-linecap="round" stroke-linejoin="round"/>
<path d="M473.038 260.592L478.657 256.275" stroke="#A362B2" stroke-width="3" stroke-linecap="round" stroke-linejoin="round"/>
<path d="M477.444 261.43C475.919 259.074 474.732 256.516 473.917 253.83" stroke="#A362B2" stroke-width="3" stroke-linecap="round" stroke-linejoin="round"/>
<path d="M311.173 39.8677L307.236 44.2121C307.118 44.3433 306.961 44.435 306.789 44.4747C306.617 44.5145 306.436 44.5004 306.272 44.4344C306.108 44.3684 305.968 44.2536 305.871 44.1056C305.774 43.9575 305.725 43.7833 305.73 43.6064L305.896 37.746C305.901 37.575 305.855 37.4065 305.764 37.2616C305.673 37.1167 305.541 37.002 305.385 36.932L300.036 34.5304C299.875 34.458 299.74 34.3379 299.649 34.1861C299.557 34.0344 299.515 33.8584 299.527 33.6819C299.539 33.5054 299.605 33.3368 299.716 33.1988C299.827 33.0609 299.977 32.9602 300.147 32.9103L305.772 31.2565C305.936 31.2085 306.082 31.1131 306.191 30.9823C306.301 30.8515 306.37 30.6912 306.388 30.5215L307.019 24.693C307.038 24.517 307.11 24.351 307.227 24.2173C307.343 24.0837 307.497 23.989 307.669 23.9459C307.84 23.9028 308.022 23.9133 308.187 23.9762C308.352 24.039 308.494 24.1511 308.594 24.2973L311.902 29.1361C311.999 29.2773 312.135 29.3866 312.294 29.4504C312.452 29.5142 312.626 29.5295 312.794 29.4944L318.532 28.2933C318.705 28.257 318.886 28.2745 319.048 28.3437C319.211 28.413 319.349 28.5304 319.444 28.6804C319.537 28.8303 319.583 29.0054 319.575 29.1822C319.566 29.359 319.504 29.5289 319.395 29.6689L315.816 34.3129C315.712 34.4483 315.65 34.6117 315.639 34.7823C315.626 34.9529 315.666 35.1231 315.751 35.2715L318.666 40.3583C318.754 40.5118 318.793 40.6885 318.778 40.8647C318.762 41.0409 318.693 41.2082 318.58 41.3439C318.467 41.4797 318.314 41.5774 318.143 41.6239C317.973 41.6704 317.792 41.6635 317.625 41.6041L312.103 39.6349C311.942 39.5779 311.768 39.5696 311.603 39.611C311.438 39.6524 311.288 39.7417 311.173 39.8677Z" fill="#A362B2"/>
<path d="M480.54 325.942L477.962 329.801C477.884 329.917 477.772 330.007 477.641 330.058C477.511 330.109 477.368 330.119 477.231 330.087C477.096 330.054 476.972 329.98 476.879 329.875C476.786 329.771 476.727 329.64 476.71 329.501L476.159 324.891C476.142 324.756 476.087 324.629 475.999 324.526C475.911 324.423 475.795 324.349 475.664 324.312L471.193 323.053C471.058 323.015 470.938 322.936 470.849 322.829C470.76 322.72 470.707 322.587 470.695 322.448C470.684 322.308 470.716 322.168 470.787 322.047C470.858 321.926 470.964 321.83 471.091 321.771L475.306 319.822C475.428 319.765 475.532 319.673 475.602 319.557C475.673 319.441 475.708 319.308 475.703 319.173L475.519 314.533C475.513 314.393 475.551 314.254 475.626 314.137C475.701 314.018 475.812 313.926 475.941 313.873C476.07 313.819 476.213 313.806 476.35 313.836C476.487 313.866 476.611 313.937 476.707 314.04L479.863 317.445C479.955 317.545 480.074 317.614 480.206 317.646C480.338 317.677 480.476 317.669 480.603 317.622L484.959 316.014C485.09 315.966 485.233 315.959 485.369 315.994C485.505 316.029 485.626 316.105 485.717 316.212C485.808 316.318 485.864 316.45 485.878 316.59C485.892 316.729 485.863 316.869 485.795 316.991L483.529 321.046C483.462 321.164 483.433 321.299 483.444 321.434C483.455 321.569 483.505 321.698 483.59 321.804L486.469 325.45C486.556 325.56 486.606 325.694 486.615 325.835C486.623 325.975 486.588 326.114 486.515 326.234C486.441 326.353 486.333 326.448 486.204 326.504C486.075 326.56 485.933 326.575 485.795 326.548L481.24 325.647C481.107 325.622 480.97 325.636 480.845 325.689C480.721 325.741 480.615 325.829 480.54 325.942Z" fill="#A362B2"/>
<g opacity="0.1">
<path d="M71.9688 536.507C75.4748 539.399 81.2605 534.407 83.7203 531.927C87.4731 528.196 90.3169 523.651 92.0319 518.644C93.7518 513.641 93.9233 508.313 94.6828 503.122C95.3565 498.532 96.7194 493.87 101.335 491.878C106.019 489.857 111.577 490.359 116.55 490.211C122.632 490.01 128.697 489.437 134.709 488.493C146.506 486.656 158.028 483.352 169.005 478.656C181.396 473.349 192.998 466.366 203.489 457.903C205.477 456.31 205.119 452.95 203.489 451.288C201.558 449.313 198.834 449.721 196.871 451.288C178.416 465.996 156.008 475.642 132.753 479.466C127.05 480.388 121.292 480.93 115.518 481.088C110.027 481.252 104.253 481.007 99.007 482.911C87.3965 487.122 85.8481 498.259 84.9385 509.093C84.5233 514.685 82.7078 520.082 79.6606 524.788C78.0847 527.267 75.8153 529.524 73.7941 531.648C72.9452 532.54 70.2055 535.055 71.9676 536.509L71.9688 536.507Z" fill="#A362B2"/>
</g>
<g opacity="0.1">
<path d="M258.248 471.496C263.315 469.577 265.643 462.771 268.12 458.358C270.899 453.404 273.524 448.364 276.192 443.348C281.722 432.953 287.181 422.521 292.568 412.053C295.381 406.615 287.178 401.791 284.337 407.243C278.897 417.69 273.507 428.162 268.167 438.658C265.599 443.735 262.984 448.79 260.529 453.923C258.386 458.402 253.868 464.626 255.209 469.772C255.524 470.975 257.007 471.966 258.247 471.496H258.248Z" fill="#A362B2"/>
</g>
<g opacity="0.1">
<path d="M375.945 420.302C378.231 425.836 383.356 430.216 387.491 434.437C391.867 438.905 396.202 443.413 400.496 447.96C408.938 456.922 417.273 465.963 425.043 475.523C432.729 484.902 439.731 494.822 445.996 505.204C452.053 515.33 456.719 525.927 461.344 536.747C465.797 547.166 472.006 557.998 483.737 561.097C489.816 562.703 492.411 553.284 486.332 551.684C477.334 549.315 473.068 539.652 469.742 531.818C465.149 520.991 460.432 510.416 454.378 500.302C442.022 479.672 426.338 461.187 409.826 443.791C405.163 438.878 400.337 434.113 395.51 429.364C390.879 424.808 385.927 418.891 379.794 416.453C377.697 415.62 375.07 418.184 375.945 420.302Z" fill="#A362B2"/>
</g>
<g opacity="0.1">
<path d="M184.071 334.154C181.878 341.937 189.264 349.589 195.7 352.958C196.83 353.584 198.158 353.751 199.408 353.423C200.658 353.095 201.733 352.298 202.41 351.198C202.625 350.831 202.792 350.437 202.905 350.027C203.469 348.097 202.565 345.399 200.651 344.488C197.854 343.24 195.342 341.433 193.269 339.178C192.37 338.15 191.454 337.116 190.601 336.049C189.72 334.994 188.721 334.043 187.623 333.216C186.409 332.243 184.541 332.49 184.07 334.154L184.071 334.154Z" fill="#A362B2"/>
</g>
<g opacity="0.1">
<path d="M297.849 108.619C289.12 107.282 280.231 107.918 271.527 109.147C264.467 110.144 255.892 111.694 253.598 119.624C252.47 123.521 252.899 128.083 252.785 132.095C252.648 136.943 252.641 141.793 252.601 146.642C252.564 151.088 252.56 155.533 252.589 159.978C252.612 164.47 251.737 170.135 253.172 174.408C254.884 179.508 263.12 177.014 261.117 172.218L261.045 171.931C261.038 171.388 260.89 170.856 260.614 170.388C260.339 169.92 259.947 169.531 259.476 169.261C259.005 168.991 258.471 168.848 257.928 168.847C257.385 168.845 256.851 168.986 256.379 169.254L257.144 169.193L261.117 174.408C262.449 170.831 261.905 166.2 262.052 162.403C262.207 158.36 262.386 154.322 262.487 150.279C262.684 142.398 262.866 134.523 262.906 126.637C262.92 123.977 262.462 121.725 264.942 120.216C267.518 118.649 270.956 118.195 273.852 117.571C281.519 115.925 289.257 115.462 297.033 114.652C300.157 114.327 301.566 109.186 297.851 108.616L297.849 108.619Z" fill="#A362B2"/>
</g>
<g opacity="0.1">
<path d="M240.496 121.03C237.25 120.956 234.02 122.202 230.793 122.549C227.49 122.904 223.893 123.112 220.614 122.488V128.869C228.994 126.772 236.933 122.022 244.913 118.653C253.243 115.137 261.72 111.877 270.267 108.93C287.242 103.089 304.677 98.6842 322.39 95.7613C325.208 95.2946 326.78 91.8076 326.08 89.2627C325.26 86.2774 322.405 85.0977 319.582 85.573C301.51 88.5859 283.73 93.1429 266.437 99.1932C257.813 102.209 249.35 105.664 241.079 109.544C233.004 113.342 223.922 117.183 217.401 123.336C215.297 125.321 216.926 128.993 219.74 128.985C223.608 128.974 227.349 129.065 231.2 128.52C234.652 128.03 238.826 127.489 241.66 125.305C243.375 123.982 242.971 121.079 240.502 121.025L240.496 121.03Z" fill="#A362B2"/>
</g>
<g opacity="0.1">
<path d="M246.995 102.906C245.634 99.0474 243.395 95.7356 243.251 91.5173C243.146 89.6179 243.285 87.7131 243.666 85.8486C244.217 83.4298 245.307 81.3688 243.62 79.0609C242.55 77.597 240.982 76.7726 239.145 77.2399L238.631 77.371C237.841 77.5897 237.122 78.0092 236.543 78.588C235.965 79.1668 235.545 79.8859 235.326 80.6748C233.039 89.0109 234.397 101.369 242.229 106.57C244.518 108.09 247.925 105.548 246.995 102.906Z" fill="#A362B2"/>
</g>
</g>
</svg>
