<svg width="105" height="105" viewBox="0 0 105 105" fill="none" xmlns="http://www.w3.org/2000/svg">
<mask id="mask0_3_55" style="mask-type:luminance" maskUnits="userSpaceOnUse" x="8" y="8" width="89" height="89">
<path d="M96.1605 8.75H8.85938V96.25H96.1605V8.75Z" fill="white"/>
</mask>
<g mask="url(#mask0_3_55)">
<path d="M47.7253 86.8164C-0.646312 82.9851 16.2623 6.99285 62.368 21.5713C99.048 32.2121 85.2936 90.5705 47.7253 86.8164ZM48.992 81.914C79.5587 84.9628 91.8481 35.9719 61.963 26.3815C21.6798 12.0046 6.21647 79.5338 48.992 81.914Z" fill="#2C0D33"/>
<path d="M80.8409 27.8436C78.3202 27.7717 78.0464 25.0242 79.6221 23.5559C83.4822 19.2466 86.9987 14.5556 91.0769 10.4738C93.8455 8.93313 95.616 12.2919 93.4979 14.3215C89.9483 18.4633 86.385 22.5935 82.8266 26.7278C82.2742 27.3695 81.6478 27.8674 80.8409 27.8436Z" fill="#2C0D33"/>
<path d="M90.7377 95.3543C89.6072 95.3697 88.847 94.7188 88.163 93.9285C85.0954 90.3554 81.9682 86.8268 78.9279 83.2332C77.352 81.266 79.901 78.7108 81.8615 80.2765C85.3755 83.5778 88.4639 87.3417 91.7577 90.8665C93.2287 92.3604 93.3732 95.2463 90.7377 95.3543Z" fill="#2C0D33"/>
<path d="M25.3764 83.0602C23.712 86.9899 19.7467 89.3269 16.6762 92.0975C14.6348 93.8765 11.7476 92.0322 13.0482 89.556C15.5518 86.7084 18.6963 84.4205 21.4648 81.8217C22.7886 80.3851 25.2257 80.9114 25.3764 83.0602Z" fill="#2C0D33"/>
<path d="M14.2936 15.2233C14.9055 15.557 15.6241 15.779 16.1113 16.2435C18.5524 18.5713 20.9347 20.961 23.3317 23.3348C24.1448 24.0986 24.4955 25.3955 23.7717 26.2838C21.5944 28.8233 18.4567 24.4492 16.6456 23.1988C15.3135 21.7482 11.9362 19.7176 11.9102 17.7723C11.8589 16.3873 12.8102 15.3982 14.1931 15.4071C14.2264 15.3459 14.2601 15.2846 14.2936 15.2233Z" fill="#2C0D33"/>
<path d="M89.1081 42.4106C87.3577 42.5234 86.2563 40.5137 87.2588 39.1381C87.4462 38.8555 87.6899 38.5649 87.9781 38.4018C89.613 37.4769 91.2379 36.5243 92.9293 35.7123C95.3596 34.4809 97.4759 38.157 95.1144 39.5678C93.1768 40.5657 91.1828 41.7872 89.1081 42.4106Z" fill="#2C0D33"/>
<path d="M37.5749 11.25C37.4108 8.89934 40.6385 7.91725 41.6425 9.94666C42.4079 11.7626 43.076 13.6315 43.6135 15.5269C44.1912 17.6408 41.0508 18.994 40.0155 16.9882C39.183 15.1257 38.055 13.2152 37.5749 11.25Z" fill="#2C0D33"/>
<path d="M12.333 73.2593C10.1173 73.497 8.91263 70.8611 10.4818 69.5632C12.1636 68.5678 15.2501 66.2653 16.4149 69.0161C16.7688 69.9036 16.5236 70.951 15.6597 71.5258C14.5384 72.2719 13.4562 73.1503 12.333 73.2593Z" fill="#2C0D33"/>
<path d="M12.8042 47.1448C11.1499 46.7779 8.22444 46.1387 9.00687 43.6244C9.78681 41.2857 12.5197 42.1923 14.2077 42.9804C16.5984 44.1343 15.6493 47.2858 12.8042 47.1448Z" fill="#2C0D33"/>
<path d="M68.7554 93.5569C68.9043 95.8214 66.5648 97.0689 65.1314 95.639C63.7875 94.1165 62.0721 91.3585 64.6234 90.1053C67.0957 88.9785 68.1037 91.9641 68.7554 93.5569Z" fill="#2C0D33"/>
<path d="M69.2889 15.4655C68.9062 16.3371 68.6069 17.2594 68.1172 18.066C67.1797 19.7184 64.4108 18.9844 64.2412 17.1213C63.4037 12.6559 68.7225 11.1789 69.1 15.3829C69.163 15.4103 69.226 15.4379 69.2889 15.4655Z" fill="#2C0D33"/>
<path d="M91.2991 61.2905C92.8272 61.3769 95.3513 63.0861 94.3207 64.9808C93.4254 66.9175 91.1416 65.7729 89.756 65.0994C88.0113 63.9465 89.0372 61.1331 91.2991 61.2905Z" fill="#2C0D33"/>
<path d="M43.4043 93.543C43.5283 96.6596 38.9811 97.2768 38.8642 94.0355C38.7563 90.9211 43.276 90.2998 43.4043 93.543Z" fill="#2C0D33"/>
<path d="M48.9925 81.9143C6.21163 79.5243 21.6863 12.0041 61.9649 26.3846C91.8472 35.9747 79.5592 84.9671 48.9925 81.9143ZM48.4588 64.3594C44.7858 63.2741 44.2814 61.768 41.7627 59.377C39.2694 57.69 36.2609 60.7007 37.5728 63.3365C40.1274 67.5413 44.8096 69.9749 49.6039 70.585C49.9172 70.6244 50.3853 70.8555 50.4634 71.0995C51.2869 72.9426 51.0408 76.3234 53.3188 76.9647C56.9364 76.9769 55.1979 72.7189 54.7089 70.6204C55.4814 70.4796 56.1794 70.3521 56.8751 70.2253C57.2173 71.6189 57.5383 72.9545 57.8747 74.2863C58.7036 77.2149 62.98 75.917 62.1318 72.9823C61.8593 71.769 61.6054 70.549 61.2635 69.355C61.1003 68.7852 61.2802 68.4806 61.7234 68.2078C69.5137 64.059 70.0984 50.8538 60.4255 48.8147C58.9857 48.5282 57.5092 48.4251 55.9739 48.2294C55.438 46.0344 54.858 43.658 54.313 41.4243C58.021 45.9394 62.0481 41.5069 58.9554 38.3438C57.3933 36.5455 55.371 35.4424 53.0878 34.7886C51.2953 33.494 52.9128 27.733 49.1165 28.4498C48.2172 28.7107 47.7068 29.384 47.7356 30.3153C47.7782 31.6855 47.9139 33.0526 48.0159 34.5046C47.5403 34.6164 46.9289 34.7602 46.2606 34.9173C45.5617 33.0703 46.065 29.3294 43.7036 28.8736C38.5916 28.6243 41.6146 34.0757 42.2708 36.8539C33.307 42.8797 34.1873 55.7449 46.4609 55.8775C47.1183 58.6679 47.7701 61.4349 48.4588 64.3594Z" fill="#6F2680"/>
<path d="M48.4589 64.3593C47.7701 61.4349 47.1183 58.6678 46.4611 55.8776C34.1778 55.7431 33.3156 42.8709 42.2711 36.854C41.615 34.0775 38.5921 28.6232 43.7039 28.874C45.9359 29.1474 45.6251 33.1329 46.2608 34.9174C46.9291 34.7603 47.5406 34.6165 48.0162 34.5047C47.9142 33.0526 47.7785 31.6856 47.736 30.3155C47.707 29.3841 48.2175 28.7108 49.1167 28.4499C52.9174 27.738 51.2932 33.4906 53.0879 34.789C55.3713 35.4425 57.3937 36.5458 58.9558 38.344C62.0454 41.5028 58.0255 45.9436 54.3132 41.4244C54.8581 43.6576 55.4384 46.0349 55.9742 48.2295C57.5096 48.4253 58.9862 48.5283 60.4261 48.8149C70.1012 50.8594 69.5133 64.0564 61.7234 68.208C61.2804 68.4808 61.1005 68.7853 61.2638 69.3551C61.6058 70.5491 61.8598 71.7691 62.1322 72.9825C63.0248 75.8932 58.6654 77.2018 57.8748 74.2863C57.5385 72.9547 57.2176 71.619 56.8753 70.2254C56.1796 70.3522 55.4816 70.4797 54.7092 70.6206C55.202 72.7191 56.9346 76.9782 53.319 76.9648C51.04 76.3211 51.2867 72.9431 50.4634 71.0997C50.3855 70.8556 49.9173 70.6246 49.6041 70.5851C44.8104 69.9756 40.127 67.5411 37.5728 63.3366C36.266 60.7089 39.2598 57.6859 41.7628 59.3775C44.292 61.7781 44.7793 63.2687 48.4589 64.3593ZM55.5527 64.5821C54.4721 61.4798 53.9655 58.3639 53.0991 55.2164C52.731 54.5323 51.4782 55.2374 50.7917 55.2716C51.4928 58.5914 52.193 61.6339 53.0072 64.9159C53.8334 64.8075 54.6251 64.7037 55.5527 64.5821ZM59.6 62.4897C62.9546 60.1966 62.4379 53.8021 57.532 54.4113C58.2168 57.087 58.8996 59.754 59.6 62.4897ZM51.603 49.1471C50.8726 46.0451 50.1512 42.981 49.4127 39.845C48.7744 39.9785 48.1649 40.106 47.4654 40.2523C48.1678 43.4006 48.8546 46.4795 49.5454 49.5756C50.3043 49.4175 50.9284 49.2876 51.603 49.1471ZM45.1235 49.8087C44.6421 47.6513 44.1707 45.5389 43.6487 43.2007C42.0353 45.683 40.8403 49.3433 45.1235 49.8087Z" fill="#2C0D33"/>
<path d="M55.552 64.5819C54.6244 64.7035 53.8327 64.8073 53.0064 64.9157C52.1922 61.6336 51.4921 58.5914 50.791 55.2716C51.4745 55.2358 52.7335 54.5345 53.0985 55.2161C53.9652 58.3648 54.4712 61.4785 55.552 64.5819Z" fill="#6F2680"/>
<path d="M59.6002 62.4898C58.8998 59.754 58.2172 57.087 57.5322 54.4113C62.44 53.802 62.9532 60.1985 59.6002 62.4898Z" fill="#6F2680"/>
<path d="M51.603 49.1471C50.9284 49.2876 50.3042 49.4176 49.5452 49.5755C48.8545 46.4794 48.1677 43.4006 47.4653 40.2522C48.1647 40.1059 48.7743 39.9785 49.4125 39.845C50.151 42.9812 50.8726 46.0451 51.603 49.1471Z" fill="#6F2680"/>
<path d="M45.1234 49.8086C40.8392 49.3427 42.0357 45.6825 43.6485 43.2006C44.1703 45.5388 44.6418 47.651 45.1234 49.8086Z" fill="#6F2680"/>
</g>
</svg>
