<svg width="105" height="105" viewBox="0 0 105 105" fill="none" xmlns="http://www.w3.org/2000/svg">
<path d="M52.002 76.8263C44.5087 76.8263 37.0144 76.9007 29.5227 76.7896C22.4463 76.839 12.9959 75.9218 12.8307 66.863C12.3493 57.745 10.534 48.5214 12.1608 39.4322C13.2937 32.3635 20.1443 30.4922 26.4177 30.7397C37.8609 30.7298 49.2911 30.4004 60.7178 29.7879C69.8299 30.2468 87.8458 25.5657 91.7194 36.5852C93.1622 41.4082 92.9243 46.5058 93.3481 51.4765C93.5059 60.3267 93.5087 74.0954 82.4911 76.0893C72.4056 77.8675 62.175 76.682 52.0016 77.0179C52.0019 76.9541 52.0019 76.8902 52.002 76.8263ZM46.4429 71.43C46.4428 71.4285 46.4428 71.427 46.4427 71.4256C56.849 71.4256 67.2552 71.4331 77.6615 71.4218C84.8885 71.7081 88.341 64.0843 88.0152 57.8151C88.4378 50.5225 87.6425 43.239 85.5794 36.2184C84.0783 34.2308 78.4397 34.0573 76.0258 34.0477C58.7485 34.6945 41.468 35.3645 24.1801 35.6801C22.0402 35.9826 19.1714 35.9506 18.0847 38.2034C16.9377 40.3855 16.766 42.7722 16.8155 45.1239C16.9182 49.9918 17.192 54.8578 17.4806 59.7195C17.6304 62.2428 17.9371 64.7581 18.2191 67.2717C18.4336 69.1829 19.5887 70.3652 21.4152 70.7373C29.6522 72.1642 38.1162 71.152 46.4429 71.43Z" fill="#2C0D33"/>
<path d="M52.2322 14.3802C52.2322 11.9586 52.207 9.5367 52.2407 7.11569C52.3118 3.43927 57.5139 3.56778 57.4674 7.32591C57.4862 12.0045 57.4902 16.6857 57.3167 21.3619C57.3499 24.9803 52.3093 25.2521 52.2503 21.6446C52.2225 19.2234 52.2431 16.8016 52.2431 14.3802C52.2394 14.3802 52.2358 14.3802 52.2322 14.3802Z" fill="#2C0D33"/>
<path d="M55.3593 91.9451C55.3288 94.0397 55.4264 96.1445 55.3125 98.2348C54.9562 101.474 50.3936 101.288 50.2877 98.0387C50.1005 94.1219 50.079 90.1991 49.9857 86.2794C49.9457 84.5234 50.8208 83.2372 52.2154 83.0321C56.7929 82.6986 55.023 89.0766 55.3372 91.9451C55.3445 91.9451 55.352 91.9451 55.3593 91.9451Z" fill="#2C0D33"/>
<path d="M39.7812 27.9636C38.4085 27.5799 37.3534 26.7493 36.3708 25.7485C34.8186 24.3427 33.2855 22.9157 31.7203 21.5248C28.6444 19.2613 31.9269 14.7089 35.0251 17.3871C37.3242 19.5895 39.8846 21.6428 41.8174 24.1806C42.806 25.8151 41.7024 27.8076 39.7812 27.9636Z" fill="#2C0D33"/>
<path d="M64.1083 80.0427C66.9837 81.1326 69.066 83.5692 71.487 85.3916C74.0745 87.4018 71.219 91.0619 68.6238 89.1343C66.6043 87.7089 64.6224 86.227 62.6685 84.7123C60.6583 83.1773 61.6575 80.2533 64.1083 80.0427Z" fill="#2C0D33"/>
<path d="M66.1363 26.9516C63.5854 26.7904 62.9987 23.732 64.9346 22.3802C66.6734 20.9436 68.4475 19.549 70.2184 18.1513C70.9867 17.5448 71.853 17.2782 72.8142 17.6121C74.6573 18.2525 75.0228 20.5429 73.4454 21.8939C71.0903 23.6648 68.9222 25.8842 66.1363 26.9516Z" fill="#2C0D33"/>
<path d="M38.4828 80.803C44.9973 82.4438 37.6352 88.2756 34.4671 89.2499C33.389 89.6982 32.2384 89.0699 31.6749 88.0981C31.1199 87.1406 31.166 85.8391 32.0545 85.0883C33.6916 83.7048 35.4359 82.4449 37.1743 81.1871C37.5215 80.936 38.0422 80.9248 38.4828 80.803Z" fill="#2C0D33"/>
<path d="M46.443 71.4303C38.1158 71.1528 29.6529 72.1641 21.4152 70.7382C19.5888 70.3656 18.4337 69.1833 18.2192 67.2722C17.9371 64.7585 17.6306 62.2432 17.4807 59.7199C17.1921 54.8582 16.9183 49.9922 16.8156 45.1243C16.766 42.7725 16.9377 40.3858 18.0848 38.2039C19.1642 35.9483 22.0475 35.986 24.1801 35.6805C41.4681 35.365 58.7487 34.6948 76.0258 34.0481C78.504 34.059 84.0373 34.229 85.5799 36.2185C87.6412 43.2398 88.4391 50.5226 88.0151 57.8156C88.3374 64.0824 84.8927 71.7116 77.6614 71.4219C67.2553 71.4333 56.8491 71.4259 46.4429 71.4259C46.4429 71.4274 46.4429 71.4289 46.443 71.4303ZM40.3396 51.3327C48.0165 41.2606 26.9693 33.0828 26.4107 45.5601C26.7615 50.6633 26.7962 55.7787 26.9023 60.8908C27.2621 64.9311 32.1527 64.0817 35.0458 64.2447C41.3642 64.2416 45.3883 56.62 40.3396 51.3327ZM43.3112 51.7222C43.4151 53.4111 43.4359 54.7475 43.5909 56.0682C43.7325 62.4611 51.8595 68.4874 56.7839 62.6016C61.2277 57.2828 60.2196 49.9063 59.9491 43.4746C59.9203 40.2475 55.4932 40.2363 55.6569 43.5356C55.8234 48.866 57.0937 55.1055 53.7114 59.7037C52.6122 60.9123 51.5696 61.0109 50.263 60.0311C46.2812 57.1774 48.2721 47.1799 48.1205 42.6222C48.3437 39.948 44.9078 39.3479 44.3279 42.0281C43.5355 45.1411 43.6322 48.8135 43.3112 51.7222ZM69.5541 48.7758C67.7362 45.9276 66.2618 43.431 64.4931 40.713C62.6394 37.9984 59.4263 40.4813 61.0797 43.1192C62.87 46.0115 64.5912 48.951 66.4986 51.7641C67.089 52.6348 67.2776 53.411 67.2376 54.3881C67.1182 57.298 67.0263 60.2097 66.9742 63.1217C66.9525 64.3406 67.808 65.2192 68.8933 65.2455C70.0155 65.2726 70.8452 64.4896 70.8977 63.2304C71.0271 60.13 71.1357 57.0282 71.1949 53.9258C71.2092 53.177 71.301 52.5963 71.9558 52.1068C74.4136 49.4951 75.872 46.0142 77.89 43.0499C79.1718 41.0811 76.7219 38.73 74.9274 40.4135C72.9286 43.1379 71.6246 46.0001 69.5541 48.7758Z" fill="#6F2680"/>
<path d="M40.3397 51.3324C45.3887 56.6195 41.3641 64.2415 35.046 64.2445C32.1557 64.0848 27.259 64.9298 26.9024 60.8905C26.7964 55.7785 26.7617 50.6629 26.4111 45.5598C26.9685 33.0848 48.0175 41.2576 40.3397 51.3324ZM30.5183 54.125C30.8903 60.0708 28.7087 59.6485 35.2405 59.8016C38.4171 59.9012 39.682 54.7417 36.2392 54.1653C34.4243 53.9883 32.5785 54.125 30.5183 54.125ZM30.6687 49.7694C32.4276 49.5574 34.0898 49.3895 35.739 49.1359C40.8637 47.4335 34.8431 42.2771 31.6712 43.8736C31.2746 44.0246 30.7359 44.4778 30.7138 44.8208C30.6116 46.4059 30.6687 48.0013 30.6687 49.7694Z" fill="#2C0D33"/>
<path d="M43.311 51.722C43.6318 48.8133 43.5355 45.1409 44.3276 42.0278C44.9105 39.3524 48.341 39.9433 48.1206 42.6221C48.2688 47.1624 46.2871 57.198 50.2626 60.031C51.5695 61.0107 52.6121 60.9122 53.711 59.7036C57.0939 55.1039 55.8225 48.8676 55.657 43.5355C55.4892 40.2428 59.9232 40.2421 59.9489 43.4746C60.2201 49.9041 61.2274 57.2849 56.7835 62.6019C51.8588 68.4837 43.7325 62.4639 43.5913 56.0678C43.4357 54.7473 43.4149 53.4108 43.311 51.722Z" fill="#2C0D33"/>
<path d="M69.5541 48.7758C71.6243 46.001 72.9294 43.1368 74.9272 40.4133C76.7144 38.7362 79.1776 41.0739 77.8894 43.0498C75.8722 46.0141 74.4132 49.4954 71.956 52.1071C71.3008 52.5964 71.2091 53.1771 71.1949 53.9259C71.1357 57.0283 71.0271 60.1301 70.8977 63.2305C70.8452 64.4895 70.0155 65.2726 68.8933 65.2455C67.8081 65.2193 66.9524 64.3408 66.9742 63.1218C67.0262 60.2099 67.1182 57.2982 67.2376 54.3882C67.2777 53.411 67.0889 52.6348 66.4985 51.7642C64.5911 48.9509 62.87 46.0115 61.0795 43.1192C59.431 40.4874 62.6331 37.9928 64.4931 40.7131C66.2622 43.4317 67.736 45.9274 69.5541 48.7758Z" fill="#2C0D33"/>
<path d="M30.5184 54.1253C32.5785 54.1253 34.4244 53.9886 36.2395 54.1658C39.6808 54.7426 38.4186 59.9014 35.2406 59.802C28.7064 59.6509 30.891 60.064 30.5184 54.1253Z" fill="#6F2680"/>
<path d="M30.6687 49.7694C30.6687 48.0014 30.6116 46.4059 30.7139 44.8208C30.736 44.4779 31.2747 44.0246 31.6713 43.8733C34.8442 42.2778 40.8636 47.4334 35.739 49.1361C34.0899 49.3895 32.4276 49.5572 30.6687 49.7694Z" fill="#6F2680"/>
</svg>
