<svg width="105" height="105" viewBox="0 0 105 105" fill="none" xmlns="http://www.w3.org/2000/svg">
<path d="M21.1012 64.8734C21.5578 63.2632 21.9063 61.9534 22.2908 60.6557C22.4831 60.0188 22.6633 59.3579 22.9758 58.7812C23.7928 57.2671 25.4871 56.5822 27.0252 57.0508C28.6113 57.5435 29.6567 59.1056 29.4164 60.8359C29.2723 61.8452 28.9718 62.8306 28.6834 63.8039C27.8543 66.6037 27.0492 69.4275 26.112 72.1912C25.7154 73.3448 25.1026 74.4503 24.3697 75.4356C23.0718 77.19 21.3656 77.4784 19.2868 76.8895C17.6766 76.433 15.9583 76.3489 14.288 76.1085C12.089 75.8081 9.87805 75.5317 7.67908 75.2194C5.58826 74.9189 4.26647 73.3448 4.49478 71.4463C4.71107 69.6317 6.22511 68.4422 8.31594 68.6345C10.1424 68.8027 11.9449 69.1391 13.7593 69.3914C14.1078 69.4396 14.4442 69.4756 14.9729 69.5476C14.8288 69.0791 14.7567 68.7306 14.6124 68.3942C12.2212 62.4461 11.7165 56.2217 11.8727 49.8891C11.9929 45.0346 12.5336 40.2521 14.1439 35.6379C17.0037 27.4428 22.459 21.4107 29.7769 16.9407C36.2897 12.9632 43.3072 10.2956 50.9014 9.6708C59.7935 8.92579 68.1808 10.7643 75.5707 16.0635C76.7604 16.9166 77.8779 17.95 78.8271 19.0675C79.404 19.7404 79.8245 20.7377 79.8966 21.6149C80.0648 23.9221 77.7097 25.328 75.6549 24.2344C75.2824 24.0422 74.946 23.7779 74.6335 23.4895C70.0073 19.2838 64.4318 17.2651 58.3515 16.5681C49.2672 15.5348 41.1563 18.4546 33.538 23.0689C24.7421 28.3921 20.0438 36.2507 19.3228 46.5006C18.9143 52.2683 18.9022 58 20.6325 63.5996C20.7287 63.9361 20.8609 64.2365 21.1012 64.8734Z" fill="#6F2680"/>
<path d="M86.9384 39.1105C86.7342 40.216 86.5298 41.3215 86.3136 42.427C86.2295 42.8355 86.1334 43.2561 85.9891 43.6526C85.4724 45.0826 84.2828 45.8996 82.9249 45.7795C81.6272 45.6714 80.4616 44.7221 80.3535 43.2441C80.2093 41.2133 80.2934 39.1585 80.4497 37.1279C80.6059 35.061 80.9543 32.9943 81.2428 30.9394C81.6993 27.6109 83.6459 25.7605 86.9744 26.0849C90.6875 26.4454 94.3645 27.1424 98.0294 27.8753C99.9159 28.2598 100.889 30.0503 100.541 31.8407C100.204 33.547 98.6662 34.6885 96.7677 34.5203C95.5781 34.4122 94.4125 34.1478 93.0547 33.9315C93.283 34.5323 93.4512 35.013 93.6435 35.4816C95.8664 40.8048 97.3564 46.3442 97.2723 52.124C97.0802 65.9908 91.5045 77.3221 80.6419 85.9498C74.0691 91.1768 66.619 94.4453 58.1956 95.2984C48.4264 96.2957 39.282 94.6976 31.1711 88.8217C30.318 88.2088 29.5249 87.4878 28.828 86.6948C27.5903 85.3009 27.5782 83.4985 28.6717 82.2608C29.7772 81.0111 31.5316 80.8549 33.0937 81.8642C33.274 81.9844 33.4422 82.1046 33.6104 82.2367C40.3034 87.5119 47.9578 89.3263 56.3571 88.6173C67.0275 87.7162 75.6071 82.8375 82.3121 74.7266C87.7435 68.1537 90.5193 60.4513 90.315 51.8357C90.1828 47.3896 88.6327 43.2321 86.9384 39.1105Z" fill="#6F2680"/>
<path d="M42.1055 61.3168C44.2925 61.3168 46.3232 61.3047 48.366 61.3168C49.3153 61.3288 50.2766 61.3047 51.2138 61.4609C52.9562 61.7614 54.0738 63.2273 53.9656 64.9337C53.8694 66.5679 52.6077 67.9858 50.9014 68.0218C46.7438 68.1059 42.5862 68.0579 38.4285 68.0338C37.9479 68.0338 37.4433 67.9017 36.9746 67.7694C33.574 66.8322 32.2882 63.744 34.1508 60.74C35.6048 58.4088 37.263 56.1979 38.8011 53.9148C40.6516 51.163 42.5381 48.4353 44.3045 45.6235C45.1216 44.3258 45.7704 42.8839 46.3112 41.4419C46.8399 40.024 46.143 39.1949 44.6289 39.1949C43.3312 39.1829 42.1175 39.5794 41.2885 40.5406C40.3752 41.5861 39.6422 42.7998 38.9092 43.9893C38.5127 44.6383 38.3324 45.4313 37.96 46.1042C37.3111 47.2938 36.1575 47.7984 34.9318 47.4981C33.8264 47.2337 32.9612 46.1883 32.9131 44.9386C32.7449 40.769 34.7636 37.6328 37.8518 35.1213C40.3031 33.1267 43.175 32.2135 46.3593 32.8023C51.382 33.7275 54.3141 38.2095 52.8841 43.1242C52.2353 45.3592 51.1658 47.5342 49.9402 49.5289C47.7772 53.0736 45.3499 56.4742 43.0308 59.9349C42.7424 60.3795 42.442 60.8121 42.1055 61.3168Z" fill="#6F2680"/>
<path d="M59.0487 53.2537C60.9231 53.1577 62.5694 53.0976 64.2156 52.9293C64.468 52.9053 64.8044 52.3285 64.8405 51.9801C65.1049 49.5288 65.2611 47.0654 65.5374 44.6141C65.7296 42.9079 66.8352 41.8023 68.265 41.6942C69.659 41.5861 70.8366 42.3671 71.2091 43.761C71.3893 44.4339 71.4614 45.1549 71.4374 45.8518C71.3653 48.0267 71.2331 50.2137 71.1129 52.4367C71.3292 52.4727 71.5335 52.5088 71.7378 52.5208C73.5883 52.653 74.922 53.8306 75.0543 55.4648C75.1984 57.2191 74.0209 58.6732 72.1463 59.0576C70.4761 59.4061 70.4881 59.4061 70.3919 61.1125C70.3439 61.9175 70.2598 62.7346 70.1757 63.5397C69.9834 65.3662 68.5655 66.6519 66.8592 66.5678C65.2009 66.4957 63.9633 65.1138 63.9873 63.2633C63.9993 62.1338 64.1075 61.0163 64.1796 59.8146C63.4226 59.8146 62.6536 59.8146 61.8844 59.8146C59.8777 59.8027 57.859 59.9107 55.8643 59.7425C51.935 59.4181 50.1686 56.1858 52.1153 52.7732C55.624 46.6569 59.2409 40.6007 62.8698 34.5445C63.4105 33.6553 64.1195 32.8262 64.9006 32.1293C65.958 31.156 67.388 31.1079 68.4093 31.8409C69.4667 32.5859 69.8753 33.8837 69.3826 35.2414C69.0822 36.0586 68.6376 36.8396 68.193 37.5966C65.3452 42.4272 62.4853 47.2577 59.6254 52.0762C59.4572 52.3886 59.3251 52.7131 59.0487 53.2537Z" fill="#6F2680"/>
</svg>
