<svg width="105" height="105" viewBox="0 0 105 105" fill="none" xmlns="http://www.w3.org/2000/svg">
<mask id="mask0_3_2" style="mask-type:luminance" maskUnits="userSpaceOnUse" x="9" y="8" width="87" height="89">
<path d="M95.2524 8.75H9.73438V96.25H95.2524V8.75Z" fill="white"/>
</mask>
<g mask="url(#mask0_3_2)">
<path d="M46.6584 96.2479C46.1643 96.2479 45.6703 96.2479 45.1763 96.2479C45.0354 96.2266 44.8944 96.2016 44.7527 96.1847C43.8756 96.0797 42.9873 96.0306 42.1218 95.861C40.0621 95.4587 38.9852 94.053 39.1482 92.0153C39.2142 91.1865 39.3442 90.3614 39.4719 89.5393C39.6642 88.3038 39.88 87.0714 40.087 85.8309C38.2372 85.408 36.3778 84.9822 34.5912 84.5734C34.4745 85.4755 34.376 86.3821 34.2366 87.2821C34.0706 88.3582 33.9254 89.4424 33.6713 90.4988C33.2882 92.0902 32.372 93.2668 30.6925 93.6045C30.0004 93.744 29.2464 93.7712 28.5513 93.6588C27.114 93.4262 25.6818 93.1222 24.2747 92.7457C21.5791 92.0241 20.274 90.1992 20.4326 87.4157C20.5302 85.6987 20.8121 84.0052 21.3186 82.355C21.6086 81.4104 21.9947 80.5081 22.5342 79.6662C22.4747 79.6214 22.4359 79.5884 22.394 79.5613C19.5311 77.7121 17.3121 75.2383 15.482 72.3976C12.1193 67.1776 10.348 61.4306 9.85329 55.2668C9.81513 54.7874 9.77401 54.3081 9.73438 53.8295C9.73438 52.8825 9.73438 51.9356 9.73438 50.9894C9.75126 50.8793 9.77842 50.7692 9.78283 50.6583C9.85036 49.0016 10.0449 47.3594 10.3591 45.732C11.1628 41.5692 12.697 37.7168 15.2324 34.2895C15.3081 34.1875 15.3404 34.0025 15.3074 33.8792C14.9205 32.4353 14.6511 30.9664 14.5696 29.4778C14.4676 27.6206 14.4199 25.7591 14.4126 23.8989C14.3942 19.4454 14.8471 15.0322 15.6523 10.6535C15.8022 9.83798 16.2755 9.31018 17.0251 9.00774C17.2233 8.92774 17.4339 8.87928 17.6387 8.81616C17.8853 8.81616 18.1327 8.81616 18.3794 8.81616C19.1656 8.95636 19.7227 9.44304 20.2124 10.031C20.2387 10.0626 20.2682 10.092 20.2961 10.1213C23.3746 13.3548 26.4526 16.5898 29.5334 19.822C30.5215 20.8592 31.4846 21.9155 32.1614 23.1935C32.2642 23.3873 32.378 23.3175 32.5166 23.2742C33.6926 22.905 34.8598 22.5071 36.0467 22.179C38.4897 21.503 40.9723 21.039 43.5085 20.9054C44.1758 20.8702 44.8459 20.879 45.5095 20.8151C47.1157 20.661 48.7181 20.4694 50.3242 20.3108C50.5629 20.2874 50.7486 20.2271 50.9276 20.0649C53.5754 17.6741 56.483 15.6576 59.6695 14.05C59.9676 13.8995 60.2979 13.785 60.626 13.727C61.9533 13.4936 63.0771 14.2482 63.251 15.4785C63.5109 17.3107 63.7591 19.1436 64.0035 20.9781C64.0269 21.155 64.0975 21.2196 64.267 21.249C64.6311 21.3121 64.9915 21.3972 65.3527 21.4772C69.8334 22.4682 74.1151 23.9988 78.1319 26.2332C82.9415 28.9081 87.0435 32.3853 90.1521 36.963C92.9959 41.1507 94.7276 45.7467 95.1394 50.8147C95.1709 51.2023 95.2142 51.5892 95.2524 51.9767C95.2524 52.8208 95.2524 53.6643 95.2524 54.5085C95.1922 55.1405 95.1379 55.7733 95.0718 56.4053C94.6894 60.0837 93.6521 63.5726 92.013 66.8833C90.0501 70.8465 87.3283 74.2217 84.0103 77.127C83.8216 77.2923 83.7577 77.4581 83.7541 77.7063C83.7394 78.8169 83.732 79.9298 83.6594 81.0374C83.5559 82.6179 83.4326 84.1976 83.2528 85.7706C83.1294 86.8489 82.9525 87.9296 82.6948 88.9828C82.4203 90.1031 81.731 90.9472 80.6468 91.4229C79.9282 91.7378 79.1691 91.8493 78.3918 91.8619C76.826 91.8883 75.3073 91.5587 73.784 91.2577C73.1594 91.1345 72.7336 90.771 72.5501 90.1794C72.44 89.8241 72.3886 89.4314 72.407 89.0599C72.4488 88.2187 72.5627 87.3812 72.625 86.54C72.6845 85.7427 72.7153 84.9426 72.7615 84.1043C72.0862 84.3642 71.4446 84.6057 70.8097 84.8626C70.7502 84.8869 70.7039 85.0043 70.6958 85.0829C70.5821 86.2595 70.4919 87.4391 70.3626 88.6144C70.2504 89.6377 70.0712 90.6507 69.6367 91.5969C68.8548 93.3006 67.5482 94.2785 65.6558 94.3386C64.5789 94.3724 63.4955 94.3165 62.4193 94.2453C61.6596 94.1954 60.9153 94.0208 60.2312 93.6552C59.4655 93.2456 58.9751 92.6195 58.97 91.7445C58.9642 90.6984 59.0427 89.6509 59.1147 88.6063C59.1454 88.1622 59.2534 87.7233 59.3172 87.3364C56.6474 87.3364 54.0026 87.3364 51.4525 87.3364C51.2682 88.5975 51.1258 89.8123 50.9056 91.0119C50.6994 92.1335 50.4145 93.2405 49.8684 94.2585C49.3582 95.2092 48.5809 95.8177 47.5297 96.068C47.2405 96.1363 46.9483 96.1885 46.6584 96.2479ZM42.4383 26.924C42.1865 26.695 41.931 26.4476 41.658 26.2222C41.5698 26.1495 41.426 26.082 41.3232 26.1003C40.4137 26.2655 39.5012 26.4241 38.602 26.6347C33.7961 27.7615 29.3316 29.7031 25.1232 32.2694C22.7925 33.6905 20.8378 35.4919 19.3256 37.7646C16.8738 41.451 15.7492 45.561 15.4769 49.9367C15.2817 53.0778 15.5481 56.1851 16.2198 59.2571C16.9766 62.7204 18.2113 65.9943 20.1756 68.9644C21.9183 71.5981 24.0882 73.7797 26.9327 75.2295C28.6048 76.0817 30.3805 76.6661 32.1511 77.2702C38.8854 79.5678 45.7761 81.0235 52.911 81.2158C57.0101 81.3266 61.0738 81.0639 65.0767 80.1309C71.943 78.5306 77.8075 75.1788 82.5437 69.9458C86.2579 65.8416 88.5255 61.0526 89.0364 55.4936C89.3865 51.6816 88.8074 48.0077 87.3246 44.4834C85.5151 40.1811 82.5921 36.7567 78.9035 33.957C75.1612 31.1169 70.9573 29.2201 66.4515 27.9567C65.893 27.8004 65.3291 27.6624 64.7691 27.5164C64.6861 27.7799 64.7765 27.8863 64.9915 27.9612C65.5641 28.1594 66.1323 28.3715 66.6952 28.5954C69.6329 29.7655 72.4371 31.2057 75.1553 32.8177C75.6303 33.0997 75.9672 33.4872 76.0479 34.0465C76.1697 34.8892 75.8608 35.5712 75.1796 36.0579C74.516 36.5328 73.8318 36.4418 73.1557 36.0374C71.0813 34.7967 68.9518 33.659 66.7415 32.6776C66.199 32.4367 65.6493 32.2122 65.07 31.9654C65.0847 32.2921 65.1119 32.5682 65.1074 32.8434C65.0957 33.6575 64.6223 34.2858 63.8582 34.4782C63.0499 34.6815 62.3349 34.4826 61.711 33.932C61.468 33.7177 61.3792 33.4755 61.4211 33.1422C61.714 30.8028 61.609 28.4589 61.4526 26.1165C61.3285 24.2483 61.1707 22.3831 61.0577 20.5141C60.9696 19.054 59.6454 18.3135 58.3718 19.038C56.2686 20.2338 54.3542 21.6813 52.6035 23.3483C50.1003 25.7318 48.0245 28.4611 46.1034 31.321C45.3532 32.4383 45.7547 33.5965 46.5188 34.2521C46.5857 34.3093 46.651 34.3681 46.72 34.429C45.9947 34.9876 44.8599 35.017 43.874 34.4517C42.4559 33.6384 41.8297 32.4551 42.337 30.788C42.2445 30.8079 42.1857 30.8196 42.1285 30.8335C40.8813 31.1397 39.64 31.4715 38.3862 31.746C37.0759 32.033 35.7488 32.1887 34.4033 32.0293C33.9268 31.9729 33.5524 31.7593 33.3983 31.2872C33.2405 30.8028 33.4167 30.3975 33.7852 30.0716C33.9158 29.9563 34.0611 29.8572 34.2057 29.7581C35.676 28.7488 37.3255 28.1535 39.0352 27.7138C40.1663 27.4246 41.31 27.1845 42.4383 26.924ZM19.8813 29.5732C22.3536 27.5904 25.176 26.3088 27.964 25.0653C25.2304 22.2106 22.5071 19.3669 19.7521 16.4893C19.247 18.4353 19.3418 27.3226 19.8813 29.5732ZM30.2176 83.3108C28.6188 82.6597 27.0546 82.0225 25.4778 81.3809C25.3669 81.9579 25.2466 82.5599 25.1365 83.1632C24.9478 84.2034 24.7429 85.2413 24.5859 86.286C24.3811 87.6476 24.9221 88.3127 26.2882 88.4838C27.0912 88.5843 27.8899 88.7179 28.6915 88.8325C28.7906 88.8463 28.8934 88.8346 29.0291 88.8346C29.1246 88.16 29.2259 87.5016 29.3103 86.841C29.4644 85.6209 29.5275 84.3796 30.2176 83.3108ZM78.9387 80.9729C78.8146 80.9949 78.7816 80.9927 78.7573 81.0059C77.8742 81.5087 76.989 82.0085 76.1133 82.5231C76.0281 82.573 75.9525 82.7126 75.9481 82.8139C75.8989 83.9634 75.857 85.1129 75.8299 86.2632C75.8218 86.6177 75.8659 86.9731 75.8872 87.3445C76.7644 87.3445 77.6019 87.3445 78.4968 87.3445C78.6428 85.2334 78.7889 83.1258 78.9387 80.9729ZM62.2175 89.9225C62.7953 89.9225 63.3384 89.9086 63.8801 89.9262C64.4314 89.9445 64.982 89.9952 65.5501 90.0326C65.8518 89.5878 66.1762 87.144 66.0376 86.272C64.9379 86.468 63.8383 86.6618 62.7394 86.8644C62.6778 86.8754 62.5955 86.951 62.5801 87.0105C62.3423 87.9376 62.1675 88.8728 62.2175 89.9225ZM43.59 91.1088C44.2146 91.1822 44.7666 91.2314 45.3135 91.3179C45.6204 91.3663 45.7385 91.2409 45.7965 90.9678C45.9543 90.2154 46.1503 89.4703 46.2789 88.7128C46.3809 88.1123 46.4066 87.4979 46.4668 86.8827C45.6204 86.7631 44.8305 86.6507 44.0502 86.5407C43.8961 88.069 43.7449 89.5753 43.59 91.1088Z" fill="#2C0D33"/>
<path d="M42.4385 26.9239C41.3094 27.1845 40.1666 27.4238 39.0361 27.7152C37.3272 28.1549 35.6777 28.7502 34.2067 29.7595C34.0628 29.8586 33.9168 29.957 33.7861 30.073C33.4176 30.3997 33.2414 30.8048 33.3992 31.2886C33.5534 31.7606 33.9271 31.9742 34.4042 32.0307C35.7497 32.19 37.0768 32.0344 38.3872 31.7474C39.6409 31.4729 40.8822 31.141 42.1294 30.8349C42.1874 30.821 42.2454 30.8093 42.3379 30.7894C41.8306 32.4557 42.4576 33.639 43.8751 34.4531C44.8608 35.0184 45.9957 34.989 46.721 34.4304C46.652 34.3695 46.5867 34.3107 46.5198 34.2534C45.7556 33.5979 45.3541 32.4389 46.1043 31.3224C48.0254 28.4617 50.1013 25.7332 52.6045 23.3497C54.3553 21.6827 56.2696 20.2351 58.3727 19.0393C59.6463 18.3155 60.9706 19.0562 61.0586 20.5155C61.1717 22.3845 61.3296 24.2496 61.4536 26.1179C61.6092 28.4602 61.7149 30.8042 61.422 33.1436C61.3802 33.4768 61.4698 33.7191 61.7119 33.9334C62.3359 34.484 63.0509 34.6829 63.8591 34.4796C64.6233 34.2872 65.0968 33.6588 65.1085 32.8448C65.1128 32.5695 65.0857 32.2935 65.0711 31.9668C65.651 32.2128 66.2008 32.4373 66.7425 32.679C68.9528 33.661 71.0822 34.7981 73.1567 36.0387C73.8328 36.4432 74.5161 36.5342 75.1805 36.0593C75.8617 35.5718 76.1708 34.8906 76.0489 34.0479C75.9682 33.4885 75.6312 33.101 75.1563 32.8191C72.4388 31.2063 69.6347 29.7668 66.6963 28.5967C66.1332 28.3729 65.565 28.1608 64.9925 27.9626C64.7766 27.8877 64.6871 27.7812 64.7701 27.5178C65.3302 27.6638 65.8939 27.8018 66.4526 27.9581C70.9574 29.2215 75.1614 31.1183 78.9044 33.9583C82.5923 36.7573 85.5161 40.1825 87.3256 44.4848C88.8076 48.0091 89.3875 51.683 89.0373 55.495C88.5264 61.054 86.259 65.8437 82.5446 69.9472C77.8084 75.1802 71.9441 78.5312 65.0776 80.1323C61.0748 81.0652 57.0118 81.328 52.9121 81.2172C45.777 81.0249 38.8864 79.5692 32.1521 77.2716C30.3816 76.6675 28.6059 76.0831 26.9336 75.2309C24.0891 73.7811 21.9193 71.5995 20.1767 68.9657C18.2115 65.9957 16.9776 62.7218 16.2208 59.2585C15.5499 56.1871 15.2827 53.0791 15.4779 49.9381C15.7495 45.5623 16.8741 41.4524 19.3266 37.766C20.8387 35.4933 22.7936 33.6919 25.1242 32.2708C29.3326 29.7037 33.7971 27.7629 38.603 26.6361C39.5022 26.4254 40.4146 26.2668 41.3242 26.1017C41.4261 26.0833 41.5709 26.1509 41.6589 26.2235C41.9312 26.4474 42.1866 26.6948 42.4385 26.9239ZM66.7249 43.0108C66.7249 42.3017 66.738 41.6029 66.7212 40.9055C66.7036 40.1685 66.239 39.6121 65.5335 39.4411C64.4354 39.1753 63.5405 39.8412 63.4854 40.9972C63.4421 41.912 63.4385 42.828 63.4275 43.7441C63.4253 43.9306 63.3702 44.034 63.1911 44.1193C60.4824 45.409 58.6231 47.4856 57.6291 50.3008C56.7651 52.7496 56.8951 55.1418 58.3559 57.3609C59.5179 59.1248 61.1886 60.1893 63.2072 60.7362C63.3834 60.7838 63.5163 60.8095 63.5207 61.0577C63.5559 63.0125 63.6095 64.9666 63.6557 66.9213C63.6579 67.0014 63.647 67.0813 63.6411 67.1929C63.5207 67.1643 63.4194 67.1519 63.3268 67.1159C62.4475 66.7731 61.5622 66.4434 60.6939 66.075C60.1844 65.8584 59.6771 65.6837 59.117 65.7263C57.8442 65.824 56.8025 66.7605 56.5068 68.0702C56.2505 69.2028 56.7541 70.2415 57.8911 70.9021C59.6508 71.924 61.5358 72.6074 63.542 72.9436C63.7967 72.9862 63.8525 73.086 63.8576 73.3172C63.8796 74.3251 63.9178 75.3329 63.9494 76.3408C63.967 76.9039 64.2283 77.298 64.6988 77.4698C65.5019 77.7634 66.2712 77.2738 66.3329 76.4142C66.3638 75.9834 66.3527 75.5502 66.3666 75.1186C66.3865 74.4844 66.4114 73.8509 66.4342 73.2063C67.133 73.155 67.8068 73.105 68.5042 73.0536C68.5094 73.155 68.5145 73.2555 68.5204 73.3561C68.5879 74.4858 68.6474 75.6155 68.7267 76.7445C68.7604 77.2225 69.0525 77.5095 69.4504 77.5146C69.7851 77.519 69.9643 77.3259 70.0501 76.8246C70.2733 75.518 70.5009 74.212 70.6954 72.9009C70.7394 72.6066 70.8598 72.4958 71.1241 72.4084C76.2008 70.726 79.9805 66.0985 80.5098 60.8463C80.7263 58.7013 80.0966 56.7927 78.5624 55.2358C77.0824 53.7347 75.2392 53.2686 73.1941 53.43C72.8308 53.4587 72.4704 53.5188 72.1077 53.5644C72.0277 52.7047 72.4659 46.9205 72.6531 46.5526C73.1516 46.7876 73.6779 46.9814 74.147 47.2684C75.1188 47.8629 76.0665 48.4994 77.0135 49.1351C77.5545 49.4984 78.0675 49.45 78.4882 48.9553C78.8626 48.5148 78.9059 47.9988 78.6012 47.5025C77.5794 45.8398 76.167 44.6199 74.3855 43.8344C73.8702 43.6076 73.3314 43.4329 72.7669 43.2207C72.7669 42.7737 72.7904 42.3002 72.761 41.8289C72.7265 41.2763 72.6927 40.7162 72.5738 40.178C72.4461 39.6018 71.8199 39.1893 71.2518 39.2091C70.7189 39.2282 70.3856 39.5534 70.2249 40.2221C70.1625 40.482 70.1023 40.7425 70.0604 41.0061C69.9635 41.611 69.8776 42.2173 69.7924 42.7891C68.7839 42.864 67.8017 42.9337 66.7249 43.0108ZM34.8512 66.6042C35.365 66.555 36.3949 66.5073 37.4087 66.3503C40.1864 65.9186 42.6991 64.8623 44.8652 63.0396C48.8417 59.6945 49.3027 54.2698 45.9356 50.3214C44.5746 48.7255 42.8422 47.6655 40.9043 46.916C40.0499 46.5857 39.1425 46.4389 38.2697 46.1879C34.6449 45.1432 31.029 45.1293 27.4497 46.2575C22.6834 47.7601 19.8177 50.9959 19.1144 55.9832C18.8068 58.1647 19.4198 60.1643 20.8446 61.8784C21.9934 63.2605 23.4997 64.1333 25.1278 64.8146C28.0722 66.0457 31.1655 66.5265 34.8512 66.6042ZM41.184 38.1822C40.171 38.1865 39.307 38.5587 38.6294 39.3258C37.5996 40.4923 37.4989 42.102 38.3541 43.4762C39.1132 44.697 40.6561 45.2775 42.1331 44.8973C43.9675 44.4253 45.1281 42.5447 44.6788 40.7807C44.5195 40.1539 44.1166 39.7009 43.6739 39.2605C42.9846 38.5734 42.1662 38.2093 41.184 38.1822ZM21.9251 39.2553C21.5677 39.3376 21.1963 39.3823 20.8557 39.5093C19.5717 39.9872 18.6674 41.3475 18.7665 42.6262C18.8883 44.1956 19.8235 45.4193 21.3387 45.8495C21.887 46.005 22.4427 45.9822 22.9918 45.7283C23.7273 45.3884 24.1457 44.749 24.5758 44.1302C24.7784 43.8396 24.8937 43.4644 24.9619 43.1106C25.0199 42.806 24.959 42.4779 24.9429 42.16C24.8555 40.5267 23.5768 39.3133 21.9251 39.2553ZM56.0517 25.0645C55.3264 25.0791 54.7281 25.5548 54.2663 26.2742C53.5492 27.3892 52.7997 28.4838 52.0943 29.6062C51.8345 30.0186 51.5988 30.4664 51.4615 30.9311C51.2487 31.6497 51.557 32.3926 52.1288 32.7846C52.7358 33.2008 53.4905 33.2053 54.1239 32.756C54.3978 32.5621 54.6569 32.328 54.8691 32.0682C55.6751 31.0801 56.4686 30.0811 57.2467 29.071C57.5153 28.7223 57.759 28.3457 57.9565 27.9523C58.6296 26.6074 57.6967 25.0733 56.0517 25.0645Z" fill="#6F2680"/>
<path d="M19.881 29.5729C19.3414 27.3223 19.2461 18.435 19.7518 16.489C22.5068 19.3666 25.2301 22.2103 27.9638 25.065C25.1765 26.3085 22.3533 27.5901 19.881 29.5729Z" fill="#6F2680"/>
<path d="M30.2176 83.3107C29.5276 84.3795 29.4645 85.6208 29.3104 86.84C29.2267 87.5008 29.1253 88.1592 29.0292 88.8338C28.8934 88.8338 28.7906 88.8463 28.6915 88.8315C27.8899 88.717 27.0912 88.5835 26.2882 88.4828C24.9221 88.3119 24.3812 87.6468 24.5859 86.2852C24.743 85.2398 24.9478 84.2019 25.1365 83.1624C25.2459 82.559 25.367 81.9571 25.4777 81.3801C27.0546 82.0224 28.6189 82.6596 30.2176 83.3107Z" fill="#6F2680"/>
<path d="M78.9388 80.9724C78.7891 83.1255 78.643 85.2329 78.497 87.3441C77.6014 87.3441 76.7646 87.3441 75.8873 87.3441C75.8661 86.9726 75.822 86.6174 75.8301 86.2628C75.8566 85.1126 75.8991 83.963 75.9482 82.8134C75.9527 82.7121 76.029 82.5727 76.1135 82.5228C76.9899 82.0082 77.8744 81.5083 78.7575 81.0054C78.7818 80.9923 78.8148 80.9945 78.9388 80.9724Z" fill="#6F2680"/>
<path d="M62.2177 89.9222C62.1671 88.8725 62.3425 87.9374 62.5803 87.011C62.5957 86.9508 62.678 86.8759 62.7397 86.8648C63.8378 86.6623 64.9381 86.4685 66.0378 86.2725C66.1765 87.1439 65.852 89.5883 65.5503 90.0331C64.983 89.9957 64.4324 89.9457 63.8803 89.9267C63.3386 89.9083 62.7955 89.9222 62.2177 89.9222Z" fill="#6F2680"/>
<path d="M43.5898 91.1083C43.7441 89.5749 43.896 88.0686 44.0494 86.5403C44.8297 86.6511 45.6195 86.7626 46.4659 86.8823C46.4057 87.4982 46.38 88.1119 46.278 88.7124C46.1495 89.4691 45.9535 90.215 45.7957 90.9673C45.7384 91.2405 45.6195 91.366 45.3127 91.3176C44.7673 91.2309 44.2146 91.1817 43.5898 91.1083Z" fill="#6F2680"/>
<path d="M66.7249 43.0107C67.8018 42.9336 68.784 42.8638 69.794 42.7919C69.8791 42.2193 69.965 41.613 70.0619 41.0089C70.1046 40.7453 70.164 40.4848 70.2264 40.2249C70.3871 39.5562 70.7203 39.2302 71.2533 39.2119C71.8215 39.1921 72.4476 39.6039 72.5753 40.1808C72.6942 40.7189 72.728 41.2791 72.7626 41.8317C72.7919 42.3023 72.7684 42.7765 72.7684 43.2235C73.3329 43.4357 73.8718 43.6104 74.387 43.8372C76.1693 44.6226 77.5809 45.8426 78.6028 47.5053C78.9074 48.0016 78.8648 48.5176 78.4897 48.9581C78.069 49.4528 77.556 49.5012 77.015 49.1379C76.068 48.5022 75.121 47.8665 74.1485 47.2712C73.6794 46.9842 73.1531 46.7903 72.6546 46.5554C72.4675 46.9232 72.0292 52.7075 72.1092 53.5671C72.4711 53.5216 72.8323 53.4615 73.1956 53.4328C75.24 53.2714 77.084 53.7375 78.5638 55.2386C80.098 56.7949 80.7271 58.7034 80.5113 60.8491C79.982 66.1013 76.2031 70.7288 71.1256 72.4112C70.8613 72.4986 70.7409 72.6094 70.6969 72.9037C70.5024 74.2148 70.2749 75.5208 70.0516 76.8273C69.9658 77.3287 69.7867 77.5218 69.4519 77.5174C69.0541 77.5123 68.7619 77.2253 68.7282 76.7473C68.6481 75.6183 68.5894 74.4886 68.5219 73.359C68.516 73.2583 68.5116 73.1578 68.5057 73.0564C67.8083 73.1078 67.1352 73.1578 66.4357 73.2091C66.4129 73.8537 66.388 74.4872 66.3682 75.1214C66.355 75.553 66.3652 75.9868 66.3344 76.417C66.2727 77.2766 65.5034 77.7662 64.7003 77.4726C64.2298 77.3008 63.9685 76.9066 63.9509 76.3436C63.9193 75.3357 63.8811 74.3279 63.8591 73.32C63.854 73.0888 63.7982 72.9889 63.5435 72.9464C61.5373 72.6102 59.6522 71.9268 57.8927 70.9049C56.7557 70.2443 56.2521 69.2056 56.5083 68.073C56.8041 66.7627 57.8457 65.826 59.1186 65.7291C59.6786 65.6865 60.1859 65.8612 60.6954 66.0778C61.5637 66.447 62.449 66.7766 63.3284 67.1187C63.4209 67.1547 63.5222 67.1671 63.6426 67.1958C63.6491 67.0835 63.6594 67.0034 63.6572 66.9241C63.611 64.9694 63.5575 63.0153 63.5222 61.0605C63.5178 60.8123 63.3849 60.7859 63.2088 60.7389C61.1901 60.1921 59.5186 59.1276 58.3574 57.3637C56.8959 55.1446 56.7659 52.7524 57.6307 50.3036C58.6238 47.4884 60.4839 45.4118 63.1926 44.122C63.3718 44.0368 63.426 43.9334 63.429 43.7469C63.44 42.8315 63.4436 41.9147 63.4869 41C63.5421 39.8439 64.4369 39.1781 65.535 39.4439C66.2405 39.6141 66.7058 40.1705 66.7227 40.9083C66.7373 41.6027 66.7249 42.3015 66.7249 43.0107ZM69.6406 46.0386C68.7744 46.0423 67.9537 46.1862 67.1485 46.4519C66.9202 46.5275 66.835 46.6266 66.8364 46.8828C66.8475 49.5776 66.8423 52.273 66.8416 54.9678C66.8416 55.0669 66.8416 55.166 66.8416 55.34C67.6439 55.0691 68.3927 54.821 69.1348 54.5566C69.1994 54.5339 69.2589 54.4018 69.2633 54.3181C69.3932 51.7812 69.5172 49.2443 69.6392 46.7073C69.6494 46.4945 69.6406 46.2809 69.6406 46.0386ZM71.351 66.1122C72.6422 65.3635 73.9966 63.72 74.5177 62.3149C74.7687 61.6389 74.8708 60.9452 74.8202 60.2259C74.7563 59.3295 74.296 58.9243 73.4203 59.0734C72.9284 59.1571 72.4557 59.3487 71.9697 59.4779C71.7775 59.5293 71.7201 59.629 71.7099 59.8236C71.6218 61.4569 71.5213 63.0886 71.4258 64.7219C71.3987 65.1711 71.3766 65.6205 71.351 66.1122ZM66.7476 61.0773C66.6963 63.2384 66.6442 65.4002 66.5906 67.6339C67.2322 67.5459 67.8194 67.4739 68.4023 67.3748C68.4735 67.3631 68.5644 67.2075 68.5696 67.1135C68.6804 65.1962 68.781 63.2773 68.8793 61.3592C68.8918 61.1191 68.8809 60.8784 68.8809 60.6486C68.1725 60.791 67.481 60.9298 66.7476 61.0773ZM63.3791 49.0681C62.6582 49.7354 62.1348 50.5076 61.8904 51.4458C61.6085 52.5314 61.8398 53.5231 62.463 54.4341C62.6905 54.7659 62.9929 55.0192 63.3783 55.2056C63.3791 53.1311 63.3791 51.0999 63.3791 49.0681Z" fill="#2C0D33"/>
<path d="M34.851 66.604C31.1646 66.5261 28.072 66.0453 25.1276 64.8136C23.4995 64.1323 21.9932 63.2595 20.8444 61.8774C19.4196 60.1633 18.8066 58.1645 19.1142 55.9822C19.8175 50.9949 22.6832 47.7591 27.4495 46.2565C31.0295 45.1283 34.6447 45.1422 38.2695 46.1869C39.1423 46.4386 40.0497 46.5846 40.9041 46.915C42.842 47.6645 44.5744 48.7245 45.9354 50.3202C49.3025 54.2688 48.8415 59.6935 44.865 63.0386C42.6989 64.8613 40.1862 65.9176 37.4085 66.3493C36.3955 66.5071 35.3648 66.5548 34.851 66.604ZM34.2961 61.4788C35.5594 61.4685 36.7853 61.3473 37.9759 60.9869C39.4528 60.5399 40.8108 59.8756 41.8709 58.7165C42.599 57.9201 42.9925 56.9848 42.8229 55.8932C42.7532 55.444 42.5447 55.0176 42.4192 54.5749C41.9479 52.9167 40.7793 51.8706 39.3096 51.1388C38.4486 50.7101 37.5222 50.4114 36.626 50.0516C36.3911 49.9577 36.1686 49.8101 35.9257 49.7631C33.4071 49.2765 30.9319 49.449 28.5124 50.3101C26.4269 51.0514 24.9184 52.427 24.039 54.4648C23.686 55.2826 23.5325 56.1384 23.7175 57.0259C23.9847 58.3083 24.8201 59.1319 25.9755 59.6149C28.6423 60.7308 31.4127 61.4215 34.2961 61.4788Z" fill="#2C0D33"/>
<path d="M41.1839 38.1821C42.1653 38.2093 42.9837 38.5734 43.673 39.2597C44.115 39.7001 44.5187 40.1538 44.678 40.7799C45.1273 42.5439 43.9667 44.4246 42.1323 44.8966C40.6554 45.2767 39.1123 44.6962 38.3533 43.4754C37.4989 42.1013 37.5987 40.4907 38.6286 39.325C39.3069 38.5587 40.1708 38.1865 41.1839 38.1821Z" fill="#2C0D33"/>
<path d="M21.9247 39.2554C23.5763 39.3127 24.8558 40.5267 24.9417 42.1608C24.9586 42.4779 25.0195 42.8068 24.9608 43.1114C24.8933 43.4652 24.7772 43.8396 24.5747 44.131C24.1445 44.7498 23.726 45.3885 22.9906 45.7291C22.4414 45.983 21.8858 46.0051 21.3375 45.8502C19.8231 45.4207 18.8879 44.1964 18.7653 42.627C18.6655 41.3482 19.5706 39.9873 20.8544 39.5101C21.1958 39.3824 21.5672 39.3384 21.9247 39.2554Z" fill="#2C0D33"/>
<path d="M56.0514 25.0642C57.6972 25.0731 58.6294 26.6073 57.9556 27.952C57.7589 28.3455 57.5144 28.722 57.2457 29.0707C56.4676 30.0808 55.6741 31.0798 54.8681 32.0679C54.656 32.3278 54.3969 32.5612 54.1231 32.7557C53.4896 33.2042 52.735 33.1998 52.1279 32.7843C51.556 32.3923 51.2478 31.6495 51.4607 30.9309C51.5979 30.4669 51.8343 30.0191 52.0934 29.6059C52.7989 28.4835 53.5483 27.3897 54.2655 26.274C54.7279 25.5545 55.3254 25.0796 56.0514 25.0642Z" fill="#2C0D33"/>
<path d="M69.6406 46.0388C69.6406 46.2811 69.6493 46.4947 69.6392 46.7075C69.5172 49.2445 69.3932 51.7813 69.2632 54.3183C69.2589 54.4027 69.1994 54.5341 69.1348 54.5568C68.392 54.8211 67.6439 55.0693 66.8416 55.3401C66.8416 55.1661 66.8416 55.067 66.8416 54.9679C66.8423 52.2732 66.8475 49.5776 66.8364 46.883C66.8358 46.6268 66.9201 46.527 67.1485 46.452C67.9537 46.1864 68.7743 46.0424 69.6406 46.0388Z" fill="#6F2680"/>
<path d="M71.3506 66.1123C71.3769 65.6198 71.399 65.1713 71.4247 64.7221C71.5201 63.0894 71.6206 61.4569 71.7088 59.8236C71.7191 59.6291 71.7763 59.5285 71.9687 59.4779C72.4539 59.3495 72.9266 59.1571 73.4191 59.0734C74.2956 58.9244 74.7559 59.3297 74.819 60.2259C74.8696 60.9446 74.7676 61.639 74.5166 62.3151C73.9961 63.7201 72.6418 65.3636 71.3506 66.1123Z" fill="#6F2680"/>
<path d="M66.7472 61.0775C67.4805 60.9308 68.1727 60.7913 68.8811 60.6497C68.8811 60.8787 68.8921 61.1202 68.8796 61.3602C68.7813 63.2783 68.68 65.1971 68.5699 67.1145C68.5647 67.2077 68.4729 67.3633 68.4025 67.3758C67.8197 67.4749 67.2324 67.5468 66.5908 67.6349C66.6436 65.4005 66.6951 63.2387 66.7472 61.0775Z" fill="#6F2680"/>
<path d="M63.3787 49.0684C63.3787 51.1002 63.3787 53.1321 63.3787 55.2058C62.9934 55.0193 62.6902 54.7661 62.4633 54.4343C61.8401 53.5241 61.6089 52.5316 61.8907 51.446C62.1345 50.5071 62.6579 49.7349 63.3787 49.0684Z" fill="#6F2680"/>
<path d="M34.2962 61.479C31.4127 61.4218 28.6425 60.731 25.9756 59.616C24.8209 59.133 23.9849 58.3093 23.7177 57.027C23.5326 56.1395 23.686 55.2828 24.0391 54.4658C24.9193 52.4274 26.4271 51.0524 28.5125 50.3111C30.9327 49.4507 33.4072 49.2775 35.9258 49.7642C36.1688 49.8111 36.3912 49.9587 36.6261 50.0526C37.5223 50.4124 38.4481 50.7104 39.3098 51.1398C40.7794 51.8716 41.9473 52.9177 42.4193 54.5759C42.5448 55.0186 42.7533 55.445 42.8231 55.8943C42.9926 56.9859 42.5992 57.9203 41.871 58.7175C40.811 59.8773 39.453 60.5409 37.976 60.9879C36.7861 61.3477 35.5595 61.4681 34.2962 61.479ZM38.8525 55.0332C38.829 54.8688 38.8268 54.5627 38.7394 54.283C38.4473 53.3508 37.8549 52.6711 36.8903 52.4274C35.9772 52.1962 35.1734 52.478 34.5539 53.1857C33.9042 53.9285 33.8631 54.8079 34.101 55.7145C34.2646 56.3392 34.4907 56.9477 34.6493 57.5739C34.8247 58.2683 35.2438 58.6896 35.9346 58.8254C36.6797 58.9723 37.3595 58.7998 37.791 58.1545C38.3915 57.2575 38.7806 56.2642 38.8525 55.0332ZM31.5816 55.3995C31.5626 55.2292 31.5508 55.0751 31.5273 54.9232C31.3306 53.6518 29.9556 52.7694 28.7724 53.1526C27.4628 53.5769 26.96 55.0318 27.6558 56.3406C27.7608 56.5388 27.8291 56.7737 27.8467 56.9968C27.9099 57.7654 28.329 58.3255 29.0264 58.5193C29.7135 58.7102 30.4409 58.4533 30.8225 57.8301C31.2792 57.0842 31.5126 56.2577 31.5816 55.3995Z" fill="#6F2680"/>
<path d="M38.8524 55.033C38.7804 56.264 38.3913 57.2572 37.7916 58.1549C37.36 58.8002 36.681 58.9727 35.9352 58.8259C35.2445 58.6901 34.8253 58.268 34.6498 57.5743C34.492 56.9482 34.2659 56.3396 34.1015 55.715C33.8637 54.8084 33.9041 53.929 34.5545 53.1861C35.174 52.4784 35.9778 52.1966 36.8909 52.4278C37.8555 52.6715 38.4479 53.3513 38.74 54.2836C38.8267 54.5625 38.8288 54.8686 38.8524 55.033Z" fill="#2C0D33"/>
<path d="M31.5812 55.3995C31.5129 56.2569 31.2788 57.0842 30.8222 57.8307C30.4405 58.4539 29.7123 58.7109 29.026 58.52C28.3286 58.3263 27.9087 57.7662 27.8464 56.9976C27.828 56.7745 27.7604 56.5388 27.6555 56.3414C26.9596 55.0325 27.4631 53.5769 28.772 53.1533C29.956 52.7702 31.3309 53.6525 31.5269 54.9239C31.5497 55.0758 31.5614 55.2292 31.5812 55.3995Z" fill="#2C0D33"/>
</g>
</svg>
