<svg width="105" height="105" viewBox="0 0 105 105" fill="none" xmlns="http://www.w3.org/2000/svg">
<path d="M31.5167 65.8368C25.7587 70.9389 20.3844 76.3384 13.7403 80.3264C12.1865 81.2836 9.93079 82.0119 8.496 80.4345C7.02097 78.8971 7.88624 76.8002 8.87269 75.2653C11.102 71.5761 13.5728 68.125 15.4595 64.2239C5.21005 61.6969 6.54793 49.928 6.89661 41.6765C7.28621 36.7346 7.36168 31.6421 9.23702 26.982C11.096 21.9368 16.9688 20.0318 21.9348 20.0524C30.9711 20.2098 40.0389 20.0606 49.055 20.7148C55.6063 21.2835 60.1216 23.5929 60.305 30.8129C71.3021 32.3038 91.6391 27.2957 93.8551 42.7144C94.6396 51.9352 95.8666 61.5132 93.5805 70.5891C92.7198 73.8379 90.1619 75.4603 86.952 76.0672C88.0807 81.3966 90.2594 86.5973 90.5255 92.0562C89.6437 99.1591 82.9668 93.2111 80.1408 90.825C76.1308 87.452 72.1987 83.9863 68.2299 80.564C66.4999 79.3836 65.0678 76.9439 62.6969 77.5492C51.4177 79.6772 32.3074 81.7957 31.5167 65.8368ZM84.9256 88.1333C84.0931 84.3169 82.8598 80.6561 81.812 76.8972C80.5335 73.2654 83.2099 71.2683 86.5463 70.885C87.912 70.6878 88.6681 69.857 88.8846 68.5659C90.4489 60.4474 89.5944 52.1107 88.859 43.94C88.4868 39.8517 86.9802 38.5041 83.0855 37.4358C70.72 35.1984 58.1235 37.0268 45.6391 36.941C38.8318 36.8573 37.9141 42.8329 37.2607 48.2656C36.9384 51.0832 36.7407 53.9209 36.6292 56.7556C36.6639 62.2237 35.1085 71.1444 41.9566 72.9805C43.6964 73.4481 45.5272 73.7075 47.329 73.7868C74.423 73.2932 58.8126 66.8923 84.9256 88.1333ZM55.7201 30.8736C55.695 28.5765 54.8929 26.472 52.1483 26.0511C42.4986 24.4436 32.6604 25.27 22.9199 25.0072C11.4048 24.7811 12.9795 33.1813 12.0584 41.7895C11.927 45.5867 11.9041 49.4032 12.1351 53.1931C12.3687 57.026 13.5938 58.2584 17.2805 59.2555C24.0035 60.9572 19.3133 67.8354 17.3356 71.6594C21.0569 69.4605 27.3424 60.6926 31.3234 60.5769C32.7659 39.5268 30.7668 30.7509 55.7201 30.8736Z" fill="#2C0D33"/>
<path d="M41.7607 99.7683C42.0364 96.975 42.3201 94.1824 42.5838 91.388C42.9187 88.9231 42.2168 84.2072 45.7755 84.3032C47.2826 84.4031 48.4547 85.725 48.2838 87.4286C47.7974 92.2754 47.2294 97.1145 46.6508 101.952C46.513 103.103 45.5448 103.91 44.4586 103.971C42.0862 104.064 41.7156 101.671 41.9021 99.777C41.855 99.7741 41.8079 99.7711 41.7607 99.7683Z" fill="#2C0D33"/>
<path d="M72.441 8.41577C76.7056 8.7276 75.2457 12.1931 73.8013 14.5381C72.5121 17.1912 71.2469 19.856 69.9418 22.5013C69.3351 23.9238 67.9964 25.6877 66.3048 24.7989C64.9351 24.176 64.8589 22.4195 65.4747 21.1883C67.1559 17.4432 68.8389 13.6987 70.5613 9.97229C71.0048 9.01296 71.7968 8.43458 72.441 8.41577Z" fill="#2C0D33"/>
<path d="M58.5547 16.3838C58.7782 19.1816 55.3127 20.2051 54.249 17.7568C53.3888 15.5309 52.5917 13.2743 51.9097 10.9881C51.0579 8.00295 55.6335 6.48887 56.7815 9.38742C57.6623 11.5351 58.0553 14.3026 58.5547 16.3838Z" fill="#2C0D33"/>
<path d="M34.2532 81.9029C33.6898 83.609 31.7612 85.0982 30.3297 86.2306C27.8647 88.3079 24.6708 85.1047 26.8065 82.6725C27.7356 81.5527 28.7485 80.4851 29.8339 79.5173C31.6278 77.9698 34.3877 79.2159 34.2532 81.9029Z" fill="#2C0D33"/>
<path d="M76.6377 28.5286C73.9195 28.4002 73.4338 24.9119 75.8338 23.8582C78.0091 22.857 81.675 19.7377 83.3497 22.8114C83.9489 24.0255 83.4032 25.459 81.9918 26.1926C80.2365 27.0287 78.5417 28.0699 76.6377 28.5286Z" fill="#2C0D33"/>
<path d="M62.4477 89.4515C62.4541 92.1029 58.9394 92.7205 57.7419 90.5404C56.3823 88.492 53.9327 85.2096 56.8972 83.4643C58.2632 82.7091 60.0354 83.2012 60.7781 84.7127C61.4116 86.2209 62.2062 87.8327 62.4477 89.4515Z" fill="#2C0D33"/>
<path d="M84.9258 88.1332C58.8028 66.8882 74.4368 73.2945 47.3293 73.7871C45.5272 73.7075 43.6965 73.4479 41.957 72.9804C35.1005 71.1419 36.6768 62.2263 36.6292 56.7557C36.7408 53.9209 36.9385 51.0832 37.2607 48.2654C37.9203 42.8461 38.8187 36.8546 45.6394 36.9416C58.1236 37.0265 70.7198 35.1989 83.0856 37.4355C86.977 38.5094 88.4887 39.8484 88.8589 43.9401C89.5951 52.1103 90.4487 60.4477 88.885 68.5659C88.6682 69.8569 87.9121 70.6878 86.5464 70.8849C83.1984 71.261 80.5439 73.2723 81.8123 76.8973C82.8603 80.6566 84.0924 84.3151 84.9258 88.1332Z" fill="#6F2680"/>
<path d="M55.7203 30.8738C30.7398 30.7461 32.7699 39.571 31.3238 60.5771C27.35 60.6876 21.0495 69.4668 17.3359 71.6595C19.3123 67.8439 24.0042 60.9533 17.2807 59.2557C13.5942 58.2586 12.3691 57.0262 12.1355 53.1933C11.9045 49.4034 11.9273 45.5868 12.0588 41.7896C12.9804 33.186 11.4037 24.7802 22.9202 25.0079C32.6608 25.2701 42.4985 24.444 52.1486 26.0511C54.8931 26.4723 55.6953 28.5767 55.7203 30.8738Z" fill="#2C0D33"/>
</svg>
