<svg width="105" height="105" viewBox="0 0 105 105" fill="none" xmlns="http://www.w3.org/2000/svg">
<path d="M33.2041 95.3006C30.2704 95.0421 27.3168 94.3161 24.5223 93.3714C16.2682 90.557 11.8328 84.5206 10.908 75.988C10.2517 69.9217 9.93343 63.8156 9.56547 57.7095C9.19751 51.6532 8.75 45.5969 8.75 39.5405C8.75 34.3891 9.36657 29.2378 11.4251 24.4046C13.7522 18.9649 17.7798 15.2952 23.2494 13.1671C27.6251 11.4665 32.2295 10.9096 36.8438 10.3726C45.6947 9.35822 54.5654 8.99028 63.456 9.57701C70.4471 10.0345 77.3986 10.8599 83.8626 13.7737C88.1985 15.7328 91.2715 18.9947 92.8029 23.609C94.5135 28.7406 95.1499 34.0411 95.5875 39.3913C96.2537 47.6256 96.4328 55.8697 96.0549 64.1239C95.7963 69.6432 94.9013 75.0433 92.7035 80.115C89.2626 88.0609 83.614 93.5703 74.7731 95.0024C71.6903 95.4996 68.5378 95.6687 65.4151 95.7482C60.7809 95.8675 56.1367 95.778 51.4925 95.778L33.2041 95.3006ZM53.9489 88.936C60.4527 88.6477 66.2406 88.4487 72.0284 88.1007C76.5731 87.8322 80.3223 85.893 83.1764 82.2731C87.0947 77.3007 88.3775 71.4233 88.7554 65.3471C89.372 55.4223 89.0637 45.5073 87.9598 35.6222C87.562 32.0521 87.0151 28.5416 84.9863 25.4389C84.4493 24.6134 84.0218 23.7085 83.5245 22.8533C82.2316 20.6356 80.551 18.6565 78.0549 17.9803C72.5256 16.4687 66.8272 15.7328 61.109 15.7428C54.7643 15.7527 48.3996 15.892 42.0848 16.4189C37.3213 16.8167 32.5776 17.7416 27.9035 18.7759C22.1058 20.0587 18.7146 24.0068 17.2329 29.6356C15.6914 35.5029 15.7013 41.4996 16.0594 47.5063C16.4075 53.2444 16.8649 58.9824 17.2925 64.7206C17.571 68.3604 17.76 72.0101 18.2174 75.63C18.9334 81.1692 21.8771 85.0675 27.3567 86.6487C29.972 87.4045 32.6869 88.0708 35.382 88.2399C41.7963 88.6477 48.2207 88.7371 53.9489 88.936Z" fill="#2C0D33"/>
<path d="M53.9488 88.9361C48.2206 88.7372 41.7963 88.6477 35.3819 88.24C32.677 88.0709 29.972 87.3947 27.3565 86.6488C21.8769 85.0676 18.9333 81.1693 18.2173 75.6301C17.7499 72.0201 17.5609 68.3605 17.2924 64.7207C16.8549 58.9825 16.4073 53.2543 16.0593 47.5064C15.7013 41.5097 15.6913 35.513 17.2328 29.6356C18.7146 24.0169 22.1056 20.0588 27.9035 18.776C32.5775 17.7417 37.3211 16.8168 42.0846 16.419C48.3996 15.882 54.7642 15.7527 61.109 15.7428C66.8372 15.7329 72.5255 16.4788 78.0548 17.9804C80.5509 18.6666 82.2316 20.6357 83.5244 22.8534C84.0216 23.7086 84.4493 24.6135 84.9863 25.439C87.015 28.5318 87.562 32.0522 87.9598 35.6223C89.0636 45.5074 89.3719 55.4224 88.7554 65.3472C88.3775 71.4234 87.0945 77.3008 83.1764 82.2732C80.3222 85.8931 76.5829 87.8323 72.0283 88.1008C66.2404 88.4389 60.4526 88.6378 53.9488 88.9361ZM42.0449 71.4035C42.3631 71.9704 42.6316 72.8554 43.2184 73.3925C44.6106 74.6853 46.7387 74.0488 47.5841 72.0997C48.2106 70.6477 48.6879 69.1262 49.1355 67.6047C52.5962 55.8102 56.0372 44.0058 59.4879 32.2014C60.0548 30.2622 59.1797 28.4323 57.3995 27.8854C55.6593 27.3483 53.8394 28.4324 53.2924 30.3616C53.0438 31.2367 52.8647 32.1317 52.6161 33.0168C49.5333 44.0555 46.4504 55.0941 43.3774 66.1428C42.92 67.7836 42.5421 69.4444 42.0449 71.4035ZM27.2571 50.4201C31.5433 46.9892 35.5807 43.7373 39.6382 40.5053C40.9908 39.4312 41.4382 38.1384 40.7918 36.8952C40.1454 35.6422 38.6239 35.1251 37.0725 35.7715C36.098 36.1793 35.1233 36.7063 34.2979 37.3627C30.0515 40.7539 25.845 44.1848 21.6383 47.6356C20.5841 48.5008 20.0471 49.7339 20.415 51.0367C20.7234 52.1505 21.2305 53.324 21.9764 54.1792C25.4472 58.1869 29.8924 61.0014 34.2681 63.8753C36.0383 65.0388 38.3355 63.9748 38.8526 62.0257C39.2504 60.504 38.6737 59.2909 37.4703 58.3759C35.5808 56.9339 33.6415 55.5417 31.762 54.0898C30.2902 52.9461 28.878 51.7428 27.2571 50.4201ZM76.9907 50.3605C76.5432 50.7483 76.2448 51.0566 75.8968 51.3151C71.8393 54.3583 67.7719 57.3913 63.7046 60.4345C62.0636 61.6676 61.6361 63.4378 62.6205 64.8898C63.6448 66.3814 65.604 66.6997 67.2349 65.3969C72.3365 61.2996 77.3984 57.1527 82.3907 52.9262C84.3796 51.2456 84.2304 49.2168 82.2017 47.566C79.9542 45.7361 77.6769 43.9461 75.3797 42.1859C73.52 40.7638 71.6106 39.4113 69.7111 38.039C69.2935 37.7406 68.8559 37.4522 68.3985 37.2334C66.9763 36.5771 65.4747 36.9948 64.7289 38.208C64.0128 39.3814 64.2614 40.8931 65.4647 41.8278C67.0659 43.071 68.7465 44.1947 70.3675 45.408C72.5653 47.019 74.7333 48.6699 76.9907 50.3605Z" fill="#6F2680"/>
<path d="M42.0454 71.4034C42.5426 69.4343 42.9205 67.7735 43.378 66.1427C46.4509 55.104 49.5437 44.0653 52.6167 33.0167C52.8653 32.1416 53.0443 31.2366 53.2929 30.3614C53.8399 28.4321 55.6598 27.3482 57.4001 27.8852C59.1802 28.4321 60.0553 30.262 59.4885 32.2012C56.0376 44.0056 52.5968 55.81 49.136 67.6044C48.6885 69.1261 48.2112 70.6476 47.5846 72.0995C46.7493 74.0487 44.6111 74.6752 43.2189 73.3924C42.6421 72.8553 42.3736 71.9802 42.0454 71.4034Z" fill="#2C0D33"/>
<path d="M27.2577 50.4203C28.8687 51.7428 30.2908 52.9462 31.7527 54.0798C33.6323 55.5318 35.5715 56.924 37.461 58.366C38.6643 59.2809 39.251 60.5042 38.8432 62.0158C38.3261 63.9649 36.0289 65.029 34.2588 63.8655C29.8831 60.9915 25.4378 58.1771 21.9671 54.1694C21.2212 53.3041 20.724 52.1406 20.4058 51.0268C20.0377 49.7141 20.5748 48.4909 21.6289 47.6257C25.8256 44.1749 30.0422 40.744 34.2886 37.3528C35.114 36.6964 36.0886 36.1693 37.0632 35.7617C38.6145 35.1153 40.1362 35.6324 40.7826 36.8854C41.429 38.1384 40.9814 39.4213 39.6289 40.4953C35.5815 43.7373 31.5439 46.9893 27.2577 50.4203Z" fill="#2C0D33"/>
<path d="M76.9903 50.3603C74.733 48.6698 72.5649 47.0189 70.3671 45.3979C68.7362 44.1946 67.0556 43.0609 65.4644 41.8178C64.2612 40.883 64.0125 39.3714 64.7285 38.1979C65.4744 36.9847 66.9761 36.567 68.3982 37.2233C68.8655 37.4421 69.2932 37.7305 69.7109 38.0289C71.6103 39.4012 73.5197 40.7538 75.3794 42.1758C77.6766 43.936 79.954 45.7261 82.2014 47.5559C84.2302 49.2067 84.3793 51.2355 82.3904 52.9161C77.3981 57.1426 72.3263 61.2896 67.2346 65.3869C65.6136 66.6896 63.6445 66.3713 62.6202 64.8797C61.6258 63.4277 62.0534 61.6575 63.7042 60.4244C67.7716 57.3912 71.839 54.3482 75.8965 51.3051C76.2445 51.0564 76.5528 50.7481 76.9903 50.3603Z" fill="#2C0D33"/>
</svg>
