<svg width="196" height="36" viewBox="0 0 196 36" fill="none" xmlns="http://www.w3.org/2000/svg">
<path d="M0.227273 35V0.0909081H12.4318C14.8636 0.0909081 16.8693 0.511363 18.4489 1.35227C20.0284 2.18182 21.2045 3.30114 21.9773 4.71023C22.75 6.10795 23.1364 7.65909 23.1364 9.36364C23.1364 10.8636 22.8693 12.1023 22.3352 13.0795C21.8125 14.0568 21.1193 14.8295 20.2557 15.3977C19.4034 15.9659 18.4773 16.3864 17.4773 16.6591V17C18.5455 17.0682 19.6193 17.4432 20.6989 18.125C21.7784 18.8068 22.6818 19.7841 23.4091 21.0568C24.1364 22.3295 24.5 23.8864 24.5 25.7273C24.5 27.4773 24.1023 29.0511 23.3068 30.4489C22.5114 31.8466 21.2557 32.9545 19.5398 33.7727C17.8239 34.5909 15.5909 35 12.8409 35H0.227273ZM4.45455 31.25H12.8409C15.6023 31.25 17.5625 30.7159 18.7216 29.6477C19.892 28.5682 20.4773 27.2614 20.4773 25.7273C20.4773 24.5455 20.1761 23.4545 19.5739 22.4545C18.9716 21.4432 18.1136 20.6364 17 20.0341C15.8864 19.4205 14.5682 19.1136 13.0455 19.1136H4.45455V31.25ZM4.45455 15.4318H12.2955C13.5682 15.4318 14.7159 15.1818 15.7386 14.6818C16.7727 14.1818 17.5909 13.4773 18.1932 12.5682C18.8068 11.6591 19.1136 10.5909 19.1136 9.36364C19.1136 7.82955 18.5795 6.52841 17.5114 5.46023C16.4432 4.38068 14.75 3.84091 12.4318 3.84091H4.45455V15.4318ZM38.6051 35.6136C36.946 35.6136 35.4403 35.3011 34.0881 34.6761C32.7358 34.0398 31.6619 33.125 30.8665 31.9318C30.071 30.7273 29.6733 29.2727 29.6733 27.5682C29.6733 26.0682 29.9688 24.8523 30.5597 23.9205C31.1506 22.9773 31.9403 22.2386 32.929 21.7045C33.9176 21.1705 35.0085 20.7727 36.2017 20.5114C37.4063 20.2386 38.6165 20.0227 39.8324 19.8636C41.4233 19.6591 42.7131 19.5057 43.7017 19.4034C44.7017 19.2898 45.429 19.1023 45.8835 18.8409C46.3494 18.5795 46.5824 18.125 46.5824 17.4773V17.3409C46.5824 15.6591 46.1222 14.3523 45.2017 13.4205C44.2926 12.4886 42.9119 12.0227 41.0597 12.0227C39.1392 12.0227 37.6335 12.4432 36.5426 13.2841C35.4517 14.125 34.6847 15.0227 34.2415 15.9773L30.4233 14.6136C31.1051 13.0227 32.0142 11.7841 33.1506 10.8977C34.2983 10 35.5483 9.375 36.9006 9.02273C38.2642 8.65909 39.6051 8.47727 40.9233 8.47727C41.7642 8.47727 42.7301 8.57955 43.821 8.78409C44.9233 8.97727 45.9858 9.38068 47.0085 9.99432C48.0426 10.608 48.9006 11.5341 49.5824 12.7727C50.2642 14.0114 50.6051 15.6705 50.6051 17.75V35H46.5824V31.4545H46.3778C46.1051 32.0227 45.6506 32.6307 45.0142 33.2784C44.3778 33.9261 43.5313 34.4773 42.4744 34.9318C41.4176 35.3864 40.1278 35.6136 38.6051 35.6136ZM39.2188 32C40.8097 32 42.1506 31.6875 43.2415 31.0625C44.3438 30.4375 45.1733 29.6307 45.7301 28.642C46.2983 27.6534 46.5824 26.6136 46.5824 25.5227V21.8409C46.4119 22.0455 46.0369 22.233 45.4574 22.4034C44.8892 22.5625 44.2301 22.7045 43.4801 22.8295C42.7415 22.9432 42.0199 23.0455 41.3153 23.1364C40.6222 23.2159 40.0597 23.2841 39.6278 23.3409C38.5824 23.4773 37.6051 23.6989 36.696 24.0057C35.7983 24.3011 35.071 24.75 34.5142 25.3523C33.9688 25.9432 33.696 26.75 33.696 27.7727C33.696 29.1705 34.2131 30.2273 35.2472 30.9432C36.2926 31.6477 37.6165 32 39.2188 32ZM61.9702 19.25V35H57.9474V8.81818H61.8338V12.9091H62.1747C62.7884 11.5795 63.7202 10.5114 64.9702 9.70455C66.2202 8.88636 67.8338 8.47727 69.8111 8.47727C71.5838 8.47727 73.1349 8.84091 74.4645 9.56818C75.794 10.2841 76.8281 11.375 77.5668 12.8409C78.3054 14.2955 78.6747 16.1364 78.6747 18.3636V35H74.652V18.6364C74.652 16.5795 74.1179 14.9773 73.0497 13.8295C71.9815 12.6705 70.5156 12.0909 68.652 12.0909C67.3679 12.0909 66.2202 12.3693 65.2088 12.9261C64.2088 13.483 63.419 14.2955 62.8395 15.3636C62.2599 16.4318 61.9702 17.7273 61.9702 19.25Z" fill="#EEC6F7"/>
<path d="M85.3778 35V0.0909081H92.7585V15.483H93.2188L105.781 0.0909081H114.628L101.673 15.7216L114.781 35H105.952L96.3892 20.6477L92.7585 25.0795V35H85.3778ZM126.33 35L116.341 0.0909081H124.403L130.182 24.3466H130.472L136.847 0.0909081H143.75L150.108 24.3977H150.415L156.193 0.0909081H164.256L154.267 35H147.074L140.426 12.1761H140.153L133.523 35H126.33ZM166.876 6.17614V0.0909081H195.547V6.17614H184.859V35H177.564V6.17614H166.876Z" fill="#954BA6"/>
</svg>
